STARTFONT 2.1
FONT -FontForge-Source Code Pro-Bold-R-Normal--36-360-72-72-M-220-ISO10646-1
SIZE 36 72 72
FONTBOUNDINGBOX 36 54 -7 -16
COMMENT "Generated by fontforge, http://fontforge.sourceforge.net"
COMMENT "Copyright 2010, 2012 Adobe Systems Incorporated (http://www.adobe.com/), with Reserved Font Name `Source'."
STARTPROPERTIES 40
FOUNDRY "FontForge"
FAMILY_NAME "Source Code Pro"
WEIGHT_NAME "Bold"
SLANT "R"
SETWIDTH_NAME "Normal"
ADD_STYLE_NAME ""
PIXEL_SIZE 36
POINT_SIZE 360
RESOLUTION_X 72
RESOLUTION_Y 72
SPACING "M"
AVERAGE_WIDTH 220
CHARSET_REGISTRY "ISO10646"
CHARSET_ENCODING "1"
FONTNAME_REGISTRY ""
CHARSET_COLLECTIONS "ASCII ISOLatin1Encoding ISO8859-2 ISO8859-5 ISO8859-7 ISO8859-9 ISO8859-4 ISO10646-1"
FONT_NAME "SourceCodePro-Bold"
FACE_NAME "Source Code Pro Bold"
COPYRIGHT "Copyright 2010, 2012 Adobe Systems Incorporated (http://www.adobe.com/), with Reserved Font Name `Source'."
FONT_VERSION "2.030;PS 1.000;hotconv 16.6.51;makeotf.lib2.5.65220"
FONT_ASCENT 27
FONT_DESCENT 9
UNDERLINE_POSITION -4
UNDERLINE_THICKNESS 2
X_HEIGHT 17
CAP_HEIGHT 23
RAW_ASCENT 750
RAW_DESCENT 250
NORM_SPACE 22
RELATIVE_WEIGHT 70
RELATIVE_SETWIDTH 50
SUPERSCRIPT_X 0
SUPERSCRIPT_Y 12
SUPERSCRIPT_SIZE 21
SUBSCRIPT_X 0
SUBSCRIPT_Y 2
SUBSCRIPT_SIZE 21
FIGURE_WIDTH 22
AVG_LOWERCASE_WIDTH 220
AVG_UPPERCASE_WIDTH 220
ENDPROPERTIES
CHARS 1564
STARTCHAR space
ENCODING 32
SWIDTH 600 0
DWIDTH 22 0
BBX 1 1 0 0
BITMAP
00
ENDCHAR
STARTCHAR exclam
ENCODING 33
SWIDTH 600 0
DWIDTH 22 0
BBX 7 24 7 0
BITMAP
7C
7C
7C
7C
7C
7C
7C
3C
3C
3C
3C
3C
3C
3C
3C
00
00
3C
7E
FE
FE
FE
7E
3C
ENDCHAR
STARTCHAR quotedbl
ENCODING 34
SWIDTH 600 0
DWIDTH 22 0
BBX 16 14 3 11
BITMAP
FC3F
FC3F
FC3F
FC3F
FC3F
FC3E
FC3E
FC3E
783E
783E
783E
781E
781C
781C
ENDCHAR
STARTCHAR numbersign
ENCODING 35
SWIDTH 600 0
DWIDTH 22 0
BBX 16 23 3 0
BITMAP
0E1C
0E1C
0E1C
0E1C
0E1C
FE38
FFFF
FFFF
FFFF
1C38
1C38
1C38
1C78
FFFF
FFFF
FFFF
F870
3870
3870
3870
38F0
38E0
78E0
ENDCHAR
STARTCHAR dollar
ENCODING 36
SWIDTH 600 0
DWIDTH 22 0
BBX 17 31 2 -4
BITMAP
01E000
01E000
01E000
01E000
01E000
07F800
1FFE00
3FFF00
3FFF00
7E0E00
7C0400
7E0000
7F0000
3FE000
1FF800
0FFE00
03FF00
00FF00
003F80
000F80
300F80
7C1F80
7FFF00
FFFE00
3FFC00
07F000
01E000
01E000
01E000
01E000
01E000
ENDCHAR
STARTCHAR percent
ENCODING 37
SWIDTH 600 0
DWIDTH 22 0
BBX 20 24 1 0
BITMAP
1F0000
3F8000
7FC040
F3C0E0
F1C1F0
F1E3E0
F1E3C0
F1C780
F3CF00
7FDE00
3F8400
1F0000
000F80
001FC0
023FE0
0779E0
0F78F0
1E78F0
3C78F0
7878F0
F079E0
703FE0
201FC0
000F80
ENDCHAR
STARTCHAR ampersand
ENCODING 38
SWIDTH 600 0
DWIDTH 22 0
BBX 20 24 1 0
BITMAP
07E000
0FF000
1FF800
1FF800
3E7800
3E7C00
3C7800
3E7800
3FF800
1FF000
1FE1F0
1FC1F0
3F81F0
7FC3E0
FFE3E0
F9FFC0
F9FFC0
F8FF80
F83F80
FC3FE0
7FFFF0
7FFFF0
3FF9E0
0FE060
ENDCHAR
STARTCHAR quotesingle
ENCODING 39
SWIDTH 600 0
DWIDTH 22 0
BBX 6 14 8 11
BITMAP
FC
FC
FC
FC
FC
FC
FC
F8
F8
78
78
78
78
78
ENDCHAR
STARTCHAR parenleft
ENCODING 40
SWIDTH 600 0
DWIDTH 22 0
BBX 10 33 7 -6
BITMAP
0100
0380
07C0
0F80
1F00
3E00
3E00
7C00
7C00
7800
F800
F000
F000
F000
F000
F000
F000
F000
F000
F000
F000
F000
F800
7800
7C00
7C00
3E00
3E00
1F00
0F80
07C0
0380
0100
ENDCHAR
STARTCHAR parenright
ENCODING 41
SWIDTH 600 0
DWIDTH 22 0
BBX 10 33 5 -6
BITMAP
2000
7000
F800
7C00
7C00
3E00
1F00
0F00
0F80
0F80
0780
07C0
07C0
07C0
03C0
03C0
03C0
03C0
03C0
07C0
07C0
07C0
0780
0F80
0F80
0F00
1F00
3E00
3C00
7C00
F800
7000
2000
ENDCHAR
STARTCHAR asterisk
ENCODING 42
SWIDTH 600 0
DWIDTH 22 0
BBX 17 18 2 3
BITMAP
01C000
01C000
01C000
01C000
01C000
61E180
7FFF80
FFFF80
3FFF00
0FFC00
03F000
07F000
07F800
0F7C00
1E3C00
1E1E00
3C0E00
080400
ENDCHAR
STARTCHAR plus
ENCODING 43
SWIDTH 600 0
DWIDTH 22 0
BBX 16 18 3 3
BITMAP
03C0
03C0
03C0
03C0
03C0
03C0
03C0
FFFF
FFFF
FFFF
FFFF
03C0
03C0
03C0
03C0
03C0
03C0
03C0
ENDCHAR
STARTCHAR comma
ENCODING 44
SWIDTH 600 0
DWIDTH 22 0
BBX 8 15 7 -7
BITMAP
3C
7E
FF
FF
FF
7F
3F
0F
0F
1F
1E
7E
FC
F0
60
ENDCHAR
STARTCHAR hyphen
ENCODING 45
SWIDTH 600 0
DWIDTH 22 0
BBX 16 4 3 10
BITMAP
FFFF
FFFF
FFFF
FFFF
ENDCHAR
STARTCHAR period
ENCODING 46
SWIDTH 600 0
DWIDTH 22 0
BBX 8 8 7 0
BITMAP
3C
FE
FF
FF
FF
FF
FE
3C
ENDCHAR
STARTCHAR slash
ENCODING 47
SWIDTH 600 0
DWIDTH 22 0
BBX 16 31 3 -5
BITMAP
001F
001E
001E
003E
003C
007C
0078
0078
00F8
00F0
01F0
01F0
01E0
03E0
03C0
03C0
07C0
0780
0F80
0F80
0F00
1F00
1E00
1E00
3E00
3C00
7C00
7800
7800
F800
F000
ENDCHAR
STARTCHAR zero
ENCODING 48
SWIDTH 600 0
DWIDTH 22 0
BBX 18 23 2 0
BITMAP
03F000
0FFC00
1FFE00
3FFF00
7E1F00
7C0F80
780F80
F80F80
F80780
F9E780
FBE7C0
FBF7C0
FBE7C0
F9C780
F80780
F80F80
780F80
7C0F80
7E1F00
3FFF00
1FFE00
0FFC00
03F000
ENDCHAR
STARTCHAR one
ENCODING 49
SWIDTH 600 0
DWIDTH 22 0
BBX 16 23 3 0
BITMAP
0FE0
7FE0
7FE0
7FE0
03E0
03E0
03E0
03E0
03E0
03E0
03E0
03E0
03E0
03E0
03E0
03E0
03E0
03E0
03E0
FFFF
FFFF
FFFF
FFFF
ENDCHAR
STARTCHAR two
ENCODING 50
SWIDTH 600 0
DWIDTH 22 0
BBX 17 23 2 0
BITMAP
07E000
3FF800
7FFC00
FFFE00
787F00
301F00
001F00
001F00
001F00
001F00
003E00
007E00
007C00
00F800
01F800
03F000
07E000
1FC000
3F8000
7FFF80
FFFF80
FFFF80
FFFF80
ENDCHAR
STARTCHAR three
ENCODING 51
SWIDTH 600 0
DWIDTH 22 0
BBX 17 23 2 0
BITMAP
0FF000
3FFC00
7FFE00
FFFF00
383F00
301F00
001F00
001F00
007F00
07FC00
07F800
07FC00
07FE00
007F00
001F80
000F80
000F80
601F80
783F80
FFFF00
FFFE00
7FFC00
0FF000
ENDCHAR
STARTCHAR four
ENCODING 52
SWIDTH 600 0
DWIDTH 22 0
BBX 19 23 1 0
BITMAP
007F00
007F00
00FF00
01FF00
01FF00
03DF00
07DF00
079F00
0F9F00
1F1F00
1F1F00
3E1F00
3C1F00
7C1F00
FFFFE0
FFFFE0
FFFFE0
FFFFE0
001F00
001F00
001F00
001F00
001F00
ENDCHAR
STARTCHAR five
ENCODING 53
SWIDTH 600 0
DWIDTH 22 0
BBX 17 23 2 0
BITMAP
3FFF00
3FFF00
3FFF00
3FFF00
3E0000
3E0000
3C0000
3C0000
3DF800
3FFE00
3FFF00
7FFF00
183F80
001F80
000F80
000F80
000F80
601F80
783F00
FFFF00
FFFE00
3FFC00
0FE000
ENDCHAR
STARTCHAR six
ENCODING 54
SWIDTH 600 0
DWIDTH 22 0
BBX 18 23 2 0
BITMAP
01FC00
07FF00
0FFF80
1FFF00
3F0700
7E0200
7C0000
7C0000
F80000
F8FC00
FBFE00
FFFF00
FFFF80
FE0F80
FC07C0
F807C0
7C07C0
7C0F80
3E1F80
3FFF80
1FFF00
0FFE00
03F800
ENDCHAR
STARTCHAR seven
ENCODING 55
SWIDTH 600 0
DWIDTH 22 0
BBX 17 23 2 0
BITMAP
FFFF80
FFFF80
FFFF80
FFFF80
001F00
001E00
003E00
007C00
007800
00F800
00F000
01F000
01F000
03E000
03E000
03E000
03E000
07E000
07E000
07C000
07C000
07C000
07C000
ENDCHAR
STARTCHAR eight
ENCODING 56
SWIDTH 600 0
DWIDTH 22 0
BBX 17 23 2 0
BITMAP
03F000
0FFC00
1FFE00
3FFF00
7E1F00
7C0F00
7C0F00
7C0F00
3E0F00
3F9E00
1FFC00
0FFC00
0FFE00
3CFF00
781F80
F80F80
F80780
F80F80
FC1F80
7FFF80
7FFF00
1FFE00
07F800
ENDCHAR
STARTCHAR nine
ENCODING 57
SWIDTH 600 0
DWIDTH 22 0
BBX 17 23 2 0
BITMAP
07E000
1FF800
3FFC00
7FFE00
7C3F00
F81F00
F80F80
F80F80
F80F80
F81F80
FC3F80
7FFF80
7FFF80
3FEF80
0F8F80
000F80
001F80
201F00
387F00
7FFE00
FFFC00
3FF800
0FE000
ENDCHAR
STARTCHAR colon
ENCODING 58
SWIDTH 600 0
DWIDTH 22 0
BBX 8 20 7 0
BITMAP
3C
FE
FF
FF
FF
FF
FE
3C
00
00
00
00
3C
FE
FF
FF
FF
FF
FE
3C
ENDCHAR
STARTCHAR semicolon
ENCODING 59
SWIDTH 600 0
DWIDTH 22 0
BBX 8 27 7 -7
BITMAP
3C
FE
FF
FF
FF
FF
FE
3C
00
00
00
00
3C
7E
FF
FF
FF
7F
3F
0F
0F
1F
1E
7E
FC
F0
60
ENDCHAR
STARTCHAR less
ENCODING 60
SWIDTH 600 0
DWIDTH 22 0
BBX 14 20 4 2
BITMAP
0004
001C
003C
00FC
03F8
07F0
1FC0
7F00
FE00
F800
F800
FE00
7F00
1FC0
0FF0
03F8
00FC
003C
001C
0004
ENDCHAR
STARTCHAR equal
ENCODING 61
SWIDTH 600 0
DWIDTH 22 0
BBX 16 12 3 6
BITMAP
FFFF
FFFF
FFFF
FFFF
0000
0000
0000
0000
FFFF
FFFF
FFFF
FFFF
ENDCHAR
STARTCHAR greater
ENCODING 62
SWIDTH 600 0
DWIDTH 22 0
BBX 13 20 4 2
BITMAP
8000
C000
F000
FC00
FE00
3F80
0FE0
07F8
01F8
00F8
00F8
01F8
07F8
0FE0
3F80
FE00
FC00
F000
C000
8000
ENDCHAR
STARTCHAR question
ENCODING 63
SWIDTH 600 0
DWIDTH 22 0
BBX 14 24 4 0
BITMAP
1FC0
7FF0
FFF8
FFF8
70FC
207C
007C
00FC
01F8
03F0
07E0
07C0
0F80
0F80
0F00
0000
0000
0F00
1F80
1FC0
1FC0
1FC0
1F80
0F00
ENDCHAR
STARTCHAR at
ENCODING 64
SWIDTH 600 0
DWIDTH 22 0
BBX 19 30 1 -6
BITMAP
00FC00
03FF00
0FFF80
1FFF80
1F87C0
3E01C0
3C01E0
7801E0
7800E0
781FE0
F07FE0
F0FFE0
F1FFE0
F1F1E0
F1E1E0
F1C1E0
F1E1E0
F1FFE0
F1FFE0
F0FEE0
7878E0
780000
7C0000
3C0000
3E0000
1F8380
0FFF80
07FFC0
03FF00
00FC00
ENDCHAR
STARTCHAR A
ENCODING 65
SWIDTH 600 0
DWIDTH 22 0
BBX 21 24 0 0
BITMAP
01FC00
01FC00
01FE00
01FE00
03FE00
03DF00
03DF00
07CF00
07CF80
078F80
0F8F80
0F8780
0F87C0
0F07C0
1FFFC0
1FFFE0
1FFFE0
3FFFE0
3E03F0
3E01F0
7E01F0
7C01F8
7C01F8
FC00F8
ENDCHAR
STARTCHAR B
ENCODING 66
SWIDTH 600 0
DWIDTH 22 0
BBX 17 24 3 0
BITMAP
FFF000
FFFC00
FFFE00
FFFF00
F83F00
F81F00
F81F00
F81F00
F81F00
F83E00
FFFC00
FFF000
FFFE00
FFFF00
F81F80
F80F80
F80F80
F80F80
F80F80
F83F80
FFFF00
FFFF00
FFFC00
FFF000
ENDCHAR
STARTCHAR C
ENCODING 67
SWIDTH 600 0
DWIDTH 22 0
BBX 19 24 2 0
BITMAP
00FC00
07FF80
0FFFC0
1FFF80
3F8700
7F0200
7E0000
7C0000
FC0000
FC0000
F80000
F80000
F80000
F80000
FC0000
FC0000
7C0000
7E0000
7F0100
3F8780
1FFFC0
0FFFE0
07FF80
01FC00
ENDCHAR
STARTCHAR D
ENCODING 68
SWIDTH 600 0
DWIDTH 22 0
BBX 17 24 3 0
BITMAP
FFC000
FFF000
FFFC00
FFFE00
F8FF00
F83F00
F81F00
F81F80
F80F80
F80F80
F80F80
F80F80
F80F80
F80F80
F80F80
F81F80
F81F80
F81F00
F83F00
F8FE00
FFFE00
FFFC00
FFF000
FFC000
ENDCHAR
STARTCHAR E
ENCODING 69
SWIDTH 600 0
DWIDTH 22 0
BBX 16 24 3 0
BITMAP
FFFF
FFFF
FFFF
FFFF
FC00
FC00
FC00
FC00
FC00
FC00
FFFC
FFFC
FFFC
FFFC
FC00
FC00
FC00
FC00
FC00
FC00
FFFF
FFFF
FFFF
FFFF
ENDCHAR
STARTCHAR F
ENCODING 70
SWIDTH 600 0
DWIDTH 22 0
BBX 15 24 4 0
BITMAP
FFFE
FFFE
FFFE
FFFE
F800
F800
F800
F800
F800
F800
F800
FFFC
FFFC
FFFC
FFFC
F800
F800
F800
F800
F800
F800
F800
F800
F800
ENDCHAR
STARTCHAR G
ENCODING 71
SWIDTH 600 0
DWIDTH 22 0
BBX 18 24 2 0
BITMAP
01FC00
07FF00
1FFF80
3FFF00
3F0700
7E0200
7C0000
FC0000
FC0000
F80000
F80000
F83FC0
F83FC0
F83FC0
F83FC0
F807C0
FC07C0
FC07C0
7E07C0
3F07C0
3FFFC0
1FFF80
07FF00
01FC00
ENDCHAR
STARTCHAR H
ENCODING 72
SWIDTH 600 0
DWIDTH 22 0
BBX 17 24 2 0
BITMAP
FC0F80
FC0F80
FC0F80
FC0F80
FC0F80
FC0F80
FC0F80
FC0F80
FC0F80
FC0F80
FFFF80
FFFF80
FFFF80
FFFF80
FC0F80
FC0F80
FC0F80
FC0F80
FC0F80
FC0F80
FC0F80
FC0F80
FC0F80
FC0F80
ENDCHAR
STARTCHAR I
ENCODING 73
SWIDTH 600 0
DWIDTH 22 0
BBX 16 24 3 0
BITMAP
FFFF
FFFF
FFFF
FFFF
07C0
07C0
07C0
07C0
07C0
07C0
07C0
07C0
07C0
07C0
07C0
07C0
07C0
07C0
07C0
07C0
FFFF
FFFF
FFFF
FFFF
ENDCHAR
STARTCHAR J
ENCODING 74
SWIDTH 600 0
DWIDTH 22 0
BBX 17 24 2 0
BITMAP
3FFF80
3FFF80
3FFF80
3FFF80
001F80
001F80
001F80
001F80
001F80
001F80
001F80
001F80
001F80
001F80
001F80
001F80
001F80
201F00
301F00
7C3F00
FFFE00
7FFE00
3FFC00
0FE000
ENDCHAR
STARTCHAR K
ENCODING 75
SWIDTH 600 0
DWIDTH 22 0
BBX 19 24 2 0
BITMAP
FC07E0
FC0FC0
FC1F80
FC3F00
FC3E00
FC7E00
FCFC00
FCF800
FDF000
FFF000
FFF000
FFF800
FFF800
FFFC00
FF7C00
FE7E00
FE3E00
FC3F00
FC1F00
FC1F80
FC0FC0
FC0FC0
FC07E0
FC07E0
ENDCHAR
STARTCHAR L
ENCODING 76
SWIDTH 600 0
DWIDTH 22 0
BBX 16 24 4 0
BITMAP
F800
F800
F800
F800
F800
F800
F800
F800
F800
F800
F800
F800
F800
F800
F800
F800
F800
F800
F800
F800
FFFF
FFFF
FFFF
FFFF
ENDCHAR
STARTCHAR M
ENCODING 77
SWIDTH 600 0
DWIDTH 22 0
BBX 18 24 2 0
BITMAP
FC0FC0
FC0FC0
FC1FC0
FE1FC0
FE1FC0
FE3FC0
FE3BC0
FF3BC0
F73FC0
F77FC0
F777C0
F7F7C0
F3F7C0
F3E7C0
F3E7C0
F1E7C0
F1C7C0
F1C7C0
F007C0
F007C0
F007C0
F007C0
F007C0
F007C0
ENDCHAR
STARTCHAR N
ENCODING 78
SWIDTH 600 0
DWIDTH 22 0
BBX 17 24 2 0
BITMAP
FC0F80
FC0F80
FE0F80
FE0F80
FF0F80
FF0F80
FF0F80
FF8F80
FF8F80
FBCF80
FBCF80
F9EF80
F9EF80
F9EF80
F8F780
F8F780
F87780
F87F80
F83F80
F83F80
F83F80
F81F80
F81F80
F80F80
ENDCHAR
STARTCHAR O
ENCODING 79
SWIDTH 600 0
DWIDTH 22 0
BBX 19 24 1 0
BITMAP
01F800
07FE00
1FFF00
1FFF80
3F1FC0
7E0FC0
7E07C0
7C07E0
7C03E0
FC03E0
FC03E0
FC03E0
FC03E0
FC03E0
7C03E0
7C07E0
7C07E0
7E07C0
3E0FC0
3F1FC0
1FFF80
1FFF00
07FE00
01F800
ENDCHAR
STARTCHAR P
ENCODING 80
SWIDTH 600 0
DWIDTH 22 0
BBX 17 24 3 0
BITMAP
FFF000
FFFC00
FFFE00
FFFF00
F83F80
F81F80
F80F80
F80F80
F80F80
F80F80
F81F80
F83F00
FFFF00
FFFE00
FFFC00
FFF000
F80000
F80000
F80000
F80000
F80000
F80000
F80000
F80000
ENDCHAR
STARTCHAR Q
ENCODING 81
SWIDTH 600 0
DWIDTH 22 0
BBX 20 30 1 -6
BITMAP
01F800
07FE00
0FFF00
1FFF80
3F1FC0
3E0FC0
7E07C0
7C07E0
7C03E0
7C03E0
FC03E0
FC03E0
FC03E0
FC03E0
7C03E0
7C07E0
7C07E0
7E07C0
7E0FC0
3F1FC0
1FFF80
1FFF00
0FFE00
03FC00
00F800
00FE00
007FE0
003FF0
001FF0
0007F0
ENDCHAR
STARTCHAR R
ENCODING 82
SWIDTH 600 0
DWIDTH 22 0
BBX 18 24 3 0
BITMAP
FFF000
FFFC00
FFFE00
FFFF00
F83F00
F81F80
F80F80
F80F80
F80F80
F81F80
F83F00
FFFF00
FFFE00
FFFC00
FFF800
F8F800
F8FC00
F87E00
F87E00
F83F00
F83F00
F81F80
F81F80
F80FC0
ENDCHAR
STARTCHAR S
ENCODING 83
SWIDTH 600 0
DWIDTH 22 0
BBX 18 24 2 0
BITMAP
03F800
0FFE00
1FFF80
3FFF00
7E0F00
7C0200
7C0000
7E0000
7F0000
7FC000
3FF800
1FFE00
0FFF00
03FF80
007F80
001FC0
000FC0
000FC0
300FC0
7C1F80
FFFF80
FFFF00
3FFE00
07F000
ENDCHAR
STARTCHAR T
ENCODING 84
SWIDTH 600 0
DWIDTH 22 0
BBX 19 24 1 0
BITMAP
FFFFE0
FFFFE0
FFFFE0
FFFFE0
01F000
01F000
01F000
01F000
01F000
01F000
01F000
01F000
01F000
01F000
01F000
01F000
01F000
01F000
01F000
01F000
01F000
01F000
01F000
01F000
ENDCHAR
STARTCHAR U
ENCODING 85
SWIDTH 600 0
DWIDTH 22 0
BBX 17 24 2 0
BITMAP
FC0F80
FC0F80
FC0F80
FC0F80
FC0F80
FC0F80
FC0F80
FC0F80
FC0F80
FC0F80
FC0F80
FC0F80
FC0F80
FC0F80
FC0F80
FC0F80
FC0F80
7C0F80
7C0F80
7E1F00
3FFF00
3FFE00
1FFC00
03F000
ENDCHAR
STARTCHAR V
ENCODING 86
SWIDTH 600 0
DWIDTH 22 0
BBX 20 24 1 0
BITMAP
F801F0
FC03F0
FC03E0
7C03E0
7C03E0
7E07C0
7E07C0
3E07C0
3E07C0
3F0F80
1F0F80
1F0F80
1F0F00
0F9F00
0F9F00
0F9F00
0F9E00
07BE00
07FE00
07FC00
03FC00
03FC00
03F800
03F800
ENDCHAR
STARTCHAR W
ENCODING 87
SWIDTH 600 0
DWIDTH 22 0
BBX 21 24 0 0
BITMAP
FC00F8
FC00F8
FC00F8
7C00F8
7C00F8
7C00F8
7C78F8
7C78F8
7C78F0
7C7CF0
3CFCF0
3CFCF0
3CFCF0
3CFCF0
3DDEF0
3DDEF0
3DCEE0
3DCEE0
1DCEE0
1FCFE0
1F8FE0
1F8FE0
1F87E0
1F87E0
ENDCHAR
STARTCHAR X
ENCODING 88
SWIDTH 600 0
DWIDTH 22 0
BBX 20 24 1 0
BITMAP
FC03F0
7E07E0
7E07C0
3F0FC0
1F0F80
1F9F80
0F9F00
0FDF00
07FE00
07FC00
03FC00
03F800
03F800
07FC00
07FE00
0FBE00
0FBF00
1F1F00
1F1F80
3F0F80
3E0FC0
7E07E0
FC07E0
FC03F0
ENDCHAR
STARTCHAR Y
ENCODING 89
SWIDTH 600 0
DWIDTH 22 0
BBX 20 24 1 0
BITMAP
F803F0
FC03E0
7C07E0
7E07C0
3E07C0
3F0F80
1F0F80
1F1F00
0F9F00
0F9F00
07BE00
07FE00
03FC00
03FC00
03F800
01F800
01F000
01F000
01F000
01F000
01F000
01F000
01F000
01F000
ENDCHAR
STARTCHAR Z
ENCODING 90
SWIDTH 600 0
DWIDTH 22 0
BBX 18 24 2 0
BITMAP
7FFFC0
7FFFC0
7FFFC0
7FFF80
001F00
003F00
007E00
007E00
00FC00
01F800
01F800
03F000
03E000
07E000
0FC000
0F8000
1F8000
3F0000
3F0000
7E0000
FFFFC0
FFFFC0
FFFFC0
FFFFC0
ENDCHAR
STARTCHAR bracketleft
ENCODING 91
SWIDTH 600 0
DWIDTH 22 0
BBX 11 32 7 -6
BITMAP
FFE0
FFE0
FFE0
F000
F000
F000
F000
F000
F000
F000
F000
F000
F000
F000
F000
F000
F000
F000
F000
F000
F000
F000
F000
F000
F000
F000
F000
F000
F000
FFE0
FFE0
FFE0
ENDCHAR
STARTCHAR backslash
ENCODING 92
SWIDTH 600 0
DWIDTH 22 0
BBX 16 31 3 -5
BITMAP
F000
F800
7800
7800
7C00
3C00
3E00
1E00
1E00
1F00
0F00
0F00
0F80
0780
07C0
03C0
03C0
03E0
01E0
01F0
01F0
00F0
00F8
0078
0078
007C
003C
003E
001E
001E
001F
ENDCHAR
STARTCHAR bracketright
ENCODING 93
SWIDTH 600 0
DWIDTH 22 0
BBX 10 32 4 -6
BITMAP
FFC0
FFC0
FFC0
03C0
03C0
03C0
03C0
03C0
03C0
03C0
03C0
03C0
03C0
03C0
03C0
03C0
03C0
03C0
03C0
03C0
03C0
03C0
03C0
03C0
03C0
03C0
03C0
03C0
03C0
FFC0
FFC0
FFC0
ENDCHAR
STARTCHAR asciicircum
ENCODING 94
SWIDTH 600 0
DWIDTH 22 0
BBX 16 14 3 10
BITMAP
07C0
07E0
07E0
0FE0
0FF0
1EF0
1EF8
1E78
3C78
3C7C
7C3C
783E
781E
F81F
ENDCHAR
STARTCHAR underscore
ENCODING 95
SWIDTH 600 0
DWIDTH 22 0
BBX 17 4 2 -6
BITMAP
FFFF80
FFFF80
FFFF80
FFFF80
ENDCHAR
STARTCHAR grave
ENCODING 96
SWIDTH 600 0
DWIDTH 22 0
BBX 10 9 4 20
BITMAP
0800
1800
7C00
FE00
3F00
1F80
0FC0
0780
0300
ENDCHAR
STARTCHAR a
ENCODING 97
SWIDTH 600 0
DWIDTH 22 0
BBX 17 18 2 0
BITMAP
07F800
3FFE00
7FFF00
3FFF00
383F80
201F80
000F80
01FF80
0FFF80
3FFF80
7FFF80
FE0F80
F80F80
FC1F80
FFFF80
7FFF80
3FE780
1F8780
ENDCHAR
STARTCHAR b
ENCODING 98
SWIDTH 600 0
DWIDTH 22 0
BBX 17 26 3 0
BITMAP
F80000
F80000
F80000
F80000
F80000
F80000
F80000
F80000
F9F000
FFFC00
FFFE00
FFFF00
FE3F00
F81F80
F81F80
F81F80
F81F80
F81F80
F81F80
F81F80
F81F00
FE3F00
FFFE00
FFFE00
F7FC00
F1F000
ENDCHAR
STARTCHAR c
ENCODING 99
SWIDTH 600 0
DWIDTH 22 0
BBX 18 18 2 0
BITMAP
01FC00
07FF00
1FFF80
3FFF00
3F8700
7E0000
7C0000
FC0000
FC0000
FC0000
FC0000
7C0000
7E0100
7F8700
3FFF80
1FFFC0
0FFF00
01FC00
ENDCHAR
STARTCHAR d
ENCODING 100
SWIDTH 600 0
DWIDTH 22 0
BBX 17 26 2 0
BITMAP
000F80
000F80
000F80
000F80
000F80
000F80
000F80
000F80
07CF80
1FEF80
3FFF80
7FFF80
7E3F80
FC1F80
F80F80
F80F80
F80F80
F80F80
F80F80
F80F80
FC1F80
FE3F80
7FFF80
3FFF80
1FEF80
07C780
ENDCHAR
STARTCHAR e
ENCODING 101
SWIDTH 600 0
DWIDTH 22 0
BBX 18 18 2 0
BITMAP
03F000
0FFC00
1FFF00
3FFF00
7E0F80
7C0F80
F80780
FFFFC0
FFFFC0
FFFFC0
FFFFC0
F80000
7C0000
7F0700
3FFF00
1FFF80
0FFF00
03F800
ENDCHAR
STARTCHAR f
ENCODING 102
SWIDTH 600 0
DWIDTH 22 0
BBX 18 26 3 0
BITMAP
007F80
01FFC0
03FFC0
03FF80
07E080
07C000
07C000
07C000
FFFF00
FFFF00
FFFF00
FFFF00
07C000
07C000
07C000
07C000
07C000
07C000
07C000
07C000
07C000
07C000
07C000
07C000
07C000
07C000
ENDCHAR
STARTCHAR g
ENCODING 103
SWIDTH 600 0
DWIDTH 22 0
BBX 19 25 2 -7
BITMAP
07FFC0
1FFFC0
3FFFC0
7FFFC0
7C3FC0
7C1E00
7C1F00
7C3F00
7FFE00
3FFE00
1FFC00
3FF000
780000
780000
7FFE00
7FFF80
3FFFC0
3FFFC0
7807E0
F007C0
F80FC0
FFFFC0
FFFF80
7FFE00
0FF000
ENDCHAR
STARTCHAR h
ENCODING 104
SWIDTH 600 0
DWIDTH 22 0
BBX 16 26 3 0
BITMAP
F800
F800
F800
F800
F800
F800
F800
F800
F8F8
FBFE
FFFE
FFFF
FE3F
FC1F
F81F
F81F
F81F
F81F
F81F
F81F
F81F
F81F
F81F
F81F
F81F
F81F
ENDCHAR
STARTCHAR i
ENCODING 105
SWIDTH 600 0
DWIDTH 22 0
BBX 13 27 3 0
BITMAP
00E0
03F0
03F8
03F8
03F8
03F0
01E0
0000
0000
FFF0
FFF0
FFF0
FFF0
01F0
01F0
01F0
01F0
01F0
01F0
01F0
01F0
01F0
01F0
01F0
01F0
01F0
01F0
ENDCHAR
STARTCHAR j
ENCODING 106
SWIDTH 600 0
DWIDTH 22 0
BBX 14 34 2 -7
BITMAP
0070
01F8
01FC
01FC
01FC
01F8
00F0
0000
0000
7FF8
7FF8
7FF8
7FF8
00F8
00F8
00F8
00F8
00F8
00F8
00F8
00F8
00F8
00F8
00F8
00F8
00F8
00F8
00F8
00F8
41F8
FFF0
FFF0
FFE0
7F80
ENDCHAR
STARTCHAR k
ENCODING 107
SWIDTH 600 0
DWIDTH 22 0
BBX 18 26 3 0
BITMAP
F80000
F80000
F80000
F80000
F80000
F80000
F80000
F80000
F81FC0
F83F00
F87E00
F8FC00
F8F800
F9F000
FBE000
FFE000
FFF000
FFF000
FFF800
FEFC00
FC7C00
F83E00
F83F00
F81F00
F81F80
F80FC0
ENDCHAR
STARTCHAR l
ENCODING 108
SWIDTH 600 0
DWIDTH 22 0
BBX 18 26 2 0
BITMAP
FFE000
FFE000
FFE000
FFE000
07E000
07E000
07E000
07E000
07E000
07E000
07E000
07E000
07E000
07E000
07E000
07E000
07E000
07E000
07E000
07E000
03E000
03F100
03FF80
01FF80
00FF80
007F40
ENDCHAR
STARTCHAR m
ENCODING 109
SWIDTH 600 0
DWIDTH 22 0
BBX 20 18 1 0
BITMAP
F1C3C0
F7E7E0
FFFFE0
FFFFE0
FCFBF0
FCF1F0
F8F1F0
F8F1F0
F8F1F0
F8F1F0
F8F1F0
F8F1F0
F8F1F0
F8F1F0
F8F1F0
F8F1F0
F8F1F0
F8F1F0
ENDCHAR
STARTCHAR n
ENCODING 110
SWIDTH 600 0
DWIDTH 22 0
BBX 16 18 3 0
BITMAP
F0F8
F3FE
F7FE
FFFF
FE3F
FC1F
F81F
F81F
F81F
F81F
F81F
F81F
F81F
F81F
F81F
F81F
F81F
F81F
ENDCHAR
STARTCHAR o
ENCODING 111
SWIDTH 600 0
DWIDTH 22 0
BBX 18 18 2 0
BITMAP
03F000
0FFC00
3FFE00
7FFF00
7E1F80
FC0F80
F80FC0
F80FC0
F80FC0
F80FC0
F80FC0
F80FC0
FC0F80
7E1F80
7FFF00
3FFE00
0FFC00
03F000
ENDCHAR
STARTCHAR p
ENCODING 112
SWIDTH 600 0
DWIDTH 22 0
BBX 17 25 3 -7
BITMAP
F1F000
F7FC00
FFFE00
FFFF00
FE3F00
F81F80
F81F80
F81F80
F81F80
F81F80
F81F80
F81F80
F81F00
FC3F00
FFFE00
FFFE00
FFFC00
F9F000
F80000
F80000
F80000
F80000
F80000
F80000
F80000
ENDCHAR
STARTCHAR q
ENCODING 113
SWIDTH 600 0
DWIDTH 22 0
BBX 17 25 2 -7
BITMAP
07C780
1FF780
3FFF80
7FFF80
7E3F80
FC1F80
F80F80
F80F80
F80F80
F80F80
F80F80
F80F80
FC1F80
FE3F80
7FFF80
3FFF80
1FEF80
07CF80
000F80
000F80
000F80
000F80
000F80
000F80
000F80
ENDCHAR
STARTCHAR r
ENCODING 114
SWIDTH 600 0
DWIDTH 22 0
BBX 16 18 4 0
BITMAP
F87E
F9FF
FBFE
FFFE
FF82
FE00
FC00
FC00
F800
F800
F800
F800
F800
F800
F800
F800
F800
F800
ENDCHAR
STARTCHAR s
ENCODING 115
SWIDTH 600 0
DWIDTH 22 0
BBX 17 18 2 0
BITMAP
07F800
1FFE00
3FFF80
7FFF00
7E0E00
7C0200
7F0000
3FF800
3FFE00
0FFF00
01FF80
001F80
200F80
7C0F80
FFFF80
FFFF00
3FFE00
07F800
ENDCHAR
STARTCHAR t
ENCODING 116
SWIDTH 600 0
DWIDTH 22 0
BBX 18 23 2 0
BITMAP
07C000
07C000
07C000
07C000
07C000
FFFF80
FFFF80
FFFF80
FFFF80
0FC000
0FC000
0FC000
0FC000
0FC000
0FC000
0FC000
0FC000
0FC000
07E080
07FF80
03FF80
01FFC0
00FF00
ENDCHAR
STARTCHAR u
ENCODING 117
SWIDTH 600 0
DWIDTH 22 0
BBX 17 18 2 0
BITMAP
FC0F80
FC0F80
FC0F80
FC0F80
FC0F80
FC0F80
FC0F80
FC0F80
FC0F80
FC0F80
FC0F80
FC1F80
FC1F80
FC3F80
7FFF80
7FFF80
3FCF80
1F8780
ENDCHAR
STARTCHAR v
ENCODING 118
SWIDTH 600 0
DWIDTH 22 0
BBX 19 18 1 0
BITMAP
FC03E0
7C03E0
7C03E0
7E07C0
3E07C0
3E0780
1F0F80
1F0F80
1F0F00
0F9F00
0F9F00
0F9E00
07BE00
07FE00
03FC00
03FC00
03F800
01F800
ENDCHAR
STARTCHAR w
ENCODING 119
SWIDTH 600 0
DWIDTH 22 0
BBX 21 18 0 0
BITMAP
F800F8
F800F8
7C78F8
7C78F8
7C78F8
7CF8F8
7CFCF0
7CFCF0
3CFCF0
3EDDF0
3FDDF0
3FDFF0
3FCFF0
3FCFE0
3FCFE0
1FCFE0
1F8FE0
1F8FE0
ENDCHAR
STARTCHAR x
ENCODING 120
SWIDTH 600 0
DWIDTH 22 0
BBX 19 18 1 0
BITMAP
7E07E0
3E0FC0
3F0F80
1F9F80
0F9F00
0FFE00
07FE00
03FC00
03FC00
03F800
07FC00
07FE00
0FBE00
1F3F00
1F1F80
3E0F80
7E0FC0
FC07E0
ENDCHAR
STARTCHAR y
ENCODING 121
SWIDTH 600 0
DWIDTH 22 0
BBX 20 25 1 -7
BITMAP
FC03F0
7C03E0
7C03E0
3E07C0
3E07C0
1F0780
1F0F80
0F0F80
0F8F00
0F9F00
079F00
07DE00
03FE00
03FC00
01FC00
01FC00
00F800
00F800
01F000
01F000
03E000
3FE000
3FC000
3F8000
7E0000
ENDCHAR
STARTCHAR z
ENCODING 122
SWIDTH 600 0
DWIDTH 22 0
BBX 16 18 3 0
BITMAP
7FFF
7FFF
7FFF
7FFF
00FE
00FC
01F8
03F0
07E0
0FE0
1FC0
1F80
3F00
7E00
FFFF
FFFF
FFFF
FFFF
ENDCHAR
STARTCHAR braceleft
ENCODING 123
SWIDTH 600 0
DWIDTH 22 0
BBX 14 32 4 -6
BITMAP
01FC
03FC
07FC
0780
0F80
0F80
0F80
0F80
0780
0780
0780
0780
0F80
1F80
FF00
FE00
FE00
FF00
1F80
0F80
0780
0780
0780
0780
0F80
0F80
0F80
0F80
0780
07FC
03FC
01FC
ENDCHAR
STARTCHAR bar
ENCODING 124
SWIDTH 600 0
DWIDTH 22 0
BBX 5 36 8 -9
BITMAP
F8
F8
F8
F8
F8
F8
F8
F8
F8
F8
F8
F8
F8
F8
F8
F8
F8
F8
F8
F8
F8
F8
F8
F8
F8
F8
F8
F8
F8
F8
F8
F8
F8
F8
F8
F8
ENDCHAR
STARTCHAR braceright
ENCODING 125
SWIDTH 600 0
DWIDTH 22 0
BBX 14 32 4 -6
BITMAP
FC00
FF00
FF80
0F80
0780
0780
0780
0780
0780
0780
0780
0780
0780
07E0
07FC
01FC
01FC
07FC
07E0
0780
0780
0780
0780
0780
0780
0780
0780
0780
0F80
FF80
FF00
FC00
ENDCHAR
STARTCHAR asciitilde
ENCODING 126
SWIDTH 600 0
DWIDTH 22 0
BBX 18 6 2 9
BITMAP
0F0300
3FC7C0
7FFF80
7FFF00
F1FF00
607C00
ENDCHAR
STARTCHAR uni00A0
ENCODING 160
SWIDTH 600 0
DWIDTH 22 0
BBX 1 1 0 0
BITMAP
00
ENDCHAR
STARTCHAR exclamdown
ENCODING 161
SWIDTH 600 0
DWIDTH 22 0
BBX 7 25 7 -7
BITMAP
3C
7E
FE
FE
FE
7E
3C
00
00
3C
3C
3C
3C
3C
3C
3C
3C
3C
7C
7C
7C
7C
7C
7C
7C
ENDCHAR
STARTCHAR cent
ENCODING 162
SWIDTH 600 0
DWIDTH 22 0
BBX 16 24 3 -1
BITMAP
00E0
00E0
00E0
03F8
0FFE
1FFF
3FFC
7EEC
7CE0
7CE0
7CE0
FCE0
FCE0
7CE0
7CE0
7EE0
7EE4
3FFE
1FFF
0FFE
03F8
00E0
00E0
00E0
ENDCHAR
STARTCHAR sterling
ENCODING 163
SWIDTH 600 0
DWIDTH 22 0
BBX 18 23 2 0
BITMAP
00FC00
03FF00
07FFC0
0FFF80
1F8300
1F0200
1F0000
1F0000
1F0000
1F0000
7FFC00
7FFC00
7FFC00
7FFC00
078000
078000
0F8000
0F8000
1F0000
3FFFC0
FFFFC0
FFFFC0
FFFFC0
ENDCHAR
STARTCHAR currency
ENCODING 164
SWIDTH 600 0
DWIDTH 22 0
BBX 19 18 1 3
BITMAP
3000C0
7801E0
FDFBE0
7FFFC0
3FFF80
1FFF80
3F0F80
3E0780
3E07C0
3E07C0
3E0780
3F0F80
1FFF80
1FFF80
3FFFC0
7DFBE0
F801E0
3000C0
ENDCHAR
STARTCHAR yen
ENCODING 165
SWIDTH 600 0
DWIDTH 22 0
BBX 19 23 1 0
BITMAP
FC03E0
7C07E0
7E07C0
3E07C0
1F0F80
1F0F00
0F1F00
0F9E00
07BE00
07FC00
03FC00
7FFFE0
7FFFE0
7FFFE0
01F000
01F000
7FFFE0
7FFFE0
7FFFE0
01F000
01F000
01F000
01F000
ENDCHAR
STARTCHAR brokenbar
ENCODING 166
SWIDTH 600 0
DWIDTH 22 0
BBX 5 36 8 -9
BITMAP
F8
F8
F8
F8
F8
F8
F8
F8
F8
F8
F8
F8
F8
F8
F8
F8
00
00
00
00
F8
F8
F8
F8
F8
F8
F8
F8
F8
F8
F8
F8
F8
F8
F8
F8
ENDCHAR
STARTCHAR section
ENCODING 167
SWIDTH 600 0
DWIDTH 22 0
BBX 16 28 3 -3
BITMAP
07E0
1FF8
3FFC
3FFC
3E38
7C10
3E00
3F80
3FE0
7FF8
FFFC
F1FE
F07F
F01F
F81F
FC0F
7F9F
7FFE
1FFC
07F8
01FC
007C
207C
787C
FFF8
FFF8
3FF0
0FC0
ENDCHAR
STARTCHAR dieresis
ENCODING 168
SWIDTH 600 0
DWIDTH 22 0
BBX 14 6 4 20
BITMAP
7070
F8F8
FCFC
FCFC
F8F8
7070
ENDCHAR
STARTCHAR copyright
ENCODING 169
SWIDTH 600 0
DWIDTH 22 0
BBX 20 23 1 0
BITMAP
01F800
07FE00
1E0700
380380
3001C0
71F8E0
63FC60
E7FC60
C7F870
CF9070
CF0030
CF0030
CF0030
CF0870
C7F870
E7FC60
63FC60
71F8E0
3001C0
380380
1E0700
07FE00
01F800
ENDCHAR
STARTCHAR ordfeminine
ENCODING 170
SWIDTH 600 0
DWIDTH 22 0
BBX 12 13 5 13
BITMAP
0F80
3FC0
7FE0
7FE0
20E0
0FF0
3FF0
78F0
F0F0
F1F0
FFF0
7FF0
3CF0
ENDCHAR
STARTCHAR guillemotleft
ENCODING 171
SWIDTH 600 0
DWIDTH 22 0
BBX 17 16 2 1
BITMAP
040100
0E0380
1F0F80
3E1F00
7C3F00
F87E00
F87C00
F07800
F07800
F87C00
F87E00
7C3F00
3E1F00
1F0F80
0E0380
040100
ENDCHAR
STARTCHAR logicalnot
ENCODING 172
SWIDTH 600 0
DWIDTH 22 0
BBX 16 11 3 3
BITMAP
FFFF
FFFF
FFFF
FFFF
000F
000F
000F
000F
000F
000F
000F
ENDCHAR
STARTCHAR uni00AD
ENCODING 173
SWIDTH 600 0
DWIDTH 22 0
BBX 16 4 3 10
BITMAP
FFFF
FFFF
FFFF
FFFF
ENDCHAR
STARTCHAR registered
ENCODING 174
SWIDTH 600 0
DWIDTH 22 0
BBX 14 15 4 11
BITMAP
0F80
3FE0
7870
6038
CF98
CFCC
CCCC
CCCC
CF8C
CD8C
CCD8
6038
7070
3FE0
0F80
ENDCHAR
STARTCHAR macron
ENCODING 175
SWIDTH 600 0
DWIDTH 22 0
BBX 11 3 5 21
BITMAP
FFE0
FFE0
FFE0
ENDCHAR
STARTCHAR degree
ENCODING 176
SWIDTH 600 0
DWIDTH 22 0
BBX 10 11 6 14
BITMAP
1E00
7F00
FF80
E3C0
E1C0
C1C0
E1C0
E3C0
FF80
7F00
1E00
ENDCHAR
STARTCHAR plusminus
ENCODING 177
SWIDTH 600 0
DWIDTH 22 0
BBX 16 20 3 0
BITMAP
03C0
03C0
03C0
03C0
03C0
03C0
FFFF
FFFF
FFFF
FFFF
03C0
03C0
03C0
03C0
0000
0000
FFFF
FFFF
FFFF
FFFF
ENDCHAR
STARTCHAR two.sups
ENCODING 178
SWIDTH 600 0
DWIDTH 22 0
BBX 11 15 5 13
BITMAP
1F00
7FC0
FFC0
FFE0
63E0
41E0
01E0
03C0
0780
0F00
1E00
7FE0
FFE0
FFE0
7FE0
ENDCHAR
STARTCHAR three.sups
ENCODING 179
SWIDTH 600 0
DWIDTH 22 0
BBX 12 16 5 13
BITMAP
1F00
3FC0
7FC0
FFE0
21E0
01E0
01E0
03C0
0F80
0FC0
41E0
E1E0
FFF0
FFE0
7FC0
1F80
ENDCHAR
STARTCHAR acute
ENCODING 180
SWIDTH 600 0
DWIDTH 22 0
BBX 9 9 8 20
BITMAP
0400
0E00
1F00
3F80
3F00
7E00
FC00
7000
2000
ENDCHAR
STARTCHAR uni00B5
ENCODING 181
SWIDTH 600 0
DWIDTH 22 0
BBX 19 25 2 -7
BITMAP
FC0F80
FC0F80
FC0F80
FC0F80
FC0F80
FC0F80
FC0F80
FC0F80
FC0F80
FC0F80
FC0F80
FC1F80
FC1F80
FC3F80
FFFFC0
FFFFE0
FFE7E0
FBC3E0
F80000
F80000
F80000
F80000
F80000
FC0000
FC0000
ENDCHAR
STARTCHAR paragraph
ENCODING 182
SWIDTH 600 0
DWIDTH 22 0
BBX 17 26 2 -3
BITMAP
07CF80
1FCF80
7FCF80
7FCF80
FFCF80
FFCF80
FFCF80
FFCF80
FFCF80
FFCF80
FFCF80
FFCF80
7FCF80
3FCF80
1FCF80
0FCF80
000F80
000F80
000F80
000F80
000F80
000F80
000F80
000F80
000F80
000F80
ENDCHAR
STARTCHAR periodcentered
ENCODING 183
SWIDTH 600 0
DWIDTH 22 0
BBX 8 8 7 9
BITMAP
3C
FE
FF
FF
FF
FF
FE
3C
ENDCHAR
STARTCHAR cedilla
ENCODING 184
SWIDTH 600 0
DWIDTH 22 0
BBX 7 9 7 -9
BITMAP
3C
38
78
7C
1E
1E
1E
FC
F0
ENDCHAR
STARTCHAR one.sups
ENCODING 185
SWIDTH 600 0
DWIDTH 22 0
BBX 12 14 6 13
BITMAP
0F00
7F00
FF00
FF00
0F00
0F00
0F00
0F00
0F00
0F00
FFF0
FFF0
FFF0
FFF0
ENDCHAR
STARTCHAR ordmasculine
ENCODING 186
SWIDTH 600 0
DWIDTH 22 0
BBX 12 14 5 12
BITMAP
1F00
3FC0
7FC0
7FE0
F1E0
F0F0
F0F0
F0F0
F0F0
F1E0
FFE0
7FE0
3FC0
1F00
ENDCHAR
STARTCHAR guillemotright
ENCODING 187
SWIDTH 600 0
DWIDTH 22 0
BBX 18 16 2 1
BITMAP
201000
703C00
F83E00
7C1F00
3E0F80
1F8FC0
0F87C0
0F83C0
0F83C0
0F87C0
1F8FC0
3F0F80
7C1F00
783E00
F03C00
201800
ENDCHAR
STARTCHAR onequarter
ENCODING 188
SWIDTH 600 0
DWIDTH 22 0
BBX 20 23 1 0
BITMAP
0F0000
7F0040
7F00E0
7F01F0
0F03E0
0F03C0
0F0780
0F0F00
0F1E00
0F0400
0F0000
000400
000F00
020E00
071E00
0F1C00
1E1DE0
3C39E0
7839E0
F07FF0
707FF0
2001E0
0001E0
ENDCHAR
STARTCHAR onehalf
ENCODING 189
SWIDTH 600 0
DWIDTH 22 0
BBX 20 23 1 0
BITMAP
0F0000
7F0040
7F00E0
7F01F0
0F03E0
0F03C0
0F0780
0F0F00
0F1E00
0F0400
0F0000
000780
001FE0
023FE0
073FE0
0F19E0
1E01E0
3C01C0
780780
F00FF0
703FF0
203FF0
003FF0
ENDCHAR
STARTCHAR threequarters
ENCODING 190
SWIDTH 600 0
DWIDTH 22 0
BBX 20 24 1 0
BITMAP
3E0000
FF0000
7F8040
4780E0
0781F0
1F01E0
1F83C0
078780
47CF00
FF8E00
FF8400
3E0000
000400
000F00
020E00
071E00
0F1C00
1E1DE0
3C39E0
7839E0
F87FF0
707FF0
2001E0
0001E0
ENDCHAR
STARTCHAR questiondown
ENCODING 191
SWIDTH 600 0
DWIDTH 22 0
BBX 14 25 4 -7
BITMAP
0780
0FC0
0FE0
0FE0
0FE0
0FC0
0780
0000
0000
07C0
07C0
07C0
0F80
1F80
3F00
7E00
FC00
F800
F800
F820
FC70
FFFC
7FFC
3FF0
0FC0
ENDCHAR
STARTCHAR Agrave
ENCODING 192
SWIDTH 600 0
DWIDTH 22 0
BBX 21 32 0 0
BITMAP
008000
01C000
03E000
03F000
01FC00
00FC00
003800
001800
01FC00
01FC00
01FE00
01FE00
03FE00
03DF00
03DF00
07CF00
07CF80
078F80
0F8F80
0F8780
0F87C0
0F07C0
1FFFC0
1FFFE0
1FFFE0
3FFFE0
3E03F0
3E01F0
7E01F0
7C01F8
7C01F8
FC00F8
ENDCHAR
STARTCHAR Aacute
ENCODING 193
SWIDTH 600 0
DWIDTH 22 0
BBX 21 32 0 0
BITMAP
000400
001C00
003E00
007F00
00FE00
01F800
00F000
004000
01FC00
01FC00
01FE00
01FE00
03FE00
03DF00
03DF00
07CF00
07CF80
078F80
0F8F80
0F8780
0F87C0
0F07C0
1FFFC0
1FFFE0
1FFFE0
3FFFE0
3E03F0
3E01F0
7E01F0
7C01F8
7C01F8
FC00F8
ENDCHAR
STARTCHAR Acircumflex
ENCODING 194
SWIDTH 600 0
DWIDTH 22 0
BBX 21 30 0 0
BITMAP
01FC00
01FE00
03DF00
078780
030300
000000
01FC00
01FC00
01FE00
01FE00
03FE00
03DF00
03DF00
07CF00
07CF80
078F80
0F8F80
0F8780
0F87C0
0F07C0
1FFFC0
1FFFE0
1FFFE0
3FFFE0
3E03F0
3E01F0
7E01F0
7C01F8
7C01F8
FC00F8
ENDCHAR
STARTCHAR Atilde
ENCODING 195
SWIDTH 600 0
DWIDTH 22 0
BBX 21 31 0 0
BITMAP
03C380
07F3C0
0FFFC0
0FFF80
0E3F80
061E00
000000
01FC00
01FC00
01FE00
01FE00
03FE00
03DF00
03DF00
07CF00
07CF80
078F80
0F8F80
0F8780
0F87C0
0F07C0
1FFFC0
1FFFE0
1FFFE0
3FFFE0
3E03F0
3E01F0
7E01F0
7C01F8
7C01F8
FC00F8
ENDCHAR
STARTCHAR Adieresis
ENCODING 196
SWIDTH 600 0
DWIDTH 22 0
BBX 21 30 0 0
BITMAP
070700
0F8F80
0F8F80
0F8F80
070700
000000
01FC00
01FC00
01FE00
01FE00
03FE00
03DF00
03DF00
07CF00
07CF80
078F80
0F8F80
0F8780
0F87C0
0F07C0
1FFFC0
1FFFE0
1FFFE0
3FFFE0
3E03F0
3E01F0
7E01F0
7C01F8
7C01F8
FC00F8
ENDCHAR
STARTCHAR Aring
ENCODING 197
SWIDTH 600 0
DWIDTH 22 0
BBX 21 32 0 0
BITMAP
007800
01FC00
01CE00
018E00
01CE00
01FC00
00F800
000000
01FC00
01FC00
01FE00
01FE00
03FE00
03DF00
03DF00
07CF00
07CF80
078F80
0F8F80
0F8780
0F87C0
0F07C0
1FFFC0
1FFFE0
1FFFE0
3FFFE0
3E03F0
3E01F0
7E01F0
7C01F8
7C01F8
FC00F8
ENDCHAR
STARTCHAR AE
ENCODING 198
SWIDTH 600 0
DWIDTH 22 0
BBX 21 24 0 0
BITMAP
00FFF8
01FFF8
01FFF8
01FFF8
03FF00
03FF00
03DF00
07DF00
07DF00
07DF00
0F9FF0
0F9FF0
0F9FF0
1F1FF0
1FFF00
1FFF00
3FFF00
3FFF00
3E1F00
7E1F00
7C1FF8
7C1FF8
FC1FF8
F81FF8
ENDCHAR
STARTCHAR Ccedilla
ENCODING 199
SWIDTH 600 0
DWIDTH 22 0
BBX 19 33 2 -9
BITMAP
00FC00
07FF80
0FFFC0
1FFF80
3F8700
7F0200
7E0000
7C0000
FC0000
FC0000
F80000
F80000
F80000
F80000
FC0000
FC0000
7C0000
7E0000
7F0100
3F8780
1FFFC0
0FFFE0
07FF80
01FC00
007000
00F000
00E000
01F800
007C00
003C00
007C00
03F800
01E000
ENDCHAR
STARTCHAR Egrave
ENCODING 200
SWIDTH 600 0
DWIDTH 22 0
BBX 16 32 3 0
BITMAP
0200
0700
0F80
1FC0
07E0
03F0
00E0
0040
FFFF
FFFF
FFFF
FFFF
FC00
FC00
FC00
FC00
FC00
FC00
FFFC
FFFC
FFFC
FFFC
FC00
FC00
FC00
FC00
FC00
FC00
FFFF
FFFF
FFFF
FFFF
ENDCHAR
STARTCHAR Eacute
ENCODING 201
SWIDTH 600 0
DWIDTH 22 0
BBX 16 32 3 0
BITMAP
0010
0070
00F8
01FC
03F8
07E0
03C0
0100
FFFF
FFFF
FFFF
FFFF
FC00
FC00
FC00
FC00
FC00
FC00
FFFC
FFFC
FFFC
FFFC
FC00
FC00
FC00
FC00
FC00
FC00
FFFF
FFFF
FFFF
FFFF
ENDCHAR
STARTCHAR Ecircumflex
ENCODING 202
SWIDTH 600 0
DWIDTH 22 0
BBX 16 30 3 0
BITMAP
07F0
0FF8
0F7C
1E3E
0C08
0000
FFFF
FFFF
FFFF
FFFF
FC00
FC00
FC00
FC00
FC00
FC00
FFFC
FFFC
FFFC
FFFC
FC00
FC00
FC00
FC00
FC00
FC00
FFFF
FFFF
FFFF
FFFF
ENDCHAR
STARTCHAR Edieresis
ENCODING 203
SWIDTH 600 0
DWIDTH 22 0
BBX 16 30 3 0
BITMAP
1C1C
3E3E
3E3E
3E3E
1C1C
0000
FFFF
FFFF
FFFF
FFFF
FC00
FC00
FC00
FC00
FC00
FC00
FFFC
FFFC
FFFC
FFFC
FC00
FC00
FC00
FC00
FC00
FC00
FFFF
FFFF
FFFF
FFFF
ENDCHAR
STARTCHAR Igrave
ENCODING 204
SWIDTH 600 0
DWIDTH 22 0
BBX 16 32 3 0
BITMAP
0400
0E00
1F00
1F80
0FE0
07E0
01C0
00C0
FFFF
FFFF
FFFF
FFFF
07C0
07C0
07C0
07C0
07C0
07C0
07C0
07C0
07C0
07C0
07C0
07C0
07C0
07C0
07C0
07C0
FFFF
FFFF
FFFF
FFFF
ENDCHAR
STARTCHAR Iacute
ENCODING 205
SWIDTH 600 0
DWIDTH 22 0
BBX 16 32 3 0
BITMAP
0020
00E0
01F0
03F8
07F0
0FC0
0780
0200
FFFF
FFFF
FFFF
FFFF
07C0
07C0
07C0
07C0
07C0
07C0
07C0
07C0
07C0
07C0
07C0
07C0
07C0
07C0
07C0
07C0
FFFF
FFFF
FFFF
FFFF
ENDCHAR
STARTCHAR Icircumflex
ENCODING 206
SWIDTH 600 0
DWIDTH 22 0
BBX 16 30 3 0
BITMAP
0FE0
0FF0
1EF8
3C3C
1818
0000
FFFF
FFFF
FFFF
FFFF
07C0
07C0
07C0
07C0
07C0
07C0
07C0
07C0
07C0
07C0
07C0
07C0
07C0
07C0
07C0
07C0
FFFF
FFFF
FFFF
FFFF
ENDCHAR
STARTCHAR Idieresis
ENCODING 207
SWIDTH 600 0
DWIDTH 22 0
BBX 16 30 3 0
BITMAP
3838
7C7C
7C7C
7C7C
3838
0000
FFFF
FFFF
FFFF
FFFF
07C0
07C0
07C0
07C0
07C0
07C0
07C0
07C0
07C0
07C0
07C0
07C0
07C0
07C0
07C0
07C0
FFFF
FFFF
FFFF
FFFF
ENDCHAR
STARTCHAR Eth
ENCODING 208
SWIDTH 600 0
DWIDTH 22 0
BBX 20 24 0 0
BITMAP
1FF800
1FFE00
1FFF80
1FFFC0
1F1FE0
1F07E0
1F03E0
1F03F0
1F01F0
1F01F0
FFF1F0
FFF1F0
FFF1F0
1F01F0
1F01F0
1F03F0
1F03F0
1F03E0
1F07E0
1F1FC0
1FFFC0
1FFF80
1FFE00
1FF800
ENDCHAR
STARTCHAR Ntilde
ENCODING 209
SWIDTH 600 0
DWIDTH 22 0
BBX 17 31 2 0
BITMAP
0F8600
1FCF00
1FFF00
3FFF00
3CFE00
183C00
000000
FC0F80
FC0F80
FE0F80
FE0F80
FF0F80
FF0F80
FF0F80
FF8F80
FF8F80
FBCF80
FBCF80
F9EF80
F9EF80
F9EF80
F8F780
F8F780
F87780
F87F80
F83F80
F83F80
F83F80
F81F80
F81F80
F80F80
ENDCHAR
STARTCHAR Ograve
ENCODING 210
SWIDTH 600 0
DWIDTH 22 0
BBX 19 32 1 0
BITMAP
010000
038000
07C000
07E000
03F800
01F800
007000
003000
01F800
07FE00
1FFF00
1FFF80
3F1FC0
7E0FC0
7E07C0
7C07E0
7C03E0
FC03E0
FC03E0
FC03E0
FC03E0
FC03E0
7C03E0
7C07E0
7C07E0
7E07C0
3E0FC0
3F1FC0
1FFF80
1FFF00
07FE00
01F800
ENDCHAR
STARTCHAR Oacute
ENCODING 211
SWIDTH 600 0
DWIDTH 22 0
BBX 19 32 1 0
BITMAP
000800
003800
007C00
00FE00
01FC00
03F000
01E000
008000
01F800
07FE00
1FFF00
1FFF80
3F1FC0
7E0FC0
7E07C0
7C07E0
7C03E0
FC03E0
FC03E0
FC03E0
FC03E0
FC03E0
7C03E0
7C07E0
7C07E0
7E07C0
3E0FC0
3F1FC0
1FFF80
1FFF00
07FE00
01F800
ENDCHAR
STARTCHAR Ocircumflex
ENCODING 212
SWIDTH 600 0
DWIDTH 22 0
BBX 19 30 1 0
BITMAP
03F800
03FC00
07BE00
0F0F00
060600
000000
01F800
07FE00
1FFF00
1FFF80
3F1FC0
7E0FC0
7E07C0
7C07E0
7C03E0
FC03E0
FC03E0
FC03E0
FC03E0
FC03E0
7C03E0
7C07E0
7C07E0
7E07C0
3E0FC0
3F1FC0
1FFF80
1FFF00
07FE00
01F800
ENDCHAR
STARTCHAR Otilde
ENCODING 213
SWIDTH 600 0
DWIDTH 22 0
BBX 19 31 1 0
BITMAP
078700
0FE780
1FFF80
1FFF00
1C7F00
0C3C00
000000
01F800
07FE00
1FFF00
1FFF80
3F1FC0
7E0FC0
7E07C0
7C07E0
7C03E0
FC03E0
FC03E0
FC03E0
FC03E0
FC03E0
7C03E0
7C07E0
7C07E0
7E07C0
3E0FC0
3F1FC0
1FFF80
1FFF00
07FE00
01F800
ENDCHAR
STARTCHAR Odieresis
ENCODING 214
SWIDTH 600 0
DWIDTH 22 0
BBX 19 30 1 0
BITMAP
0E0E00
1F1F00
1F1F00
1F1F00
0E0E00
000000
01F800
07FE00
1FFF00
1FFF80
3F1FC0
7E0FC0
7E07C0
7C07E0
7C03E0
FC03E0
FC03E0
FC03E0
FC03E0
FC03E0
7C03E0
7C07E0
7C07E0
7E07C0
3E0FC0
3F1FC0
1FFF80
1FFF00
07FE00
01F800
ENDCHAR
STARTCHAR multiply
ENCODING 215
SWIDTH 600 0
DWIDTH 22 0
BBX 16 16 3 4
BITMAP
2008
700C
F81E
7C3F
3E7C
1FF8
0FF0
07E0
07E0
0FF0
1FF8
3E7C
7C3E
F81F
701C
2008
ENDCHAR
STARTCHAR Oslash
ENCODING 216
SWIDTH 600 0
DWIDTH 22 0
BBX 20 26 1 -1
BITMAP
000040
01F8E0
07FFF0
1FFFE0
1FFFC0
3F1FC0
7E0FC0
7E0FC0
7C1FE0
7C3FE0
FC7FE0
FC7BE0
FCF3E0
FDF3E0
FDE3E0
FFC3E0
7F87E0
7F87E0
7F07C0
3F0FC0
3F1FC0
3FFF80
7FFF00
F7FE00
F1F800
200000
ENDCHAR
STARTCHAR Ugrave
ENCODING 217
SWIDTH 600 0
DWIDTH 22 0
BBX 17 32 2 0
BITMAP
020000
070000
0F8000
0FC000
07F000
03F000
00E000
006000
FC0F80
FC0F80
FC0F80
FC0F80
FC0F80
FC0F80
FC0F80
FC0F80
FC0F80
FC0F80
FC0F80
FC0F80
FC0F80
FC0F80
FC0F80
FC0F80
FC0F80
7C0F80
7C0F80
7E1F00
3FFF00
3FFE00
1FFC00
03F000
ENDCHAR
STARTCHAR Uacute
ENCODING 218
SWIDTH 600 0
DWIDTH 22 0
BBX 17 32 2 0
BITMAP
001000
007000
00F800
01FC00
03F800
07E000
03C000
010000
FC0F80
FC0F80
FC0F80
FC0F80
FC0F80
FC0F80
FC0F80
FC0F80
FC0F80
FC0F80
FC0F80
FC0F80
FC0F80
FC0F80
FC0F80
FC0F80
FC0F80
7C0F80
7C0F80
7E1F00
3FFF00
3FFE00
1FFC00
03F000
ENDCHAR
STARTCHAR Ucircumflex
ENCODING 219
SWIDTH 600 0
DWIDTH 22 0
BBX 17 30 2 0
BITMAP
07F000
07F800
0F7C00
1E1E00
0C0C00
000000
FC0F80
FC0F80
FC0F80
FC0F80
FC0F80
FC0F80
FC0F80
FC0F80
FC0F80
FC0F80
FC0F80
FC0F80
FC0F80
FC0F80
FC0F80
FC0F80
FC0F80
7C0F80
7C0F80
7E1F00
3FFF00
3FFE00
1FFC00
03F000
ENDCHAR
STARTCHAR Udieresis
ENCODING 220
SWIDTH 600 0
DWIDTH 22 0
BBX 17 30 2 0
BITMAP
1C1C00
3E3E00
3E3E00
3E3E00
1C1C00
000000
FC0F80
FC0F80
FC0F80
FC0F80
FC0F80
FC0F80
FC0F80
FC0F80
FC0F80
FC0F80
FC0F80
FC0F80
FC0F80
FC0F80
FC0F80
FC0F80
FC0F80
7C0F80
7C0F80
7E1F00
3FFF00
3FFE00
1FFC00
03F000
ENDCHAR
STARTCHAR Yacute
ENCODING 221
SWIDTH 600 0
DWIDTH 22 0
BBX 20 32 1 0
BITMAP
000800
003800
007C00
00FE00
01FC00
03F000
01E000
008000
F803F0
FC03E0
7C07E0
7E07C0
3E07C0
3F0F80
1F0F80
1F1F00
0F9F00
0F9F00
07BE00
07FE00
03FC00
03FC00
03F800
01F800
01F000
01F000
01F000
01F000
01F000
01F000
01F000
01F000
ENDCHAR
STARTCHAR Thorn
ENCODING 222
SWIDTH 600 0
DWIDTH 22 0
BBX 17 24 3 0
BITMAP
F80000
F80000
F80000
F80000
FFF000
FFFE00
FFFF00
FFFF00
F81F80
F80F80
F80F80
F80F80
F80F80
F80F80
F83F80
FFFF00
FFFE00
FFFC00
FFF000
F80000
F80000
F80000
F80000
F80000
ENDCHAR
STARTCHAR germandbls
ENCODING 223
SWIDTH 600 0
DWIDTH 22 0
BBX 19 26 2 0
BITMAP
07E000
1FF800
3FFC00
7FFE00
7E3E00
FC3E00
FC3E00
FC3E00
F83E00
F87C00
F87C00
F8F800
F8F800
F8FC00
F8FE00
F87F00
F83F80
F81FC0
F80FC0
F807E0
F803E0
F847C0
F8FFC0
F8FFC0
F9FF80
F87E00
ENDCHAR
STARTCHAR agrave
ENCODING 224
SWIDTH 600 0
DWIDTH 22 0
BBX 17 29 2 0
BITMAP
020000
070000
0F8000
1FC000
0FE000
03F000
01F000
00E000
004000
000000
000000
07F800
3FFE00
7FFF00
3FFF00
383F80
201F80
000F80
01FF80
0FFF80
3FFF80
7FFF80
FE0F80
F80F80
FC1F80
FFFF80
7FFF80
3FE780
1F8780
ENDCHAR
STARTCHAR aacute
ENCODING 225
SWIDTH 600 0
DWIDTH 22 0
BBX 17 29 2 0
BITMAP
000800
001C00
003E00
007F00
00FE00
00F800
01F000
00E000
004000
000000
000000
07F800
3FFE00
7FFF00
3FFF00
383F80
201F80
000F80
01FF80
0FFF80
3FFF80
7FFF80
FE0F80
F80F80
FC1F80
FFFF80
7FFF80
3FE780
1F8780
ENDCHAR
STARTCHAR acircumflex
ENCODING 226
SWIDTH 600 0
DWIDTH 22 0
BBX 17 27 2 0
BITMAP
03F800
03F800
07FC00
0FBE00
1F1F00
1E0F00
0C0600
000000
000000
07F800
3FFE00
7FFF00
3FFF00
383F80
201F80
000F80
01FF80
0FFF80
3FFF80
7FFF80
FE0F80
F80F80
FC1F80
FFFF80
7FFF80
3FE780
1F8780
ENDCHAR
STARTCHAR atilde
ENCODING 227
SWIDTH 600 0
DWIDTH 22 0
BBX 17 27 2 0
BITMAP
010000
0FC700
1FE700
1FFF00
1EFF00
1C7E00
1C3C00
000000
000000
07F800
3FFE00
7FFF00
3FFF00
383F80
201F80
000F80
01FF80
0FFF80
3FFF80
7FFF80
FE0F80
F80F80
FC1F80
FFFF80
7FFF80
3FE780
1F8780
ENDCHAR
STARTCHAR adieresis
ENCODING 228
SWIDTH 600 0
DWIDTH 22 0
BBX 17 26 2 0
BITMAP
0E0E00
1F1F00
1F1F00
1F1F00
1F1F00
0E0E00
000000
000000
07F800
3FFE00
7FFF00
3FFF00
383F80
201F80
000F80
01FF80
0FFF80
3FFF80
7FFF80
FE0F80
F80F80
FC1F80
FFFF80
7FFF80
3FE780
1F8780
ENDCHAR
STARTCHAR aring
ENCODING 229
SWIDTH 600 0
DWIDTH 22 0
BBX 17 27 2 0
BITMAP
01F000
07FC00
071C00
071C00
071C00
07FC00
01F000
000000
000000
07F800
3FFE00
7FFF00
3FFF00
383F80
201F80
000F80
01FF80
0FFF80
3FFF80
7FFF80
FE0F80
F80F80
FC1F80
FFFF80
7FFF80
3FE780
1F8780
ENDCHAR
STARTCHAR ae
ENCODING 230
SWIDTH 600 0
DWIDTH 22 0
BBX 20 18 1 0
BITMAP
1F0F80
7F9FC0
FFFFE0
7FFFE0
21F8F0
00F0F0
07F0F0
1FFFF0
7FFFF0
FFFFF0
FCFFF0
F8F000
F0F000
F8F840
FFFFE0
FFBFE0
7F1FF0
3E0FC0
ENDCHAR
STARTCHAR ccedilla
ENCODING 231
SWIDTH 600 0
DWIDTH 22 0
BBX 18 27 2 -9
BITMAP
01FC00
07FF00
1FFF80
3FFF00
3F8700
7E0000
7C0000
FC0000
FC0000
FC0000
FC0000
7C0000
7E0100
7F8700
3FFF80
1FFFC0
0FFF00
01FC00
007000
00F000
00E000
01F000
007C00
003C00
007C00
03F800
01E000
ENDCHAR
STARTCHAR egrave
ENCODING 232
SWIDTH 600 0
DWIDTH 22 0
BBX 18 29 2 0
BITMAP
020000
070000
0F8000
1FC000
0FC000
07E000
03F000
00E000
004000
000000
000000
03F000
0FFC00
1FFF00
3FFF00
7E0F80
7C0F80
F80780
FFFFC0
FFFFC0
FFFFC0
FFFFC0
F80000
7C0000
7F0700
3FFF00
1FFF80
0FFF00
03F800
ENDCHAR
STARTCHAR eacute
ENCODING 233
SWIDTH 600 0
DWIDTH 22 0
BBX 18 29 2 0
BITMAP
001000
001C00
003E00
007F00
00FC00
01F800
03F000
01E000
00C000
000000
000000
03F000
0FFC00
1FFF00
3FFF00
7E0F80
7C0F80
F80780
FFFFC0
FFFFC0
FFFFC0
FFFFC0
F80000
7C0000
7F0700
3FFF00
1FFF80
0FFF00
03F800
ENDCHAR
STARTCHAR ecircumflex
ENCODING 234
SWIDTH 600 0
DWIDTH 22 0
BBX 18 27 2 0
BITMAP
03F000
07F800
07FC00
0FFE00
1F1E00
1E0F00
080400
000000
000000
03F000
0FFC00
1FFF00
3FFF00
7E0F80
7C0F80
F80780
FFFFC0
FFFFC0
FFFFC0
FFFFC0
F80000
7C0000
7F0700
3FFF00
1FFF80
0FFF00
03F800
ENDCHAR
STARTCHAR edieresis
ENCODING 235
SWIDTH 600 0
DWIDTH 22 0
BBX 18 26 2 0
BITMAP
0E0E00
1F1F00
3F3F00
3F3F00
1F1F00
0E0E00
000000
000000
03F000
0FFC00
1FFF00
3FFF00
7E0F80
7C0F80
F80780
FFFFC0
FFFFC0
FFFFC0
FFFFC0
F80000
7C0000
7F0700
3FFF00
1FFF80
0FFF00
03F800
ENDCHAR
STARTCHAR igrave
ENCODING 236
SWIDTH 600 0
DWIDTH 22 0
BBX 12 29 3 0
BITMAP
0200
0700
0F80
1FC0
0FE0
03E0
01F0
00E0
0040
0000
0000
FFF0
FFF0
FFF0
FFF0
01F0
01F0
01F0
01F0
01F0
01F0
01F0
01F0
01F0
01F0
01F0
01F0
01F0
01F0
ENDCHAR
STARTCHAR iacute
ENCODING 237
SWIDTH 600 0
DWIDTH 22 0
BBX 16 29 3 0
BITMAP
0008
001C
003E
007F
00FE
01F8
01F0
00E0
0040
0000
0000
FFF0
FFF0
FFF0
FFF0
01F0
01F0
01F0
01F0
01F0
01F0
01F0
01F0
01F0
01F0
01F0
01F0
01F0
01F0
ENDCHAR
STARTCHAR icircumflex
ENCODING 238
SWIDTH 600 0
DWIDTH 22 0
BBX 16 27 3 0
BITMAP
03F8
03F8
07FC
0FBE
1F1F
1E0F
0C06
0000
0000
FFF0
FFF0
FFF0
FFF0
01F0
01F0
01F0
01F0
01F0
01F0
01F0
01F0
01F0
01F0
01F0
01F0
01F0
01F0
ENDCHAR
STARTCHAR idieresis
ENCODING 239
SWIDTH 600 0
DWIDTH 22 0
BBX 16 26 3 0
BITMAP
0E0E
1F1F
1F1F
1F1F
1F1F
0E0E
0000
0000
FFF0
FFF0
FFF0
FFF0
01F0
01F0
01F0
01F0
01F0
01F0
01F0
01F0
01F0
01F0
01F0
01F0
01F0
01F0
ENDCHAR
STARTCHAR eth
ENCODING 240
SWIDTH 600 0
DWIDTH 22 0
BBX 18 26 2 0
BITMAP
040200
0F0700
1FDF80
0FFE00
03F800
07FC00
1FFC00
3E3E00
183F00
001F00
07CF80
1FFF80
3FFF80
7FFFC0
FC1FC0
F80FC0
F807C0
F807C0
F807C0
F80F80
F80F80
7E1F80
7FFF00
3FFE00
1FFC00
07F000
ENDCHAR
STARTCHAR ntilde
ENCODING 241
SWIDTH 600 0
DWIDTH 22 0
BBX 16 27 3 0
BITMAP
0400
1F8E
3FDE
3FFE
3FFE
38FC
7878
0000
0000
F0F8
F3FE
F7FE
FFFF
FE3F
FC1F
F81F
F81F
F81F
F81F
F81F
F81F
F81F
F81F
F81F
F81F
F81F
F81F
ENDCHAR
STARTCHAR ograve
ENCODING 242
SWIDTH 600 0
DWIDTH 22 0
BBX 18 29 2 0
BITMAP
020000
060000
1F0000
3F8000
0FC000
07E000
03F000
01E000
00C000
000000
000000
03F000
0FFC00
3FFE00
7FFF00
7E1F80
FC0F80
F80FC0
F80FC0
F80FC0
F80FC0
F80FC0
F80FC0
FC0F80
7E1F80
7FFF00
3FFE00
0FFC00
03F000
ENDCHAR
STARTCHAR oacute
ENCODING 243
SWIDTH 600 0
DWIDTH 22 0
BBX 18 29 2 0
BITMAP
001000
003800
007C00
00FE00
00FC00
01F800
03F000
01C000
008000
000000
000000
03F000
0FFC00
3FFE00
7FFF00
7E1F80
FC0F80
F80FC0
F80FC0
F80FC0
F80FC0
F80FC0
F80FC0
FC0F80
7E1F80
7FFF00
3FFE00
0FFC00
03F000
ENDCHAR
STARTCHAR ocircumflex
ENCODING 244
SWIDTH 600 0
DWIDTH 22 0
BBX 18 27 2 0
BITMAP
03F000
07F800
0FF800
1FFC00
1E3E00
3C1E00
080400
000000
000000
03F000
0FFC00
3FFE00
7FFF00
7E1F80
FC0F80
F80FC0
F80FC0
F80FC0
F80FC0
F80FC0
F80FC0
FC0F80
7E1F80
7FFF00
3FFE00
0FFC00
03F000
ENDCHAR
STARTCHAR otilde
ENCODING 245
SWIDTH 600 0
DWIDTH 22 0
BBX 18 27 2 0
BITMAP
020000
0F8F00
1FCE00
3FFE00
3DFE00
38FC00
383800
000000
000000
03F000
0FFC00
3FFE00
7FFF00
7E1F80
FC0F80
F80FC0
F80FC0
F80FC0
F80FC0
F80FC0
F80FC0
FC0F80
7E1F80
7FFF00
3FFE00
0FFC00
03F000
ENDCHAR
STARTCHAR odieresis
ENCODING 246
SWIDTH 600 0
DWIDTH 22 0
BBX 18 26 2 0
BITMAP
1C1C00
3E3E00
3F3F00
3F3F00
3E3E00
1C1C00
000000
000000
03F000
0FFC00
3FFE00
7FFF00
7E1F80
FC0F80
F80FC0
F80FC0
F80FC0
F80FC0
F80FC0
F80FC0
FC0F80
7E1F80
7FFF00
3FFE00
0FFC00
03F000
ENDCHAR
STARTCHAR divide
ENCODING 247
SWIDTH 600 0
DWIDTH 22 0
BBX 16 20 3 2
BITMAP
0380
07C0
07E0
07E0
07C0
03C0
0000
0000
FFFF
FFFF
FFFF
FFFF
0000
0000
0380
07C0
07E0
07E0
07C0
03C0
ENDCHAR
STARTCHAR oslash
ENCODING 248
SWIDTH 600 0
DWIDTH 22 0
BBX 18 20 2 -1
BITMAP
000100
03F380
0FFF80
3FFF00
7FFF00
7E1F80
FC3F80
F87FC0
F8FFC0
F9EFC0
F9CFC0
FB8FC0
FF0FC0
FE0F80
7E1F80
7FFF00
7FFE00
7FFC00
E3F000
400000
ENDCHAR
STARTCHAR ugrave
ENCODING 249
SWIDTH 600 0
DWIDTH 22 0
BBX 17 29 2 0
BITMAP
040000
0E0000
1F0000
3F8000
0FC000
07E000
03F000
01C000
008000
000000
000000
FC0F80
FC0F80
FC0F80
FC0F80
FC0F80
FC0F80
FC0F80
FC0F80
FC0F80
FC0F80
FC0F80
FC1F80
FC1F80
FC3F80
7FFF80
7FFF80
3FCF80
1F8780
ENDCHAR
STARTCHAR uacute
ENCODING 250
SWIDTH 600 0
DWIDTH 22 0
BBX 17 29 2 0
BITMAP
001000
003800
007C00
00FE00
00FC00
01F800
03E000
01C000
008000
000000
000000
FC0F80
FC0F80
FC0F80
FC0F80
FC0F80
FC0F80
FC0F80
FC0F80
FC0F80
FC0F80
FC0F80
FC1F80
FC1F80
FC3F80
7FFF80
7FFF80
3FCF80
1F8780
ENDCHAR
STARTCHAR ucircumflex
ENCODING 251
SWIDTH 600 0
DWIDTH 22 0
BBX 17 27 2 0
BITMAP
03F000
07F800
0FF800
1FFC00
3E3E00
1C1E00
080400
000000
000000
FC0F80
FC0F80
FC0F80
FC0F80
FC0F80
FC0F80
FC0F80
FC0F80
FC0F80
FC0F80
FC0F80
FC1F80
FC1F80
FC3F80
7FFF80
7FFF80
3FCF80
1F8780
ENDCHAR
STARTCHAR udieresis
ENCODING 252
SWIDTH 600 0
DWIDTH 22 0
BBX 17 26 2 0
BITMAP
1C1C00
3E3E00
3F3F00
3F3F00
3E3E00
1C1C00
000000
000000
FC0F80
FC0F80
FC0F80
FC0F80
FC0F80
FC0F80
FC0F80
FC0F80
FC0F80
FC0F80
FC0F80
FC1F80
FC1F80
FC3F80
7FFF80
7FFF80
3FCF80
1F8780
ENDCHAR
STARTCHAR yacute
ENCODING 253
SWIDTH 600 0
DWIDTH 22 0
BBX 20 36 1 -7
BITMAP
000800
001C00
001E00
003F00
007E00
00FC00
01F800
00F000
004000
000000
000000
FC03F0
7C03E0
7C03E0
3E07C0
3E07C0
1F0780
1F0F80
0F0F80
0F8F00
0F9F00
079F00
07DE00
03FE00
03FC00
01FC00
01FC00
00F800
00F800
01F000
01F000
03E000
3FE000
3FC000
3F8000
7E0000
ENDCHAR
STARTCHAR thorn
ENCODING 254
SWIDTH 600 0
DWIDTH 22 0
BBX 17 33 3 -7
BITMAP
F80000
F80000
F80000
F80000
F80000
F80000
F80000
F80000
F9F000
FFFC00
FFFE00
FFFF00
FE3F00
F81F80
F81F80
F81F80
F81F80
F81F80
F81F80
F81F80
F81F00
FC3F00
FFFE00
FFFE00
FFFC00
F9F000
F80000
F80000
F80000
F80000
F80000
F80000
F80000
ENDCHAR
STARTCHAR ydieresis
ENCODING 255
SWIDTH 600 0
DWIDTH 22 0
BBX 20 33 1 -7
BITMAP
0F0F00
0F8F80
1F9F80
1F9F80
0F8F80
0F0F00
000000
000000
FC03F0
7C03E0
7C03E0
3E07C0
3E07C0
1F0780
1F0F80
0F0F80
0F8F00
0F9F00
079F00
07DE00
03FE00
03FC00
01FC00
01FC00
00F800
00F800
01F000
01F000
03E000
3FE000
3FC000
3F8000
7E0000
ENDCHAR
STARTCHAR Amacron
ENCODING 256
SWIDTH 600 0
DWIDTH 22 0
BBX 21 29 0 0
BITMAP
07FF00
07FF00
07FF00
000000
000000
01FC00
01FC00
01FE00
01FE00
03FE00
03DF00
03DF00
07CF00
07CF80
078F80
0F8F80
0F8780
0F87C0
0F07C0
1FFFC0
1FFFE0
1FFFE0
3FFFE0
3E03F0
3E01F0
7E01F0
7C01F8
7C01F8
FC00F8
ENDCHAR
STARTCHAR amacron
ENCODING 257
SWIDTH 600 0
DWIDTH 22 0
BBX 17 24 2 0
BITMAP
0FFE00
0FFE00
0FFE00
000000
000000
000000
07F800
3FFE00
7FFF00
3FFF00
383F80
201F80
000F80
01FF80
0FFF80
3FFF80
7FFF80
FE0F80
F80F80
FC1F80
FFFF80
7FFF80
3FE780
1F8780
ENDCHAR
STARTCHAR Abreve
ENCODING 258
SWIDTH 600 0
DWIDTH 22 0
BBX 21 30 0 0
BITMAP
070380
078700
03FF00
03FE00
00FC00
000000
01FC00
01FC00
01FE00
01FE00
03FE00
03DF00
03DF00
07CF00
07CF80
078F80
0F8F80
0F8780
0F87C0
0F07C0
1FFFC0
1FFFE0
1FFFE0
3FFFE0
3E03F0
3E01F0
7E01F0
7C01F8
7C01F8
FC00F8
ENDCHAR
STARTCHAR abreve
ENCODING 259
SWIDTH 600 0
DWIDTH 22 0
BBX 17 27 2 0
BITMAP
040800
1E0F00
0F1E00
0FFE00
07FC00
03F000
000000
000000
000000
07F800
3FFE00
7FFF00
3FFF00
383F80
201F80
000F80
01FF80
0FFF80
3FFF80
7FFF80
FE0F80
F80F80
FC1F80
FFFF80
7FFF80
3FE780
1F8780
ENDCHAR
STARTCHAR Aogonek
ENCODING 260
SWIDTH 600 0
DWIDTH 22 0
BBX 22 32 0 -8
BITMAP
01FC00
01FC00
01FE00
01FE00
03FE00
03DF00
03DF00
07CF00
07CF80
078F80
0F8F80
0F8780
0F87C0
0F07C0
1FFFC0
1FFFE0
1FFFE0
3FFFE0
3E03F0
3E01F0
7E01F0
7C01F8
7C01F8
FC00F8
0000F0
0001C0
0001C0
0003C8
0003F8
0003FC
0001FC
0000F0
ENDCHAR
STARTCHAR aogonek
ENCODING 261
SWIDTH 600 0
DWIDTH 22 0
BBX 18 27 2 -9
BITMAP
07F800
3FFE00
7FFF00
3FFF00
383F80
201F80
000F80
01FF80
0FFF80
3FFF80
7FFF80
FE0F80
F80F80
FC1F80
FFFF80
7FFF80
3FF780
1F8780
000F00
001C00
003C00
003800
003C80
003F80
003FC0
001FC0
000F00
ENDCHAR
STARTCHAR Cacute
ENCODING 262
SWIDTH 600 0
DWIDTH 22 0
BBX 19 32 2 0
BITMAP
000400
001C00
003E00
007F00
00FE00
01F800
00F000
004000
00FC00
07FF80
0FFFC0
1FFF80
3F8700
7F0200
7E0000
7C0000
FC0000
FC0000
F80000
F80000
F80000
F80000
FC0000
FC0000
7C0000
7E0000
7F0100
3F8780
1FFFC0
0FFFE0
07FF80
01FC00
ENDCHAR
STARTCHAR cacute
ENCODING 263
SWIDTH 600 0
DWIDTH 22 0
BBX 18 29 2 0
BITMAP
000400
000E00
001F00
003F80
007E00
00FC00
01F800
007000
002000
000000
000000
01FC00
07FF00
1FFF80
3FFF00
3F8700
7E0000
7C0000
FC0000
FC0000
FC0000
FC0000
7C0000
7E0100
7F8700
3FFF80
1FFFC0
0FFF00
01FC00
ENDCHAR
STARTCHAR Ccircumflex
ENCODING 264
SWIDTH 600 0
DWIDTH 22 0
BBX 19 30 2 0
BITMAP
01FC00
03FE00
03DF00
078F80
030200
000000
00FC00
07FF80
0FFFC0
1FFF80
3F8700
7F0200
7E0000
7C0000
FC0000
FC0000
F80000
F80000
F80000
F80000
FC0000
FC0000
7C0000
7E0000
7F0100
3F8780
1FFFC0
0FFFE0
07FF80
01FC00
ENDCHAR
STARTCHAR ccircumflex
ENCODING 265
SWIDTH 600 0
DWIDTH 22 0
BBX 18 27 2 0
BITMAP
01F800
03FC00
03FE00
07FF00
0F8F80
0F0700
040200
000000
000000
01FC00
07FF00
1FFF80
3FFF00
3F8700
7E0000
7C0000
FC0000
FC0000
FC0000
FC0000
7C0000
7E0100
7F8700
3FFF80
1FFFC0
0FFF00
01FC00
ENDCHAR
STARTCHAR Cdotaccent
ENCODING 266
SWIDTH 600 0
DWIDTH 22 0
BBX 19 31 2 0
BITMAP
007800
00FC00
01FC00
01FC00
00FC00
007800
000000
00FC00
07FF80
0FFFC0
1FFF80
3F8700
7F0200
7E0000
7C0000
FC0000
FC0000
F80000
F80000
F80000
F80000
FC0000
FC0000
7C0000
7E0000
7F0100
3F8780
1FFFC0
0FFFE0
07FF80
01FC00
ENDCHAR
STARTCHAR cdotaccent
ENCODING 267
SWIDTH 600 0
DWIDTH 22 0
BBX 18 27 2 0
BITMAP
00F000
01F800
01FC00
01FC00
01FC00
01F800
00F000
000000
000000
01FC00
07FF00
1FFF80
3FFF00
3F8700
7E0000
7C0000
FC0000
FC0000
FC0000
FC0000
7C0000
7E0100
7F8700
3FFF80
1FFFC0
0FFF00
01FC00
ENDCHAR
STARTCHAR Ccaron
ENCODING 268
SWIDTH 600 0
DWIDTH 22 0
BBX 19 30 2 0
BITMAP
030200
078F80
03DF00
03FE00
01FC00
000000
00FC00
07FF80
0FFFC0
1FFF80
3F8700
7F0200
7E0000
7C0000
FC0000
FC0000
F80000
F80000
F80000
F80000
FC0000
FC0000
7C0000
7E0000
7F0100
3F8780
1FFFC0
0FFFE0
07FF80
01FC00
ENDCHAR
STARTCHAR ccaron
ENCODING 269
SWIDTH 600 0
DWIDTH 22 0
BBX 18 28 2 0
BITMAP
040200
0F0700
0F8F80
07FF00
03FE00
03FC00
01F800
000000
000000
000000
01FC00
07FF00
1FFF80
3FFF00
3F8700
7E0000
7C0000
FC0000
FC0000
FC0000
FC0000
7C0000
7E0100
7F8700
3FFF80
1FFFC0
0FFF00
01FC00
ENDCHAR
STARTCHAR Dcaron
ENCODING 270
SWIDTH 600 0
DWIDTH 22 0
BBX 17 30 3 0
BITMAP
181000
3C3C00
1EF800
0FF000
0FE000
000000
FFC000
FFF000
FFFC00
FFFE00
F8FF00
F83F00
F81F00
F81F80
F80F80
F80F80
F80F80
F80F80
F80F80
F80F80
F80F80
F81F80
F81F80
F81F00
F83F00
F8FE00
FFFE00
FFFC00
FFF000
FFC000
ENDCHAR
STARTCHAR dcaron
ENCODING 271
SWIDTH 600 0
DWIDTH 22 0
BBX 22 30 1 0
BITMAP
00007C
00007C
00007C
00007C
001F7C
001F7C
001F78
001F78
001F78
001F78
001F00
001F00
079F00
1FFF00
3FFF00
3FFF00
7E3F00
7C1F00
FC1F00
F81F00
F81F00
F81F00
F81F00
FC1F00
7C3F00
7E7F00
7FFF00
3FFF00
1FDF00
0F8F00
ENDCHAR
STARTCHAR Dcroat
ENCODING 272
SWIDTH 600 0
DWIDTH 22 0
BBX 20 24 0 0
BITMAP
1FF800
1FFE00
1FFF80
1FFFC0
1F1FE0
1F07E0
1F03E0
1F03F0
1F01F0
1F01F0
FFF1F0
FFF1F0
FFF1F0
1F01F0
1F01F0
1F03F0
1F03F0
1F03E0
1F07E0
1F1FC0
1FFFC0
1FFF80
1FFE00
1FF800
ENDCHAR
STARTCHAR dcroat
ENCODING 273
SWIDTH 600 0
DWIDTH 22 0
BBX 19 26 2 0
BITMAP
000F80
000F80
000F80
03FFE0
03FFE0
03FFE0
000F80
000F80
07CF80
1FEF80
3FFF80
7FFF80
7E1F80
FC0F80
F80F80
F80F80
F80F80
F80F80
F80F80
F80F80
FC1F80
FE3F80
7FFF80
3FFF80
1FEF80
0F8780
ENDCHAR
STARTCHAR Emacron
ENCODING 274
SWIDTH 600 0
DWIDTH 22 0
BBX 16 29 3 0
BITMAP
1FFC
1FFC
1FFC
0000
0000
FFFF
FFFF
FFFF
FFFF
FC00
FC00
FC00
FC00
FC00
FC00
FFFC
FFFC
FFFC
FFFC
FC00
FC00
FC00
FC00
FC00
FC00
FFFF
FFFF
FFFF
FFFF
ENDCHAR
STARTCHAR emacron
ENCODING 275
SWIDTH 600 0
DWIDTH 22 0
BBX 18 24 2 0
BITMAP
0FFE00
0FFE00
0FFE00
000000
000000
000000
03F000
0FFC00
1FFF00
3FFF00
7E0F80
7C0F80
F80780
FFFFC0
FFFFC0
FFFFC0
FFFFC0
F80000
7C0000
7F0700
3FFF00
1FFF80
0FFF00
03F800
ENDCHAR
STARTCHAR Ebreve
ENCODING 276
SWIDTH 600 0
DWIDTH 22 0
BBX 16 30 3 0
BITMAP
1C1E
1E1C
1FFC
0FF8
03F0
0000
FFFF
FFFF
FFFF
FFFF
FC00
FC00
FC00
FC00
FC00
FC00
FFFC
FFFC
FFFC
FFFC
FC00
FC00
FC00
FC00
FC00
FC00
FFFF
FFFF
FFFF
FFFF
ENDCHAR
STARTCHAR ebreve
ENCODING 277
SWIDTH 600 0
DWIDTH 22 0
BBX 18 27 2 0
BITMAP
041000
1E0E00
1E1E00
0FFE00
07FC00
03F000
000000
000000
000000
03F000
0FFC00
1FFF00
3FFF00
7E0F80
7C0F80
F80780
FFFFC0
FFFFC0
FFFFC0
FFFFC0
F80000
7C0000
7F0700
3FFF00
1FFF80
0FFF00
03F800
ENDCHAR
STARTCHAR Edotaccent
ENCODING 278
SWIDTH 600 0
DWIDTH 22 0
BBX 16 31 3 0
BITMAP
01E0
03F0
07F0
07F0
03F0
01E0
0000
FFFF
FFFF
FFFF
FFFF
FC00
FC00
FC00
FC00
FC00
FC00
FFFC
FFFC
FFFC
FFFC
FC00
FC00
FC00
FC00
FC00
FC00
FFFF
FFFF
FFFF
FFFF
ENDCHAR
STARTCHAR edotaccent
ENCODING 279
SWIDTH 600 0
DWIDTH 22 0
BBX 18 27 2 0
BITMAP
01E000
03F000
03F800
03F800
03F800
03F000
01E000
000000
000000
03F000
0FFC00
1FFF00
3FFF00
7E0F80
7C0F80
F80780
FFFFC0
FFFFC0
FFFFC0
FFFFC0
F80000
7C0000
7F0700
3FFF00
1FFF80
0FFF00
03F800
ENDCHAR
STARTCHAR Eogonek
ENCODING 280
SWIDTH 600 0
DWIDTH 22 0
BBX 17 32 3 -8
BITMAP
FFFF00
FFFF00
FFFF00
FFFF00
FC0000
FC0000
FC0000
FC0000
FC0000
FC0000
FFFC00
FFFC00
FFFC00
FFFC00
FC0000
FC0000
FC0000
FC0000
FC0000
FC0000
FFFF00
FFFF00
FFFF00
FFFF00
001C00
003800
007800
007900
007F00
007F80
003F80
001E00
ENDCHAR
STARTCHAR eogonek
ENCODING 281
SWIDTH 600 0
DWIDTH 22 0
BBX 18 27 2 -9
BITMAP
03F000
0FFC00
1FFF00
3FFF00
7E0F80
7C0F80
F80780
FFFFC0
FFFFC0
FFFFC0
FFFFC0
F80000
7C0000
7F0700
3FFF00
1FFF80
0FFF00
03FE00
001C00
003800
007000
007000
007900
007F00
007F80
007F80
001E00
ENDCHAR
STARTCHAR Ecaron
ENCODING 282
SWIDTH 600 0
DWIDTH 22 0
BBX 16 30 3 0
BITMAP
0808
1E3E
0F7C
0FF8
07F0
0000
FFFF
FFFF
FFFF
FFFF
FC00
FC00
FC00
FC00
FC00
FC00
FFFC
FFFC
FFFC
FFFC
FC00
FC00
FC00
FC00
FC00
FC00
FFFF
FFFF
FFFF
FFFF
ENDCHAR
STARTCHAR ecaron
ENCODING 283
SWIDTH 600 0
DWIDTH 22 0
BBX 18 28 2 0
BITMAP
080400
1E0E00
1F1F00
0FFE00
07FC00
07F800
03F000
000000
000000
000000
03F000
0FFC00
1FFF00
3FFF00
7E0F80
7C0F80
F80780
FFFFC0
FFFFC0
FFFFC0
FFFFC0
F80000
7C0000
7F0700
3FFF00
1FFF80
0FFF00
03F800
ENDCHAR
STARTCHAR Gcircumflex
ENCODING 284
SWIDTH 600 0
DWIDTH 22 0
BBX 18 30 2 0
BITMAP
01F800
03FC00
07BE00
0F0F00
060600
000000
01FC00
07FF00
1FFF80
3FFF00
3F0700
7E0200
7C0000
FC0000
FC0000
F80000
F80000
F83FC0
F83FC0
F83FC0
F83FC0
F807C0
FC07C0
FC07C0
7E07C0
3F07C0
3FFFC0
1FFF80
07FF00
01FC00
ENDCHAR
STARTCHAR gcircumflex
ENCODING 285
SWIDTH 600 0
DWIDTH 22 0
BBX 19 34 2 -7
BITMAP
03F000
07F800
0FFC00
0FFC00
1F3E00
3C0F00
080400
000000
000000
07FFC0
1FFFC0
3FFFC0
7FFFC0
7C3FC0
7C1E00
7C1F00
7C3F00
7FFE00
3FFE00
1FFC00
3FF000
780000
780000
7FFE00
7FFF80
3FFFC0
3FFFC0
7807E0
F007C0
F80FC0
FFFFC0
FFFF80
7FFE00
0FF000
ENDCHAR
STARTCHAR Gbreve
ENCODING 286
SWIDTH 600 0
DWIDTH 22 0
BBX 18 30 2 0
BITMAP
0E0700
0F0F00
07FE00
07FC00
01F800
000000
01FC00
07FF00
1FFF80
3FFF00
3F0700
7E0200
7C0000
FC0000
FC0000
F80000
F80000
F83FC0
F83FC0
F83FC0
F83FC0
F807C0
FC07C0
FC07C0
7E07C0
3F07C0
3FFFC0
1FFF80
07FF00
01FC00
ENDCHAR
STARTCHAR gbreve
ENCODING 287
SWIDTH 600 0
DWIDTH 22 0
BBX 19 34 2 -7
BITMAP
041000
1C0E00
1E1E00
0FFC00
0FFC00
03F000
000000
000000
000000
07FFC0
1FFFC0
3FFFC0
7FFFC0
7C3FC0
7C1E00
7C1F00
7C3F00
7FFE00
3FFE00
1FFC00
3FF000
780000
780000
7FFE00
7FFF80
3FFFC0
3FFFC0
7807E0
F007C0
F80FC0
FFFFC0
FFFF80
7FFE00
0FF000
ENDCHAR
STARTCHAR Gdotaccent
ENCODING 288
SWIDTH 600 0
DWIDTH 22 0
BBX 18 31 2 0
BITMAP
00F000
01F800
01F800
01F800
01F800
00F000
000000
01FC00
07FF00
1FFF80
3FFF00
3F0700
7E0200
7C0000
FC0000
FC0000
F80000
F80000
F83FC0
F83FC0
F83FC0
F83FC0
F807C0
FC07C0
FC07C0
7E07C0
3F07C0
3FFFC0
1FFF80
07FF00
01FC00
ENDCHAR
STARTCHAR gdotaccent
ENCODING 289
SWIDTH 600 0
DWIDTH 22 0
BBX 19 34 2 -7
BITMAP
01E000
03F000
03F000
07F000
07F000
03F000
01E000
000000
000000
07FFC0
1FFFC0
3FFFC0
7FFFC0
7C3FC0
7C1E00
7C1F00
7C3F00
7FFE00
3FFE00
1FFC00
3FF000
780000
780000
7FFE00
7FFF80
3FFFC0
3FFFC0
7807E0
F007C0
F80FC0
FFFFC0
FFFF80
7FFE00
0FF000
ENDCHAR
STARTCHAR uni0122
ENCODING 290
SWIDTH 600 0
DWIDTH 22 0
BBX 18 33 2 -9
BITMAP
01FC00
07FF00
1FFF80
3FFF00
3F0700
7E0200
7C0000
FC0000
FC0000
F80000
F80000
F83FC0
F83FC0
F83FC0
F83FC0
F807C0
FC07C0
FC07C0
7E07C0
3F07C0
3FFFC0
1FFF80
07FF00
01FC00
000000
000000
00E000
01F000
007800
007800
00F800
03F000
03C000
ENDCHAR
STARTCHAR uni0123
ENCODING 291
SWIDTH 600 0
DWIDTH 22 0
BBX 19 34 2 -7
BITMAP
007800
01F800
03C000
038000
03C000
03F000
00E000
000000
000000
07FFC0
1FFFC0
3FFFC0
7FFFC0
7C3FC0
7C1E00
7C1F00
7C3F00
7FFE00
3FFE00
1FFC00
3FF000
780000
780000
7FFE00
7FFF80
3FFFC0
3FFFC0
7807E0
F007C0
F80FC0
FFFFC0
FFFF80
7FFE00
0FF000
ENDCHAR
STARTCHAR Hcircumflex
ENCODING 292
SWIDTH 600 0
DWIDTH 22 0
BBX 17 30 2 0
BITMAP
07F000
07F800
0F7C00
1E1E00
0C0C00
000000
FC0F80
FC0F80
FC0F80
FC0F80
FC0F80
FC0F80
FC0F80
FC0F80
FC0F80
FC0F80
FFFF80
FFFF80
FFFF80
FFFF80
FC0F80
FC0F80
FC0F80
FC0F80
FC0F80
FC0F80
FC0F80
FC0F80
FC0F80
FC0F80
ENDCHAR
STARTCHAR hcircumflex
ENCODING 293
SWIDTH 600 0
DWIDTH 22 0
BBX 20 32 -1 0
BITMAP
1FC000
3FC000
7DE000
F0F000
206000
000000
0F8000
0F8000
0F8000
0F8000
0F8000
0F8000
0F8000
0F8000
0F8F80
0FBFE0
0FFFE0
0FFFF0
0FE3F0
0FC1F0
0F81F0
0F81F0
0F81F0
0F81F0
0F81F0
0F81F0
0F81F0
0F81F0
0F81F0
0F81F0
0F81F0
0F81F0
ENDCHAR
STARTCHAR Hbar
ENCODING 294
SWIDTH 600 0
DWIDTH 22 0
BBX 21 24 0 0
BITMAP
3F03E0
3F03E0
3F03E0
3F03E0
FFFFF8
FFFFF8
FFFFF8
3F03E0
3F03E0
3F03E0
3FFFE0
3FFFE0
3FFFE0
3FFFE0
3F03E0
3F03E0
3F03E0
3F03E0
3F03E0
3F03E0
3F03E0
3F03E0
3F03E0
3F03E0
ENDCHAR
STARTCHAR hbar
ENCODING 295
SWIDTH 600 0
DWIDTH 22 0
BBX 19 26 0 0
BITMAP
1F0000
1F0000
1F0000
FFFC00
FFFC00
FFFC00
1F0000
1F0000
1F1F00
1F7FC0
1FFFC0
1FFFE0
1FC7E0
1F03E0
1F03E0
1F03E0
1F03E0
1F03E0
1F03E0
1F03E0
1F03E0
1F03E0
1F03E0
1F03E0
1F03E0
1F03E0
ENDCHAR
STARTCHAR Itilde
ENCODING 296
SWIDTH 600 0
DWIDTH 22 0
BBX 16 31 3 0
BITMAP
1E1C
3F9E
7FFE
7FFC
71FC
30F0
0000
FFFF
FFFF
FFFF
FFFF
07C0
07C0
07C0
07C0
07C0
07C0
07C0
07C0
07C0
07C0
07C0
07C0
07C0
07C0
07C0
07C0
FFFF
FFFF
FFFF
FFFF
ENDCHAR
STARTCHAR itilde
ENCODING 297
SWIDTH 600 0
DWIDTH 22 0
BBX 16 27 3 0
BITMAP
0300
0FC7
1FEF
1FFF
1FFF
1C7E
1C3C
0000
0000
FFF0
FFF0
FFF0
FFF0
01F0
01F0
01F0
01F0
01F0
01F0
01F0
01F0
01F0
01F0
01F0
01F0
01F0
01F0
ENDCHAR
STARTCHAR Imacron
ENCODING 298
SWIDTH 600 0
DWIDTH 22 0
BBX 16 29 3 0
BITMAP
3FF8
3FF8
3FF8
0000
0000
FFFF
FFFF
FFFF
FFFF
07C0
07C0
07C0
07C0
07C0
07C0
07C0
07C0
07C0
07C0
07C0
07C0
07C0
07C0
07C0
07C0
FFFF
FFFF
FFFF
FFFF
ENDCHAR
STARTCHAR imacron
ENCODING 299
SWIDTH 600 0
DWIDTH 22 0
BBX 15 24 3 0
BITMAP
0FFE
0FFE
0FFE
0000
0000
0000
FFF0
FFF0
FFF0
FFF0
01F0
01F0
01F0
01F0
01F0
01F0
01F0
01F0
01F0
01F0
01F0
01F0
01F0
01F0
ENDCHAR
STARTCHAR Ibreve
ENCODING 300
SWIDTH 600 0
DWIDTH 22 0
BBX 16 30 3 0
BITMAP
381C
3C38
1FF8
1FF0
07E0
0000
FFFF
FFFF
FFFF
FFFF
07C0
07C0
07C0
07C0
07C0
07C0
07C0
07C0
07C0
07C0
07C0
07C0
07C0
07C0
07C0
07C0
FFFF
FFFF
FFFF
FFFF
ENDCHAR
STARTCHAR ibreve
ENCODING 301
SWIDTH 600 0
DWIDTH 22 0
BBX 16 27 3 0
BITMAP
0418
1E0F
0F1E
0FFE
07FC
03F0
0000
0000
0000
FFF0
FFF0
FFF0
FFF0
01F0
01F0
01F0
01F0
01F0
01F0
01F0
01F0
01F0
01F0
01F0
01F0
01F0
01F0
ENDCHAR
STARTCHAR Iogonek
ENCODING 302
SWIDTH 600 0
DWIDTH 22 0
BBX 16 32 3 -8
BITMAP
FFFF
FFFF
FFFF
FFFF
07C0
07C0
07C0
07C0
07C0
07C0
07C0
07C0
07C0
07C0
07C0
07C0
07C0
07C0
07C0
07C0
FFFF
FFFF
FFFF
FFFF
0380
0700
0F00
0F20
0FE0
0FF0
0FF0
03C0
ENDCHAR
STARTCHAR iogonek
ENCODING 303
SWIDTH 600 0
DWIDTH 22 0
BBX 14 36 3 -9
BITMAP
00E0
03F0
03F8
03F8
03F8
03F0
01E0
0000
0000
FFF0
FFF0
FFF0
FFF0
01F0
01F0
01F0
01F0
01F0
01F0
01F0
01F0
01F0
01F0
01F0
01F0
01F0
01F0
00E0
01C0
0380
0380
0788
07F8
03F8
03FC
01F0
ENDCHAR
STARTCHAR Idotaccent
ENCODING 304
SWIDTH 600 0
DWIDTH 22 0
BBX 16 31 3 0
BITMAP
03C0
07E0
07E0
07E0
07E0
03C0
0000
FFFF
FFFF
FFFF
FFFF
07C0
07C0
07C0
07C0
07C0
07C0
07C0
07C0
07C0
07C0
07C0
07C0
07C0
07C0
07C0
07C0
FFFF
FFFF
FFFF
FFFF
ENDCHAR
STARTCHAR dotlessi
ENCODING 305
SWIDTH 600 0
DWIDTH 22 0
BBX 12 18 3 0
BITMAP
FFF0
FFF0
FFF0
FFF0
01F0
01F0
01F0
01F0
01F0
01F0
01F0
01F0
01F0
01F0
01F0
01F0
01F0
01F0
ENDCHAR
STARTCHAR IJ
ENCODING 306
SWIDTH 600 0
DWIDTH 22 0
BBX 16 30 3 -6
BITMAP
F81F
F81F
F81F
F81F
F81F
F81F
F81F
F81F
F81F
F81F
F81F
F81F
F81F
F81F
F81F
F81F
F81F
F81F
F81F
F81F
F81F
F81F
F81F
F81F
003F
003F
01FE
03FE
03FC
03F0
ENDCHAR
STARTCHAR ij
ENCODING 307
SWIDTH 600 0
DWIDTH 22 0
BBX 18 33 2 -7
BITMAP
380700
7C0F80
FC0FC0
FE1FC0
7C0F80
380700
000000
000000
7C0F80
7C0F80
7C0F80
7C0F80
7C0F80
7C0F80
7C0F80
7C0F80
7C0F80
7C0F80
7C0F80
7C0F80
7C0F80
7C0F80
7C0F80
7C0F80
7C0F80
7C0F80
000F80
000F80
001F80
00FF80
00FF00
00FE00
00FC00
ENDCHAR
STARTCHAR Jcircumflex
ENCODING 308
SWIDTH 600 0
DWIDTH 22 0
BBX 17 30 2 0
BITMAP
03F800
03FC00
07BE00
0F0F00
060600
000000
3FFF80
3FFF80
3FFF80
3FFF80
001F80
001F80
001F80
001F80
001F80
001F80
001F80
001F80
001F80
001F80
001F80
001F80
001F80
201F00
301F00
7C3F00
FFFE00
7FFE00
3FFC00
0FE000
ENDCHAR
STARTCHAR jcircumflex
ENCODING 309
SWIDTH 600 0
DWIDTH 22 0
BBX 17 34 2 -7
BITMAP
01FC00
01FC00
03FE00
07DF00
0F8F80
0F0780
060300
000000
000000
7FF800
7FF800
7FF800
7FF800
00F800
00F800
00F800
00F800
00F800
00F800
00F800
00F800
00F800
00F800
00F800
00F800
00F800
00F800
00F800
00F800
41F800
FFF000
FFF000
FFE000
7F8000
ENDCHAR
STARTCHAR uni0136
ENCODING 310
SWIDTH 600 0
DWIDTH 22 0
BBX 19 33 2 -9
BITMAP
FC07E0
FC0FC0
FC1F80
FC3F00
FC3E00
FC7E00
FCFC00
FCF800
FDF000
FFF000
FFF000
FFF800
FFF800
FFFC00
FF7C00
FE7E00
FE3E00
FC3F00
FC1F00
FC1F80
FC0FC0
FC0FC0
FC07E0
FC07E0
000000
000000
00E000
01F800
007800
007800
007800
03F000
03C000
ENDCHAR
STARTCHAR uni0137
ENCODING 311
SWIDTH 600 0
DWIDTH 22 0
BBX 18 35 3 -9
BITMAP
F80000
F80000
F80000
F80000
F80000
F80000
F80000
F80000
F81FC0
F83F00
F87E00
F8FC00
F8F800
F9F000
FBE000
FFE000
FFF000
FFF000
FFF800
FEFC00
FC7C00
F83E00
F83F00
F81F00
F81F80
F80FC0
000000
000000
01C000
03F000
00F000
00F000
01F000
07E000
078000
ENDCHAR
STARTCHAR kgreenlandic
ENCODING 312
SWIDTH 600 0
DWIDTH 22 0
BBX 18 18 3 0
BITMAP
F81FC0
F83F00
F87E00
F8FC00
F8F800
F9F800
FBF000
FFE000
FFF000
FFF000
FFF800
FEFC00
FC7C00
F87E00
F83F00
F81F00
F81F80
F80FC0
ENDCHAR
STARTCHAR Lacute
ENCODING 313
SWIDTH 600 0
DWIDTH 22 0
BBX 17 32 3 0
BITMAP
020000
070000
0F0000
3F8000
7F0000
FC0000
780000
200000
7C0000
7C0000
7C0000
7C0000
7C0000
7C0000
7C0000
7C0000
7C0000
7C0000
7C0000
7C0000
7C0000
7C0000
7C0000
7C0000
7C0000
7C0000
7C0000
7C0000
7FFF80
7FFF80
7FFF80
7FFF80
ENDCHAR
STARTCHAR lacute
ENCODING 314
SWIDTH 600 0
DWIDTH 22 0
BBX 18 34 2 0
BITMAP
002000
007000
01F000
03F800
07F000
0FC000
078000
020000
FFE000
FFE000
FFE000
FFE000
07E000
07E000
07E000
07E000
07E000
07E000
07E000
07E000
07E000
07E000
07E000
07E000
07E000
07E000
07E000
07E000
03E000
03F100
03FF80
01FF80
00FF80
007F40
ENDCHAR
STARTCHAR uni013B
ENCODING 315
SWIDTH 600 0
DWIDTH 22 0
BBX 16 33 4 -9
BITMAP
F800
F800
F800
F800
F800
F800
F800
F800
F800
F800
F800
F800
F800
F800
F800
F800
F800
F800
F800
F800
FFFF
FFFF
FFFF
FFFF
0000
0000
0380
03E0
05E0
00E0
01E0
0FC0
0F00
ENDCHAR
STARTCHAR uni013C
ENCODING 316
SWIDTH 600 0
DWIDTH 22 0
BBX 18 35 2 -9
BITMAP
FFE000
FFE000
FFE000
FFE000
07E000
07E000
07E000
07E000
07E000
07E000
07E000
07E000
07E000
07E000
07E000
07E000
07E000
07E000
07E000
07E000
03E000
03F100
03FF80
01FF80
00FF80
007F40
000000
000000
007000
007C00
003E00
001E00
003C00
01F800
01E000
ENDCHAR
STARTCHAR Lcaron
ENCODING 317
SWIDTH 600 0
DWIDTH 22 0
BBX 16 29 4 0
BITMAP
007C
007C
007C
007C
007C
F878
F878
F878
F878
F878
F800
F800
F800
F800
F800
F800
F800
F800
F800
F800
F800
F800
F800
F800
F800
FFFF
FFFF
FFFF
FFFF
ENDCHAR
STARTCHAR lcaron
ENCODING 318
SWIDTH 600 0
DWIDTH 22 0
BBX 18 30 2 0
BITMAP
000780
000780
000780
000780
FFE780
FFE780
FFE780
FFE780
07E780
07E780
07E000
07E000
07E000
07E000
07E000
07E000
07E000
07E000
07E000
07E000
07E000
07E000
07E000
07E000
03E000
03F100
03FF80
01FF80
00FF80
007F40
ENDCHAR
STARTCHAR Ldot
ENCODING 319
SWIDTH 600 0
DWIDTH 22 0
BBX 17 24 4 0
BITMAP
F80000
F80000
F80000
F80000
F80000
F80000
F80000
F80000
F81E00
F83F00
F83F00
F83F80
F83F80
F83F00
F81E00
F80000
F80000
F80000
F80000
F80000
FFFF00
FFFF00
FFFF00
FFFF00
ENDCHAR
STARTCHAR ldot
ENCODING 320
SWIDTH 600 0
DWIDTH 22 0
BBX 24 26 0 0
BITMAP
FFE000
FFE000
FFE000
FFE000
03E000
03E000
03E000
03E000
03E000
03E000
03E03C
03E07E
03E07E
03E0FF
03E07E
03E07E
03E03C
03E000
03E000
03E000
03E000
03F080
03FF80
01FF80
00FFC0
007F00
ENDCHAR
STARTCHAR Lslash
ENCODING 321
SWIDTH 600 0
DWIDTH 22 0
BBX 20 24 0 0
BITMAP
0F8000
0F8000
0F8000
0F8000
0F8000
0F8000
0F8100
0F8700
0F8F80
0FBF80
0FFF00
0FFC00
1FF000
7FE000
FF8000
FF8000
7F8000
4F8000
0F8000
0F8000
0FFFF0
0FFFF0
0FFFF0
0FFFF0
ENDCHAR
STARTCHAR lslash
ENCODING 322
SWIDTH 600 0
DWIDTH 22 0
BBX 18 26 2 0
BITMAP
FFE000
FFE000
FFE000
FFE000
07E000
07E000
07E200
07E700
07FF00
07FF80
07FE00
0FFC00
1FF000
7FE000
7FE000
3FE000
27E000
07E000
07E000
07E000
03E000
03F100
03FF80
01FF80
00FF80
007F40
ENDCHAR
STARTCHAR Nacute
ENCODING 323
SWIDTH 600 0
DWIDTH 22 0
BBX 17 32 2 0
BITMAP
001000
003800
007C00
00FC00
03F800
07F000
01C000
018000
FC0F80
FC0F80
FE0F80
FE0F80
FF0F80
FF0F80
FF0F80
FF8F80
FF8F80
FBCF80
FBCF80
F9EF80
F9EF80
F9EF80
F8F780
F8F780
F87780
F87F80
F83F80
F83F80
F83F80
F81F80
F81F80
F80F80
ENDCHAR
STARTCHAR nacute
ENCODING 324
SWIDTH 600 0
DWIDTH 22 0
BBX 16 29 3 0
BITMAP
0010
0038
007C
00FE
01F8
03F0
03E0
01C0
0080
0000
0000
F0F8
F3FE
F7FE
FFFF
FE3F
FC1F
F81F
F81F
F81F
F81F
F81F
F81F
F81F
F81F
F81F
F81F
F81F
F81F
ENDCHAR
STARTCHAR uni0145
ENCODING 325
SWIDTH 600 0
DWIDTH 22 0
BBX 17 33 2 -9
BITMAP
FC0F80
FC0F80
FE0F80
FE0F80
FF0F80
FF0F80
FF0F80
FF8F80
FF8F80
FBCF80
FBCF80
F9EF80
F9EF80
F9EF80
F8F780
F8F780
F87780
F87F80
F83F80
F83F80
F83F80
F81F80
F81F80
F80F80
000000
000000
01C000
03F000
00F000
00F000
00F000
07E000
078000
ENDCHAR
STARTCHAR uni0146
ENCODING 326
SWIDTH 600 0
DWIDTH 22 0
BBX 16 27 3 -9
BITMAP
F0F8
F3FE
F7FE
FFFF
FE3F
FC1F
F81F
F81F
F81F
F81F
F81F
F81F
F81F
F81F
F81F
F81F
F81F
F81F
0000
0000
0380
03E0
05E0
00E0
01E0
0FC0
0F00
ENDCHAR
STARTCHAR Ncaron
ENCODING 327
SWIDTH 600 0
DWIDTH 22 0
BBX 17 30 2 0
BITMAP
0C0C00
1E1E00
0FBC00
07F800
03F000
000000
FC0F80
FC0F80
FE0F80
FE0F80
FF0F80
FF0F80
FF0F80
FF8F80
FF8F80
FBCF80
FBCF80
F9EF80
F9EF80
F9EF80
F8F780
F8F780
F87780
F87F80
F83F80
F83F80
F83F80
F81F80
F81F80
F80F80
ENDCHAR
STARTCHAR ncaron
ENCODING 328
SWIDTH 600 0
DWIDTH 22 0
BBX 16 28 3 0
BITMAP
1008
3C1C
3E3E
1FFC
0FF8
0FF0
07E0
0000
0000
0000
F0F8
F3FE
F7FE
FFFF
FE3F
FC1F
F81F
F81F
F81F
F81F
F81F
F81F
F81F
F81F
F81F
F81F
F81F
F81F
ENDCHAR
STARTCHAR napostrophe
ENCODING 329
SWIDTH 600 0
DWIDTH 22 0
BBX 25 25 -2 0
BITMAP
3C000000
7E000000
FE000000
FF000000
FF000000
7F000000
3F000000
0F3C3C00
0F3CFF00
1E3DFF00
1E3FFF80
7C3F9F80
F83F0F80
703E0F80
403E0F80
003E0F80
003E0F80
003E0F80
003E0F80
003E0F80
003E0F80
003E0F80
003E0F80
003E0F80
003E0F80
ENDCHAR
STARTCHAR Eng
ENCODING 330
SWIDTH 600 0
DWIDTH 22 0
BBX 18 24 2 0
BITMAP
F8F800
F9FE00
FBFF00
FFFF00
FF1F80
FE0F80
FC0F80
FC0FC0
FC0FC0
FC0FC0
FC07C0
FC07C0
FC07C0
FC07C0
FC07C0
FC0FC0
FC0FC0
FC0FC0
FC0F80
FC1F80
FC7F80
FC7F00
FCFE00
FCFC00
ENDCHAR
STARTCHAR eng
ENCODING 331
SWIDTH 600 0
DWIDTH 22 0
BBX 16 25 3 -7
BITMAP
F0F8
F3FE
F7FE
FFFF
FE3F
FC1F
F81F
F81F
F81F
F81F
F81F
F81F
F81F
F81F
F81F
F81F
F81F
F81F
001F
001F
001F
00FF
00FE
01FE
01F8
ENDCHAR
STARTCHAR Omacron
ENCODING 332
SWIDTH 600 0
DWIDTH 22 0
BBX 19 29 1 0
BITMAP
0FFE00
0FFE00
0FFE00
000000
000000
01F800
07FE00
1FFF00
1FFF80
3F1FC0
7E0FC0
7E07C0
7C07E0
7C03E0
FC03E0
FC03E0
FC03E0
FC03E0
FC03E0
7C03E0
7C07E0
7C07E0
7E07C0
3E0FC0
3F1FC0
1FFF80
1FFF00
07FE00
01F800
ENDCHAR
STARTCHAR omacron
ENCODING 333
SWIDTH 600 0
DWIDTH 22 0
BBX 18 24 2 0
BITMAP
1FFC00
1FFC00
1FFC00
000000
000000
000000
03F000
0FFC00
3FFE00
7FFF00
7E1F80
FC0F80
F80FC0
F80FC0
F80FC0
F80FC0
F80FC0
F80FC0
FC0F80
7E1F80
7FFF00
3FFE00
0FFC00
03F000
ENDCHAR
STARTCHAR Obreve
ENCODING 334
SWIDTH 600 0
DWIDTH 22 0
BBX 19 30 1 0
BITMAP
0E0700
0F0E00
07FE00
07FC00
01F800
000000
01F800
07FE00
1FFF00
1FFF80
3F1FC0
7E0FC0
7E07C0
7C07E0
7C03E0
FC03E0
FC03E0
FC03E0
FC03E0
FC03E0
7C03E0
7C07E0
7C07E0
7E07C0
3E0FC0
3F1FC0
1FFF80
1FFF00
07FE00
01F800
ENDCHAR
STARTCHAR obreve
ENCODING 335
SWIDTH 600 0
DWIDTH 22 0
BBX 18 27 2 0
BITMAP
041000
1C0E00
1E1E00
1FFC00
0FF800
03F000
000000
000000
000000
03F000
0FFC00
3FFE00
7FFF00
7E1F80
FC0F80
F80FC0
F80FC0
F80FC0
F80FC0
F80FC0
F80FC0
FC0F80
7E1F80
7FFF00
3FFE00
0FFC00
03F000
ENDCHAR
STARTCHAR Ohungarumlaut
ENCODING 336
SWIDTH 600 0
DWIDTH 22 0
BBX 19 32 1 0
BITMAP
008100
01E3C0
01F3E0
03C780
03CF00
078E00
030600
000000
01F800
07FE00
1FFF00
1FFF80
3F1FC0
7E0FC0
7E07C0
7C07E0
7C03E0
FC03E0
FC03E0
FC03E0
FC03E0
FC03E0
7C03E0
7C07E0
7C07E0
7E07C0
3E0FC0
3F1FC0
1FFF80
1FFF00
07FE00
01F800
ENDCHAR
STARTCHAR ohungarumlaut
ENCODING 337
SWIDTH 600 0
DWIDTH 22 0
BBX 18 28 2 0
BITMAP
010600
01E780
03C780
03CF00
078E00
071E00
0F1C00
020C00
000000
000000
03F000
0FFC00
3FFE00
7FFF00
7E1F80
FC0F80
F80FC0
F80FC0
F80FC0
F80FC0
F80FC0
F80FC0
FC0F80
7E1F80
7FFF00
3FFE00
0FFC00
03F000
ENDCHAR
STARTCHAR OE
ENCODING 338
SWIDTH 600 0
DWIDTH 22 0
BBX 20 24 1 0
BITMAP
03FFF0
0FFFF0
1FFFF0
3FFFF0
7E3C00
7C3C00
FC3C00
FC3C00
F83C00
F83C00
F83FE0
F83FE0
F83FE0
F83FE0
F83C00
F83C00
FC3C00
FC3C00
7C3C00
7E3C00
3FFFF0
1FFFF0
0FFFF0
03FFF0
ENDCHAR
STARTCHAR oe
ENCODING 339
SWIDTH 600 0
DWIDTH 22 0
BBX 21 18 0 0
BITMAP
0783C0
1FCFE0
3FEFF0
3FFFF0
7CFC78
7C7878
787878
F87FF8
F87FF8
F87FF8
F87FF8
787800
7C7800
7CFC20
3FFFF0
3FEFF0
1FCFF8
0783E0
ENDCHAR
STARTCHAR Racute
ENCODING 340
SWIDTH 600 0
DWIDTH 22 0
BBX 18 32 3 0
BITMAP
002000
006000
01F000
03F800
07F000
0FC000
078000
020000
FFF000
FFFC00
FFFE00
FFFF00
F83F00
F81F80
F80F80
F80F80
F80F80
F81F80
F83F00
FFFF00
FFFE00
FFFC00
FFF800
F8F800
F8FC00
F87E00
F87E00
F83F00
F83F00
F81F80
F81F80
F80FC0
ENDCHAR
STARTCHAR racute
ENCODING 341
SWIDTH 600 0
DWIDTH 22 0
BBX 16 29 4 0
BITMAP
0010
0038
007C
00FE
01FC
01F0
03E0
01C0
0080
0000
0000
F87E
F9FF
FBFE
FFFE
FF82
FE00
FC00
FC00
F800
F800
F800
F800
F800
F800
F800
F800
F800
F800
ENDCHAR
STARTCHAR uni0156
ENCODING 342
SWIDTH 600 0
DWIDTH 22 0
BBX 18 33 3 -9
BITMAP
FFF000
FFFC00
FFFE00
FFFF00
F83F00
F81F80
F80F80
F80F80
F80F80
F81F80
F83F00
FFFF00
FFFE00
FFFC00
FFF800
F8F800
F8FC00
F87E00
F87E00
F83F00
F83F00
F81F80
F81F80
F80FC0
000000
000000
01C000
03E000
00F000
00F000
01F000
0FE000
078000
ENDCHAR
STARTCHAR uni0157
ENCODING 343
SWIDTH 600 0
DWIDTH 22 0
BBX 17 27 3 -9
BITMAP
7C3F00
7CFF80
7DFF00
7FFF00
7FC100
7F0000
7E0000
7E0000
7C0000
7C0000
7C0000
7C0000
7C0000
7C0000
7C0000
7C0000
7C0000
7C0000
000000
000000
380000
3E0000
5E0000
0E0000
1E0000
FC0000
F00000
ENDCHAR
STARTCHAR Rcaron
ENCODING 344
SWIDTH 600 0
DWIDTH 22 0
BBX 18 30 3 0
BITMAP
181800
3C3C00
1EF800
0FF000
07E000
000000
FFF000
FFFC00
FFFE00
FFFF00
F83F00
F81F80
F80F80
F80F80
F80F80
F81F80
F83F00
FFFF00
FFFE00
FFFC00
FFF800
F8F800
F8FC00
F87E00
F87E00
F83F00
F83F00
F81F80
F81F80
F80FC0
ENDCHAR
STARTCHAR rcaron
ENCODING 345
SWIDTH 600 0
DWIDTH 22 0
BBX 16 28 4 0
BITMAP
180C
3C1E
3E3E
1F7C
0FF8
07F0
07F0
0000
0000
0000
F87E
F9FF
FBFE
FFFE
FF82
FE00
FC00
FC00
F800
F800
F800
F800
F800
F800
F800
F800
F800
F800
ENDCHAR
STARTCHAR Sacute
ENCODING 346
SWIDTH 600 0
DWIDTH 22 0
BBX 18 32 2 0
BITMAP
001000
003800
007C00
00FE00
01F800
03F000
01C000
008000
03F800
0FFE00
1FFF80
3FFF00
7E0F00
7C0200
7C0000
7E0000
7F0000
7FC000
3FF800
1FFE00
0FFF00
03FF80
007F80
001FC0
000FC0
000FC0
300FC0
7C1F80
FFFF80
FFFF00
3FFE00
07F000
ENDCHAR
STARTCHAR sacute
ENCODING 347
SWIDTH 600 0
DWIDTH 22 0
BBX 17 29 2 0
BITMAP
001000
001C00
003E00
007F00
00FC00
01F800
03F000
01E000
00C000
000000
000000
07F800
1FFE00
3FFF80
7FFF00
7E0E00
7C0200
7F0000
3FF800
3FFE00
0FFF00
01FF80
001F80
200F80
7C0F80
FFFF80
FFFF00
3FFE00
07F800
ENDCHAR
STARTCHAR Scircumflex
ENCODING 348
SWIDTH 600 0
DWIDTH 22 0
BBX 18 30 2 0
BITMAP
03F800
07FC00
0FBE00
0F1E00
140500
000000
03F800
0FFE00
1FFF80
3FFF00
7E0F00
7C0200
7C0000
7E0000
7F0000
7FC000
3FF800
1FFE00
0FFF00
03FF80
007F80
001FC0
000FC0
000FC0
300FC0
7C1F80
FFFF80
FFFF00
3FFE00
07F000
ENDCHAR
STARTCHAR scircumflex
ENCODING 349
SWIDTH 600 0
DWIDTH 22 0
BBX 17 27 2 0
BITMAP
03F000
07F800
07FC00
0FFE00
1F1E00
1E0F00
080400
000000
000000
07F800
1FFE00
3FFF80
7FFF00
7E0E00
7C0200
7F0000
3FF800
3FFE00
0FFF00
01FF80
001F80
200F80
7C0F80
FFFF80
FFFF00
3FFE00
07F800
ENDCHAR
STARTCHAR uni015E
ENCODING 350
SWIDTH 600 0
DWIDTH 22 0
BBX 18 33 2 -9
BITMAP
03F800
0FFE00
1FFF80
3FFF00
7E0F00
7C0200
7C0000
7E0000
7F0000
7FC000
3FF800
1FFE00
0FFF00
03FF80
007F80
001FC0
000FC0
000FC0
300FC0
7C1F80
FFFF80
FFFF00
3FFE00
07F000
01E000
01C000
01C000
03E000
00F000
007000
00F000
07E000
078000
ENDCHAR
STARTCHAR uni015F
ENCODING 351
SWIDTH 600 0
DWIDTH 22 0
BBX 17 27 2 -9
BITMAP
07F800
1FFE00
3FFF80
7FFF00
7E0E00
7C0200
7F0000
3FF800
3FFE00
0FFF00
01FF80
001F80
200F80
7C0F80
FFFF80
FFFF00
3FFE00
07F800
00E000
01C000
01C000
03E000
00F000
007800
00F000
07F000
078000
ENDCHAR
STARTCHAR Scaron
ENCODING 352
SWIDTH 600 0
DWIDTH 22 0
BBX 18 30 2 0
BITMAP
040400
1F1F00
0FBE00
07FC00
03F800
000000
03F800
0FFE00
1FFF80
3FFF00
7E0F00
7C0200
7C0000
7E0000
7F0000
7FC000
3FF800
1FFE00
0FFF00
03FF80
007F80
001FC0
000FC0
000FC0
300FC0
7C1F80
FFFF80
FFFF00
3FFE00
07F000
ENDCHAR
STARTCHAR scaron
ENCODING 353
SWIDTH 600 0
DWIDTH 22 0
BBX 17 28 2 0
BITMAP
080400
1E0E00
1F1F00
0FFE00
07FC00
07F800
03F000
000000
000000
000000
07F800
1FFE00
3FFF80
7FFF00
7E0E00
7C0200
7F0000
3FF800
3FFE00
0FFF00
01FF80
001F80
200F80
7C0F80
FFFF80
FFFF00
3FFE00
07F800
ENDCHAR
STARTCHAR uni0162
ENCODING 354
SWIDTH 600 0
DWIDTH 22 0
BBX 19 33 1 -9
BITMAP
FFFFE0
FFFFE0
FFFFE0
FFFFE0
01F000
01F000
01F000
01F000
01F000
01F000
01F000
01F000
01F000
01F000
01F000
01F000
01F000
01F000
01F000
01F000
01F000
01F000
01F000
01F000
00E000
00E000
01E000
01F000
007800
007800
007800
03F000
03C000
ENDCHAR
STARTCHAR uni0163
ENCODING 355
SWIDTH 600 0
DWIDTH 22 0
BBX 18 32 2 -9
BITMAP
07C000
07C000
07C000
07C000
07C000
FFFF80
FFFF80
FFFF80
FFFF80
0FC000
0FC000
0FC000
0FC000
0FC000
0FC000
0FC000
0FC000
0FC000
07E080
07FF80
03FF80
01FFC0
00FF00
003800
007800
007000
007C00
00BE00
001E00
003E00
01FC00
00F000
ENDCHAR
STARTCHAR Tcaron
ENCODING 356
SWIDTH 600 0
DWIDTH 22 0
BBX 19 30 1 0
BITMAP
060400
0F0F00
07BE00
03FC00
03F800
000000
FFFFE0
FFFFE0
FFFFE0
FFFFE0
01F000
01F000
01F000
01F000
01F000
01F000
01F000
01F000
01F000
01F000
01F000
01F000
01F000
01F000
01F000
01F000
01F000
01F000
01F000
01F000
ENDCHAR
STARTCHAR tcaron
ENCODING 357
SWIDTH 600 0
DWIDTH 22 0
BBX 18 30 2 0
BITMAP
000F00
000F00
000F00
000F00
000F00
000F00
000F00
07CF00
07CF00
07CE00
07C000
07C000
FFFF80
FFFF80
FFFF80
FFFF80
0FC000
0FC000
0FC000
0FC000
0FC000
0FC000
0FC000
0FC000
0FC000
07E080
07FF80
03FF80
01FFC0
00FF00
ENDCHAR
STARTCHAR Tbar
ENCODING 358
SWIDTH 600 0
DWIDTH 22 0
BBX 19 24 1 0
BITMAP
FFFFE0
FFFFE0
FFFFE0
FFFFE0
01F000
01F000
01F000
01F000
01F000
01F000
01F000
3FFF80
3FFF80
3FFF80
01F000
01F000
01F000
01F000
01F000
01F000
01F000
01F000
01F000
01F000
ENDCHAR
STARTCHAR tbar
ENCODING 359
SWIDTH 600 0
DWIDTH 22 0
BBX 18 23 2 0
BITMAP
07C000
07C000
07C000
07C000
07C000
FFFF80
FFFF80
FFFF80
FFFF80
0FC000
0FC000
0FC000
FFFF00
FFFF00
FFFF00
0FC000
0FC000
0FC000
07E080
07FF80
03FF80
01FFC0
00FF00
ENDCHAR
STARTCHAR Utilde
ENCODING 360
SWIDTH 600 0
DWIDTH 22 0
BBX 17 31 2 0
BITMAP
0F0E00
1FCF00
3FFF00
3FFE00
38FE00
187800
000000
FC0F80
FC0F80
FC0F80
FC0F80
FC0F80
FC0F80
FC0F80
FC0F80
FC0F80
FC0F80
FC0F80
FC0F80
FC0F80
FC0F80
FC0F80
FC0F80
FC0F80
7C0F80
7C0F80
7E1F00
3FFF00
3FFE00
1FFC00
03F000
ENDCHAR
STARTCHAR utilde
ENCODING 361
SWIDTH 600 0
DWIDTH 22 0
BBX 17 27 2 0
BITMAP
020000
1F8F00
1FCE00
3FFE00
3DFE00
38FC00
387800
000000
000000
FC0F80
FC0F80
FC0F80
FC0F80
FC0F80
FC0F80
FC0F80
FC0F80
FC0F80
FC0F80
FC0F80
FC1F80
FC1F80
FC3F80
7FFF80
7FFF80
3FCF80
1F8780
ENDCHAR
STARTCHAR Umacron
ENCODING 362
SWIDTH 600 0
DWIDTH 22 0
BBX 17 29 2 0
BITMAP
1FFC00
1FFC00
1FFC00
000000
000000
FC0F80
FC0F80
FC0F80
FC0F80
FC0F80
FC0F80
FC0F80
FC0F80
FC0F80
FC0F80
FC0F80
FC0F80
FC0F80
FC0F80
FC0F80
FC0F80
FC0F80
7C0F80
7C0F80
7E1F00
3FFF00
3FFE00
1FFC00
03F000
ENDCHAR
STARTCHAR umacron
ENCODING 363
SWIDTH 600 0
DWIDTH 22 0
BBX 17 24 2 0
BITMAP
1FFC00
1FFC00
1FFC00
000000
000000
000000
FC0F80
FC0F80
FC0F80
FC0F80
FC0F80
FC0F80
FC0F80
FC0F80
FC0F80
FC0F80
FC0F80
FC1F80
FC1F80
FC3F80
7FFF80
7FFF80
3FCF80
1F8780
ENDCHAR
STARTCHAR Ubreve
ENCODING 364
SWIDTH 600 0
DWIDTH 22 0
BBX 17 30 2 0
BITMAP
1C0E00
1E1C00
0FFC00
0FF800
03F000
000000
FC0F80
FC0F80
FC0F80
FC0F80
FC0F80
FC0F80
FC0F80
FC0F80
FC0F80
FC0F80
FC0F80
FC0F80
FC0F80
FC0F80
FC0F80
FC0F80
FC0F80
7C0F80
7C0F80
7E1F00
3FFF00
3FFE00
1FFC00
03F000
ENDCHAR
STARTCHAR ubreve
ENCODING 365
SWIDTH 600 0
DWIDTH 22 0
BBX 17 27 2 0
BITMAP
041000
1C1E00
1E1E00
1FFC00
0FF800
03F000
000000
000000
000000
FC0F80
FC0F80
FC0F80
FC0F80
FC0F80
FC0F80
FC0F80
FC0F80
FC0F80
FC0F80
FC0F80
FC1F80
FC1F80
FC3F80
7FFF80
7FFF80
3FCF80
1F8780
ENDCHAR
STARTCHAR Uring
ENCODING 366
SWIDTH 600 0
DWIDTH 22 0
BBX 17 32 2 0
BITMAP
01E000
07F000
073800
063800
073800
07F000
03E000
000000
FC0F80
FC0F80
FC0F80
FC0F80
FC0F80
FC0F80
FC0F80
FC0F80
FC0F80
FC0F80
FC0F80
FC0F80
FC0F80
FC0F80
FC0F80
FC0F80
FC0F80
7C0F80
7C0F80
7E1F00
3FFF00
3FFE00
1FFC00
03F000
ENDCHAR
STARTCHAR uring
ENCODING 367
SWIDTH 600 0
DWIDTH 22 0
BBX 17 27 2 0
BITMAP
03E000
07F800
0F3800
0E3800
0F3800
07F800
03E000
000000
000000
FC0F80
FC0F80
FC0F80
FC0F80
FC0F80
FC0F80
FC0F80
FC0F80
FC0F80
FC0F80
FC0F80
FC1F80
FC1F80
FC3F80
7FFF80
7FFF80
3FCF80
1F8780
ENDCHAR
STARTCHAR Uhungarumlaut
ENCODING 368
SWIDTH 600 0
DWIDTH 22 0
BBX 18 32 2 0
BITMAP
010200
03C780
03E7C0
078F00
079E00
0F1C00
060C00
000000
FC0F80
FC0F80
FC0F80
FC0F80
FC0F80
FC0F80
FC0F80
FC0F80
FC0F80
FC0F80
FC0F80
FC0F80
FC0F80
FC0F80
FC0F80
FC0F80
FC0F80
7C0F80
7C0F80
7E1F00
3FFF00
3FFE00
1FFC00
03F000
ENDCHAR
STARTCHAR uhungarumlaut
ENCODING 369
SWIDTH 600 0
DWIDTH 22 0
BBX 17 28 2 0
BITMAP
010600
03C780
03EF80
07CF00
079E00
071E00
0F1C00
022C00
000000
000000
FC0F80
FC0F80
FC0F80
FC0F80
FC0F80
FC0F80
FC0F80
FC0F80
FC0F80
FC0F80
FC0F80
FC1F80
FC1F80
FC3F80
7FFF80
7FFF80
3FCF80
1F8780
ENDCHAR
STARTCHAR Uogonek
ENCODING 370
SWIDTH 600 0
DWIDTH 22 0
BBX 17 32 2 -8
BITMAP
FC0F80
FC0F80
FC0F80
FC0F80
FC0F80
FC0F80
FC0F80
FC0F80
FC0F80
FC0F80
FC0F80
FC0F80
FC0F80
FC0F80
FC0F80
FC0F80
FC0F80
7C0F80
7C0F80
7E1F00
3FFF00
3FFE00
1FFC00
07F000
01E000
03C000
038000
07D000
07F800
03F800
03F800
01F000
ENDCHAR
STARTCHAR uogonek
ENCODING 371
SWIDTH 600 0
DWIDTH 22 0
BBX 18 27 2 -9
BITMAP
FC0F80
FC0F80
FC0F80
FC0F80
FC0F80
FC0F80
FC0F80
FC0F80
FC0F80
FC0F80
FC0F80
FC1F80
FC1F80
FC3F80
7FFF80
7FFF80
3FCF80
1F8780
000E00
001C00
003800
003800
007C80
007F80
003F80
003FC0
001F00
ENDCHAR
STARTCHAR Wcircumflex
ENCODING 372
SWIDTH 600 0
DWIDTH 22 0
BBX 21 30 0 0
BITMAP
01FC00
01FE00
03DF00
078780
030300
000000
FC00F8
FC00F8
FC00F8
7C00F8
7C00F8
7C00F8
7C78F8
7C78F8
7C78F0
7C7CF0
3CFCF0
3CFCF0
3CFCF0
3CFCF0
3DDEF0
3DDEF0
3DCEE0
3DCEE0
1DCEE0
1FCFE0
1F8FE0
1F8FE0
1F87E0
1F87E0
ENDCHAR
STARTCHAR wcircumflex
ENCODING 373
SWIDTH 600 0
DWIDTH 22 0
BBX 21 27 0 0
BITMAP
00FC00
01FE00
03FE00
07FF00
078F80
0F0780
020100
000000
000000
F800F8
F800F8
7C78F8
7C78F8
7C78F8
7CF8F8
7CFCF0
7CFCF0
3CFCF0
3EDDF0
3FDDF0
3FDFF0
3FCFF0
3FCFE0
3FCFE0
1FCFE0
1F8FE0
1F8FE0
ENDCHAR
STARTCHAR Ycircumflex
ENCODING 374
SWIDTH 600 0
DWIDTH 22 0
BBX 20 30 1 0
BITMAP
03F800
03FC00
07BE00
0F0F00
060600
000000
F803F0
FC03E0
7C07E0
7E07C0
3E07C0
3F0F80
1F0F80
1F1F00
0F9F00
0F9F00
07BE00
07FE00
03FC00
03FC00
03F800
01F800
01F000
01F000
01F000
01F000
01F000
01F000
01F000
01F000
ENDCHAR
STARTCHAR ycircumflex
ENCODING 375
SWIDTH 600 0
DWIDTH 22 0
BBX 20 34 1 -7
BITMAP
01F800
03FC00
07FE00
07FF00
0F9F00
1E0780
040200
000000
000000
FC03F0
7C03E0
7C03E0
3E07C0
3E07C0
1F0780
1F0F80
0F0F80
0F8F00
0F9F00
079F00
07DE00
03FE00
03FC00
01FC00
01FC00
00F800
00F800
01F000
01F000
03E000
3FE000
3FC000
3F8000
7E0000
ENDCHAR
STARTCHAR Ydieresis
ENCODING 376
SWIDTH 600 0
DWIDTH 22 0
BBX 20 30 1 0
BITMAP
0E0E00
1F1F00
1F1F00
1F1F00
0E0E00
000000
F803F0
FC03E0
7C07E0
7E07C0
3E07C0
3F0F80
1F0F80
1F1F00
0F9F00
0F9F00
07BE00
07FE00
03FC00
03FC00
03F800
01F800
01F000
01F000
01F000
01F000
01F000
01F000
01F000
01F000
ENDCHAR
STARTCHAR Zacute
ENCODING 377
SWIDTH 600 0
DWIDTH 22 0
BBX 18 32 2 0
BITMAP
001000
003800
007C00
00FE00
01F800
03F000
01C000
008000
7FFFC0
7FFFC0
7FFFC0
7FFF80
001F00
003F00
007E00
007E00
00FC00
01F800
01F800
03F000
03E000
07E000
0FC000
0F8000
1F8000
3F0000
3F0000
7E0000
FFFFC0
FFFFC0
FFFFC0
FFFFC0
ENDCHAR
STARTCHAR zacute
ENCODING 378
SWIDTH 600 0
DWIDTH 22 0
BBX 16 29 3 0
BITMAP
0010
0038
007C
007E
00FC
01F8
03F0
01C0
0080
0000
0000
7FFF
7FFF
7FFF
7FFF
00FE
00FC
01F8
03F0
07E0
0FE0
1FC0
1F80
3F00
7E00
FFFF
FFFF
FFFF
FFFF
ENDCHAR
STARTCHAR Zdotaccent
ENCODING 379
SWIDTH 600 0
DWIDTH 22 0
BBX 18 31 2 0
BITMAP
00E000
01F000
03F800
03F800
01F000
00E000
000000
7FFFC0
7FFFC0
7FFFC0
7FFF80
001F00
003F00
007E00
007E00
00FC00
01F800
01F800
03F000
03E000
07E000
0FC000
0F8000
1F8000
3F0000
3F0000
7E0000
FFFFC0
FFFFC0
FFFFC0
FFFFC0
ENDCHAR
STARTCHAR zdotaccent
ENCODING 380
SWIDTH 600 0
DWIDTH 22 0
BBX 16 27 3 0
BITMAP
01E0
03F0
07F0
07F0
07F0
03F0
01E0
0000
0000
7FFF
7FFF
7FFF
7FFF
00FE
00FC
01F8
03F0
07E0
0FE0
1FC0
1F80
3F00
7E00
FFFF
FFFF
FFFF
FFFF
ENDCHAR
STARTCHAR Zcaron
ENCODING 381
SWIDTH 600 0
DWIDTH 22 0
BBX 18 30 2 0
BITMAP
040400
1F1F00
0FBE00
07FC00
03F800
000000
7FFFC0
7FFFC0
7FFFC0
7FFF80
001F00
003F00
007E00
007E00
00FC00
01F800
01F800
03F000
03E000
07E000
0FC000
0F8000
1F8000
3F0000
3F0000
7E0000
FFFFC0
FFFFC0
FFFFC0
FFFFC0
ENDCHAR
STARTCHAR zcaron
ENCODING 382
SWIDTH 600 0
DWIDTH 22 0
BBX 16 28 3 0
BITMAP
0804
1C1E
3E3E
1FFC
0FF8
07F8
03F0
0000
0000
0000
7FFF
7FFF
7FFF
7FFF
00FE
00FC
01F8
03F0
07E0
0FE0
1FC0
1F80
3F00
7E00
FFFF
FFFF
FFFF
FFFF
ENDCHAR
STARTCHAR longs
ENCODING 383
SWIDTH 600 0
DWIDTH 22 0
BBX 18 26 3 0
BITMAP
007F80
01FFC0
03FFC0
03FF80
07E080
07C000
07C000
07C000
FFC000
FFC000
FFC000
FFC000
07C000
07C000
07C000
07C000
07C000
07C000
07C000
07C000
07C000
07C000
07C000
07C000
07C000
07C000
ENDCHAR
STARTCHAR uni0180
ENCODING 384
SWIDTH 600 0
DWIDTH 22 0
BBX 20 26 0 0
BITMAP
1F0000
1F0000
1F0000
FFFC00
FFFC00
FFFC00
1F0000
1F0000
1F3E00
1FFF80
1FFFC0
1FFFE0
1FC7E0
1F03F0
1F03F0
1F03F0
1F03F0
1F03F0
1F03F0
1F03F0
1F03E0
1FC7E0
1FFFC0
1FFFC0
1EFF80
1E3E00
ENDCHAR
STARTCHAR uni018A
ENCODING 394
SWIDTH 600 0
DWIDTH 22 0
BBX 21 24 0 0
BITMAP
03FC00
1FFF00
3FFFC0
7FFFE0
7DF7E0
F9F3F0
F1F1F0
F1F1F0
F1F0F8
F9F0F8
F9F0F8
7DF0F8
39F0F8
19F0F8
01F0F8
01F0F8
01F0F0
01F1F0
01F1F0
01F3E0
01FFE0
01FFC0
01FF80
01FE00
ENDCHAR
STARTCHAR uni018F
ENCODING 399
SWIDTH 600 0
DWIDTH 22 0
BBX 18 24 2 0
BITMAP
07F000
1FFC00
3FFE00
1FFF00
0C3F00
080F80
000F80
000FC0
0007C0
0007C0
FFFFC0
FFFFC0
FFFFC0
FFFFC0
F807C0
F807C0
F80FC0
7C0F80
7C0F80
7E1F00
3FFF00
1FFE00
0FFC00
03F000
ENDCHAR
STARTCHAR uni0192
ENCODING 402
SWIDTH 600 0
DWIDTH 22 0
BBX 18 27 2 -3
BITMAP
001F80
007FC0
00FF80
00FF80
01F800
01F000
01F000
01F000
01F000
1FFF00
1FFF00
1FFF00
1FFF00
03E000
03E000
03E000
03E000
03E000
07C000
07C000
07C000
07C000
0FC000
FF8000
FF8000
FF0000
FC0000
ENDCHAR
STARTCHAR uni0193
ENCODING 403
SWIDTH 600 0
DWIDTH 22 0
BBX 20 29 2 0
BITMAP
0003F0
0007F0
000FE0
000FE0
000F80
01FF00
07FF00
1FFF80
3FFF80
3F0700
7E0200
7C0000
FC0000
FC0000
F80000
F80000
F83FC0
F83FC0
F83FC0
F83FC0
F807C0
FC07C0
FC07C0
7E07C0
3F07C0
3FFFC0
1FFF80
07FF00
01FC00
ENDCHAR
STARTCHAR Ohorn
ENCODING 416
SWIDTH 600 0
DWIDTH 22 0
BBX 20 30 1 0
BITMAP
000030
0000F0
0001F0
0000F0
0000F0
0000F0
01F9E0
07FFC0
1FFF00
1FFF80
3F1FC0
7E0FC0
7E07E0
7C07E0
7C03E0
FC03E0
FC03E0
FC03E0
FC03E0
FC03E0
7C03E0
7C07E0
7C07E0
7E07C0
3E0FC0
3F1FC0
1FFF80
1FFF00
07FE00
01F800
ENDCHAR
STARTCHAR ohorn
ENCODING 417
SWIDTH 600 0
DWIDTH 22 0
BBX 19 25 2 0
BITMAP
000060
0001E0
0003E0
0001E0
0001E0
0001E0
0003E0
03F7C0
0FFF80
3FFE00
7FFF00
7E1F80
FC0F80
F80FC0
F80FC0
F80FC0
F80FC0
F80FC0
F80FC0
FC0F80
7E1F80
7FFF00
3FFE00
0FFC00
03F000
ENDCHAR
STARTCHAR Uhorn
ENCODING 431
SWIDTH 600 0
DWIDTH 22 0
BBX 22 31 2 0
BITMAP
000008
000078
00007C
00007C
00007C
00007C
0000F8
FC0FF0
FC0FE0
FC0F80
FC0F80
FC0F80
FC0F80
FC0F80
FC0F80
FC0F80
FC0F80
FC0F80
FC0F80
FC0F80
FC0F80
FC0F80
FC0F80
FC0F80
7C0F80
7C0F80
7E1F00
3FFF00
3FFE00
1FFC00
03F000
ENDCHAR
STARTCHAR uhorn
ENCODING 432
SWIDTH 600 0
DWIDTH 22 0
BBX 20 25 2 0
BITMAP
000030
0000F0
0001F0
0000F0
0000F0
0000F0
0001E0
FC0FC0
FC0F80
FC0F80
FC0F80
FC0F80
FC0F80
FC0F80
FC0F80
FC0F80
FC0F80
FC0F80
FC1F80
FC1F80
FC3F80
7FFF80
7FFF80
3FCF80
1F8780
ENDCHAR
STARTCHAR uni01C2
ENCODING 450
SWIDTH 600 0
DWIDTH 22 0
BBX 17 33 2 -7
BITMAP
03E000
03E000
03E000
03E000
03E000
03E000
03E000
03E000
03E000
03E000
03E000
FFFF80
FFFF80
FFFF80
03E000
03E000
03E000
03E000
FFFF80
FFFF80
FFFF80
03E000
03E000
03E000
03E000
03E000
03E000
03E000
03E000
03E000
03E000
03E000
03E000
ENDCHAR
STARTCHAR uni01CD
ENCODING 461
SWIDTH 600 0
DWIDTH 22 0
BBX 21 30 0 0
BITMAP
030200
078780
03DF00
01FE00
01FC00
000000
01FC00
01FC00
01FE00
01FE00
03FE00
03DF00
03DF00
07CF00
07CF80
078F80
0F8F80
0F8780
0F87C0
0F07C0
1FFFC0
1FFFE0
1FFFE0
3FFFE0
3E03F0
3E01F0
7E01F0
7C01F8
7C01F8
FC00F8
ENDCHAR
STARTCHAR uni01CE
ENCODING 462
SWIDTH 600 0
DWIDTH 22 0
BBX 17 28 2 0
BITMAP
0C0600
1E0F00
1F1F00
0FBE00
07FC00
03F800
03F800
000000
000000
000000
07F800
3FFE00
7FFF00
3FFF00
383F80
201F80
000F80
01FF80
0FFF80
3FFF80
7FFF80
FE0F80
F80F80
FC1F80
FFFF80
7FFF80
3FE780
1F8780
ENDCHAR
STARTCHAR uni01CF
ENCODING 463
SWIDTH 600 0
DWIDTH 22 0
BBX 16 30 3 0
BITMAP
1810
3C3C
1EF8
0FF0
0FE0
0000
FFFF
FFFF
FFFF
FFFF
07C0
07C0
07C0
07C0
07C0
07C0
07C0
07C0
07C0
07C0
07C0
07C0
07C0
07C0
07C0
07C0
FFFF
FFFF
FFFF
FFFF
ENDCHAR
STARTCHAR uni01D0
ENCODING 464
SWIDTH 600 0
DWIDTH 22 0
BBX 16 28 3 0
BITMAP
0C06
1E0F
1F1F
0FBE
07FC
03F8
03F8
0000
0000
0000
FFF0
FFF0
FFF0
FFF0
01F0
01F0
01F0
01F0
01F0
01F0
01F0
01F0
01F0
01F0
01F0
01F0
01F0
01F0
ENDCHAR
STARTCHAR uni01D1
ENCODING 465
SWIDTH 600 0
DWIDTH 22 0
BBX 19 30 1 0
BITMAP
060400
0F0F00
07BE00
03FC00
03F800
000000
01F800
07FE00
1FFF00
1FFF80
3F1FC0
7E0FC0
7E07C0
7C07E0
7C03E0
FC03E0
FC03E0
FC03E0
FC03E0
FC03E0
7C03E0
7C07E0
7C07E0
7E07C0
3E0FC0
3F1FC0
1FFF80
1FFF00
07FE00
01F800
ENDCHAR
STARTCHAR uni01D2
ENCODING 466
SWIDTH 600 0
DWIDTH 22 0
BBX 18 28 2 0
BITMAP
080400
1C1E00
3E3E00
1FFC00
0FF800
07F800
03F000
000000
000000
000000
03F000
0FFC00
3FFE00
7FFF00
7E1F80
FC0F80
F80FC0
F80FC0
F80FC0
F80FC0
F80FC0
F80FC0
FC0F80
7E1F80
7FFF00
3FFE00
0FFC00
03F000
ENDCHAR
STARTCHAR uni01D3
ENCODING 467
SWIDTH 600 0
DWIDTH 22 0
BBX 17 30 2 0
BITMAP
0C0800
1E1E00
0F7C00
07F800
07F000
000000
FC0F80
FC0F80
FC0F80
FC0F80
FC0F80
FC0F80
FC0F80
FC0F80
FC0F80
FC0F80
FC0F80
FC0F80
FC0F80
FC0F80
FC0F80
FC0F80
FC0F80
7C0F80
7C0F80
7E1F00
3FFF00
3FFE00
1FFC00
03F000
ENDCHAR
STARTCHAR uni01D4
ENCODING 468
SWIDTH 600 0
DWIDTH 22 0
BBX 17 28 2 0
BITMAP
080400
1C1E00
3E3E00
1FFC00
0FF800
07F800
03F000
000000
000000
000000
FC0F80
FC0F80
FC0F80
FC0F80
FC0F80
FC0F80
FC0F80
FC0F80
FC0F80
FC0F80
FC0F80
FC1F80
FC1F80
FC3F80
7FFF80
7FFF80
3FCF80
1F8780
ENDCHAR
STARTCHAR uni01D5
ENCODING 469
SWIDTH 600 0
DWIDTH 22 0
BBX 17 33 2 0
BITMAP
1FFC00
1FFC00
000000
000000
1C1C00
1E1E00
1E1E00
1C1C00
000000
FC0F80
FC0F80
FC0F80
FC0F80
FC0F80
FC0F80
FC0F80
FC0F80
FC0F80
FC0F80
FC0F80
FC0F80
FC0F80
FC0F80
FC0F80
FC0F80
FC0F80
7C0F80
7C0F80
7E1F00
3FFF00
3FFE00
1FFC00
03F000
ENDCHAR
STARTCHAR uni01D6
ENCODING 470
SWIDTH 600 0
DWIDTH 22 0
BBX 17 29 2 0
BITMAP
1FFC00
1FFC00
000000
000000
1C1C00
1E3E00
1E3E00
1C1C00
000000
000000
000000
FC0F80
FC0F80
FC0F80
FC0F80
FC0F80
FC0F80
FC0F80
FC0F80
FC0F80
FC0F80
FC0F80
FC1F80
FC1F80
FC3F80
7FFF80
7FFF80
3FCF80
1F8780
ENDCHAR
STARTCHAR uni01D7
ENCODING 471
SWIDTH 600 0
DWIDTH 22 0
BBX 17 37 2 0
BITMAP
002000
007800
007C00
00F000
01E000
01C000
00C000
000000
1C1C00
1E1E00
1E1E00
1C1C00
000000
FC0F80
FC0F80
FC0F80
FC0F80
FC0F80
FC0F80
FC0F80
FC0F80
FC0F80
FC0F80
FC0F80
FC0F80
FC0F80
FC0F80
FC0F80
FC0F80
FC0F80
7C0F80
7C0F80
7E1F00
3FFF00
3FFE00
1FFC00
03F000
ENDCHAR
STARTCHAR uni01D8
ENCODING 472
SWIDTH 600 0
DWIDTH 22 0
BBX 17 32 2 0
BITMAP
006000
007000
00F800
00E000
01C000
008000
000000
1C1C00
1E3E00
1E3E00
1C1C00
000000
000000
000000
FC0F80
FC0F80
FC0F80
FC0F80
FC0F80
FC0F80
FC0F80
FC0F80
FC0F80
FC0F80
FC0F80
FC1F80
FC1F80
FC3F80
7FFF80
7FFF80
3FCF80
1F8780
ENDCHAR
STARTCHAR uni01D9
ENCODING 473
SWIDTH 600 0
DWIDTH 22 0
BBX 17 36 2 0
BITMAP
040800
1E3C00
0FF800
07F000
03F000
000000
000000
1C1C00
1E1E00
1E1E00
1C1C00
000000
FC0F80
FC0F80
FC0F80
FC0F80
FC0F80
FC0F80
FC0F80
FC0F80
FC0F80
FC0F80
FC0F80
FC0F80
FC0F80
FC0F80
FC0F80
FC0F80
FC0F80
7C0F80
7C0F80
7E1F00
3FFF00
3FFE00
1FFC00
03F000
ENDCHAR
STARTCHAR uni01DA
ENCODING 474
SWIDTH 600 0
DWIDTH 22 0
BBX 17 31 2 0
BITMAP
0C0800
1E3C00
0FF800
07F000
03E000
000000
1C1C00
1E3E00
1E3E00
1C1C00
000000
000000
000000
FC0F80
FC0F80
FC0F80
FC0F80
FC0F80
FC0F80
FC0F80
FC0F80
FC0F80
FC0F80
FC0F80
FC1F80
FC1F80
FC3F80
7FFF80
7FFF80
3FCF80
1F8780
ENDCHAR
STARTCHAR uni01DB
ENCODING 475
SWIDTH 600 0
DWIDTH 22 0
BBX 17 37 2 0
BITMAP
010000
070000
0F8000
07C000
03C000
01E000
008000
000000
1C1C00
1E1E00
1E1E00
1C1C00
000000
FC0F80
FC0F80
FC0F80
FC0F80
FC0F80
FC0F80
FC0F80
FC0F80
FC0F80
FC0F80
FC0F80
FC0F80
FC0F80
FC0F80
FC0F80
FC0F80
FC0F80
7C0F80
7C0F80
7E1F00
3FFF00
3FFE00
1FFC00
03F000
ENDCHAR
STARTCHAR uni01DC
ENCODING 476
SWIDTH 600 0
DWIDTH 22 0
BBX 17 32 2 0
BITMAP
010000
078000
078000
03C000
01C000
008000
000000
1C1C00
1E3E00
1E3E00
1C1C00
000000
000000
000000
FC0F80
FC0F80
FC0F80
FC0F80
FC0F80
FC0F80
FC0F80
FC0F80
FC0F80
FC0F80
FC0F80
FC1F80
FC1F80
FC3F80
7FFF80
7FFF80
3FCF80
1F8780
ENDCHAR
STARTCHAR uni01E2
ENCODING 482
SWIDTH 600 0
DWIDTH 22 0
BBX 21 29 0 0
BITMAP
007FF0
007FF0
007FF0
000000
000000
00FFF8
01FFF8
01FFF8
01FFF8
03FF00
03FF00
03DF00
07DF00
07DF00
07DF00
0F9FF0
0F9FF0
0F9FF0
1F1FF0
1FFF00
1FFF00
3FFF00
3FFF00
3E1F00
7E1F00
7C1FF8
7C1FF8
FC1FF8
F81FF8
ENDCHAR
STARTCHAR uni01E3
ENCODING 483
SWIDTH 600 0
DWIDTH 22 0
BBX 20 24 1 0
BITMAP
07FE00
07FE00
07FE00
000000
000000
000000
1F0F80
7F9FC0
FFFFE0
7FFFE0
21F8F0
00F0F0
07F0F0
1FFFF0
7FFFF0
FFFFF0
FCFFF0
F8F000
F0F000
F8F840
FFFFE0
FFBFE0
7F1FF0
3E0FC0
ENDCHAR
STARTCHAR Gcaron
ENCODING 486
SWIDTH 600 0
DWIDTH 22 0
BBX 18 30 2 0
BITMAP
060600
0F0F00
07BE00
03FC00
01F800
000000
01FC00
07FF00
1FFF80
3FFF00
3F0700
7E0200
7C0000
FC0000
FC0000
F80000
F80000
F83FC0
F83FC0
F83FC0
F83FC0
F807C0
FC07C0
FC07C0
7E07C0
3F07C0
3FFFC0
1FFF80
07FF00
01FC00
ENDCHAR
STARTCHAR gcaron
ENCODING 487
SWIDTH 600 0
DWIDTH 22 0
BBX 19 35 2 -7
BITMAP
080400
1C0E00
3F3F00
0FFC00
0FFC00
07F800
03F000
000000
000000
000000
07FFC0
1FFFC0
3FFFC0
7FFFC0
7C3FC0
7C1E00
7C1F00
7C3F00
7FFE00
3FFE00
1FFC00
3FF000
780000
780000
7FFE00
7FFF80
3FFFC0
3FFFC0
7807E0
F007C0
F80FC0
FFFFC0
FFFF80
7FFE00
0FF000
ENDCHAR
STARTCHAR uni01EA
ENCODING 490
SWIDTH 600 0
DWIDTH 22 0
BBX 19 32 1 -8
BITMAP
01F800
07FE00
0FFF00
1FFF80
3F1FC0
3E0FC0
7E07C0
7C07E0
7C03E0
FC03E0
FC03E0
FC03E0
FC03E0
FC03E0
7C03E0
7C03E0
7C07E0
7E07C0
3E0FC0
3F1FC0
1FFF80
0FFF00
07FE00
01F800
00E000
01E000
01C000
03E800
03FC00
01FC00
01FC00
00F800
ENDCHAR
STARTCHAR uni01EB
ENCODING 491
SWIDTH 600 0
DWIDTH 22 0
BBX 18 27 2 -9
BITMAP
03F000
0FFC00
3FFE00
7FFF00
7E1F80
FC0F80
FC0FC0
F80FC0
F80FC0
F80FC0
F80FC0
F80FC0
FC0F80
7E1F80
7FFF00
3FFE00
1FFC00
07F000
01C000
03C000
038000
038000
07C800
07F800
03F800
03FC00
01F000
ENDCHAR
STARTCHAR uni01F4
ENCODING 500
SWIDTH 600 0
DWIDTH 22 0
BBX 18 32 2 0
BITMAP
000800
001C00
007C00
00FE00
01FC00
03F000
01E000
008000
01FC00
07FF00
1FFF80
3FFF00
3F0700
7E0200
7C0000
FC0000
FC0000
F80000
F80000
F83FC0
F83FC0
F83FC0
F83FC0
F807C0
FC07C0
FC07C0
7E07C0
3F07C0
3FFFC0
1FFF80
07FF00
01FC00
ENDCHAR
STARTCHAR uni01F5
ENCODING 501
SWIDTH 600 0
DWIDTH 22 0
BBX 19 36 2 -7
BITMAP
001000
003800
007C00
007E00
00FC00
01F800
03F000
01E000
008000
000000
000000
07FFC0
1FFFC0
3FFFC0
7FFFC0
7C3FC0
7C1E00
7C1F00
7C3F00
7FFE00
3FFE00
1FFC00
3FF000
780000
780000
7FFE00
7FFF80
3FFFC0
3FFFC0
7807E0
F007C0
F80FC0
FFFFC0
FFFF80
7FFE00
0FF000
ENDCHAR
STARTCHAR uni01F8
ENCODING 504
SWIDTH 600 0
DWIDTH 22 0
BBX 17 32 2 0
BITMAP
020000
070000
07C000
0FE000
07F000
01F800
00F000
002000
FC0F80
FC0F80
FE0F80
FE0F80
FF0F80
FF0F80
FF0F80
FF8F80
FF8F80
FBCF80
FBCF80
F9EF80
F9EF80
F9EF80
F8F780
F8F780
F87780
F87F80
F83F80
F83F80
F83F80
F81F80
F81F80
F80F80
ENDCHAR
STARTCHAR uni01F9
ENCODING 505
SWIDTH 600 0
DWIDTH 22 0
BBX 16 29 3 0
BITMAP
0400
0E00
1F00
3F80
1FC0
0FC0
03E0
01C0
0080
0000
0000
F0F8
F3FE
F7FE
FFFF
FE3F
FC1F
F81F
F81F
F81F
F81F
F81F
F81F
F81F
F81F
F81F
F81F
F81F
F81F
ENDCHAR
STARTCHAR Aringacute
ENCODING 506
SWIDTH 600 0
DWIDTH 22 0
BBX 21 36 0 0
BITMAP
000400
000E00
001E00
007D00
00F800
01FC00
01CE00
018E00
01CE00
01FC00
00F800
000000
000000
01FC00
01FC00
01FE00
03FE00
03FE00
03DF00
03DF00
07CF00
078F80
078F80
0F8F80
0F87C0
0F07C0
1FFFC0
1FFFE0
1FFFE0
3FFFE0
3E03F0
3E01F0
7E01F0
7C01F0
7C01F8
FC00F8
ENDCHAR
STARTCHAR aringacute
ENCODING 507
SWIDTH 600 0
DWIDTH 22 0
BBX 17 31 2 0
BITMAP
001000
003800
007C00
01F000
03F800
07FC00
071C00
071C00
071C00
03F800
01F000
000000
000000
07F800
3FFE00
7FFF00
3FFF00
381F80
200F80
01FF80
0FFF80
3FFF80
7FFF80
7F0F80
FC0F80
F80F80
FC3F80
7FFF80
7FFF80
3FE780
1F8780
ENDCHAR
STARTCHAR AEacute
ENCODING 508
SWIDTH 600 0
DWIDTH 22 0
BBX 21 32 0 0
BITMAP
000080
0001C0
0003E0
000FE0
001FC0
003F00
001E00
000C00
00FFF8
01FFF8
01FFF8
01FFF8
03FF00
03FF00
03DF00
07DF00
07DF00
07DF00
0F9FF0
0F9FF0
0F9FF0
1F1FF0
1FFF00
1FFF00
3FFF00
3FFF00
3E1F00
7E1F00
7C1FF8
7C1FF8
FC1FF8
F81FF8
ENDCHAR
STARTCHAR aeacute
ENCODING 509
SWIDTH 600 0
DWIDTH 22 0
BBX 20 29 1 0
BITMAP
000800
000C00
001E00
003F00
007E00
00FC00
01F800
00F000
006000
000000
000000
1F0F80
7F9FC0
FFFFE0
7FFFE0
21F8F0
00F0F0
07F0F0
1FFFF0
7FFFF0
FFFFF0
FCFFF0
F8F000
F0F000
F8F840
FFFFE0
FFBFE0
7F1FF0
3E0FC0
ENDCHAR
STARTCHAR Oslashacute
ENCODING 510
SWIDTH 600 0
DWIDTH 22 0
BBX 20 33 1 -1
BITMAP
000800
003800
007C00
00FE00
01FC00
03F000
01E000
008040
01F8E0
07FFF0
1FFFE0
1FFFC0
3F1FC0
7E0FC0
7E0FC0
7C1FE0
7C3FE0
FC7FE0
FC7BE0
FCF3E0
FDF3E0
FDE3E0
FFC3E0
7F87E0
7F87E0
7F07C0
3F0FC0
3F1FC0
3FFF80
7FFF00
F7FE00
F1F800
200000
ENDCHAR
STARTCHAR oslashacute
ENCODING 511
SWIDTH 600 0
DWIDTH 22 0
BBX 18 30 2 -1
BITMAP
001000
003800
007C00
00FE00
00FC00
01F800
03F000
01C000
008000
000000
000100
03F380
0FFF80
3FFF00
7FFF00
7E1F80
FC3F80
F87FC0
F8FFC0
F9EFC0
F9CFC0
FB8FC0
FF0FC0
FE0F80
7E1F80
7FFF00
7FFE00
7FFC00
E3F000
400000
ENDCHAR
STARTCHAR uni0218
ENCODING 536
SWIDTH 600 0
DWIDTH 22 0
BBX 18 33 2 -9
BITMAP
03F800
0FFE00
1FFF80
3FFF00
7E0F00
7C0200
7C0000
7E0000
7F0000
7FC000
3FF800
1FFE00
0FFF00
03FF80
007F80
001FC0
000FC0
000FC0
300FC0
7C1F80
FFFF80
FFFF00
3FFE00
07F000
000000
000000
01C000
01F000
02F000
007000
00F000
07E000
078000
ENDCHAR
STARTCHAR uni0219
ENCODING 537
SWIDTH 600 0
DWIDTH 22 0
BBX 17 27 2 -9
BITMAP
07F800
1FFE00
3FFF80
7FFF00
7E0E00
7C0200
7F0000
3FF800
3FFE00
0FFF00
01FF80
001F80
200F80
7C0F80
FFFF80
FFFF00
3FFE00
07F800
000000
000000
01C000
01F000
02F000
007000
00F000
07E000
078000
ENDCHAR
STARTCHAR uni021A
ENCODING 538
SWIDTH 600 0
DWIDTH 22 0
BBX 19 33 1 -9
BITMAP
FFFFE0
FFFFE0
FFFFE0
FFFFE0
01F000
01F000
01F000
01F000
01F000
01F000
01F000
01F000
01F000
01F000
01F000
01F000
01F000
01F000
01F000
01F000
01F000
01F000
01F000
01F000
000000
000000
00E000
01F800
007800
007800
007800
03F000
03C000
ENDCHAR
STARTCHAR uni021B
ENCODING 539
SWIDTH 600 0
DWIDTH 22 0
BBX 18 32 2 -9
BITMAP
07C000
07C000
07C000
07C000
07C000
FFFF80
FFFF80
FFFF80
FFFF80
0FC000
0FC000
0FC000
0FC000
0FC000
0FC000
0FC000
0FC000
0FC000
07E080
07FF80
03FF80
01FFC0
00FF00
000000
000000
007000
007C00
003E00
001E00
003C00
01FC00
01E000
ENDCHAR
STARTCHAR uni0237
ENCODING 567
SWIDTH 600 0
DWIDTH 22 0
BBX 13 25 2 -7
BITMAP
7FF8
7FF8
7FF8
7FF8
00F8
00F8
00F8
00F8
00F8
00F8
00F8
00F8
00F8
00F8
00F8
00F8
00F8
00F8
00F8
00F8
41F8
FFF0
FFF0
FFE0
7F80
ENDCHAR
STARTCHAR uni0243
ENCODING 579
SWIDTH 600 0
DWIDTH 22 0
BBX 20 24 0 0
BITMAP
1FFE00
1FFF80
1FFFC0
1FFFE0
1F07E0
1F03E0
1F03E0
1F03E0
1F07C0
1FFF80
1FFE00
1FFFC0
1FFFE0
1F03F0
1F01F0
FFF1F0
FFF1F0
FFF1F0
1F01F0
1F07F0
1FFFE0
1FFFE0
1FFF80
1FFE00
ENDCHAR
STARTCHAR uni0250
ENCODING 592
SWIDTH 600 0
DWIDTH 22 0
BBX 17 18 3 0
BITMAP
F0FC00
F3FE00
FFFF00
FFFF00
FE1F80
FC1F80
F83F00
FFFF00
FFFE00
FFF800
FFC000
F80000
F80400
FC1E00
7FFE00
7FFF00
3FFC00
0FE000
ENDCHAR
STARTCHAR uni0251
ENCODING 593
SWIDTH 600 0
DWIDTH 22 0
BBX 17 18 2 0
BITMAP
07C780
1FF780
3FFF80
7FFF80
7E3F80
FC1F80
F80F80
F80F80
F80F80
F80F80
F80F80
F80F80
FC1F80
FE3F80
7FFF80
3FFF80
1FEF80
07C780
ENDCHAR
STARTCHAR uni0252
ENCODING 594
SWIDTH 600 0
DWIDTH 22 0
BBX 17 18 3 0
BITMAP
F1F000
F7FC00
FFFE00
FFFF00
FC3F00
F81F80
F81F80
F81F80
F81F80
F81F80
F81F80
F81F80
F81F00
FC3F00
FFFE00
FFFE00
F7FC00
F1F000
ENDCHAR
STARTCHAR uni0253
ENCODING 595
SWIDTH 600 0
DWIDTH 22 0
BBX 17 26 3 0
BITMAP
0FE000
3FE000
7FE000
7FE000
FC4000
F80000
F80000
F80000
F9F000
FFFC00
FFFE00
FFFF00
FC3F00
F81F00
F81F80
F81F80
F81F80
F81F80
F81F80
F81F80
F81F00
FC3F00
FFFE00
FFFE00
F7F800
F1F000
ENDCHAR
STARTCHAR uni0254
ENCODING 596
SWIDTH 600 0
DWIDTH 22 0
BBX 17 18 2 0
BITMAP
0FE000
7FF800
FFFC00
7FFE00
307F00
003F80
001F80
000F80
000F80
000F80
000F80
001F80
403F80
707F00
7FFE00
FFFC00
7FF800
0FE000
ENDCHAR
STARTCHAR uni0255
ENCODING 597
SWIDTH 600 0
DWIDTH 22 0
BBX 18 21 2 -3
BITMAP
01FC00
07FF00
1FFF80
3FFF80
3F8700
7E0200
7C0000
FC0000
FC3E00
FCFF80
7DFFC0
7FFFC0
7FE3C0
3F83C0
3FFFC0
1FFF80
3FFF00
3DFC00
7C0000
780000
080000
ENDCHAR
STARTCHAR uni0256
ENCODING 598
SWIDTH 600 0
DWIDTH 22 0
BBX 20 33 2 -7
BITMAP
000F80
000F80
000F80
000F80
000F80
000F80
000F80
000F80
07CF80
1FEF80
3FFF80
7FFF80
7E3F80
FC1F80
F80F80
F80F80
F80F80
F80F80
F80F80
F80F80
FC1F80
FE3F80
7FFF80
3FFF80
1FEF80
0F8F80
000F80
000F80
000F80
000FF0
0007F0
0007F0
0001F0
ENDCHAR
STARTCHAR uni0257
ENCODING 599
SWIDTH 600 0
DWIDTH 22 0
BBX 20 26 2 0
BITMAP
0001F0
0007F0
0007F0
000FF0
000F80
000F80
000F80
000F80
07CF80
1FEF80
3FFF80
7FFF80
7E3F80
FC1F80
F81F80
F81F80
F81F80
F81F80
F81F80
F81F80
FC1F80
FE3F80
7FFF80
3FFF80
1FEF80
0F8F80
ENDCHAR
STARTCHAR uni0258
ENCODING 600
SWIDTH 600 0
DWIDTH 22 0
BBX 18 18 2 0
BITMAP
03F000
1FFC00
3FFE00
7FFF00
7C3F80
F80F80
F80F80
FFFFC0
FFFFC0
FFFFC0
FFFFC0
000F80
000F80
303F00
7FFF00
7FFE00
3FFC00
0FE000
ENDCHAR
STARTCHAR uni0259
ENCODING 601
SWIDTH 600 0
DWIDTH 22 0
BBX 18 18 2 0
BITMAP
07E000
3FFC00
7FFE00
3FFF00
383F80
000F80
000F80
FFFFC0
FFFFC0
FFFFC0
FFFFC0
F80F80
F80F80
7C1F80
7FFF00
3FFE00
1FFC00
07F000
ENDCHAR
STARTCHAR uni025A
ENCODING 602
SWIDTH 600 0
DWIDTH 22 0
BBX 22 18 0 0
BITMAP
0FC000
7FF000
7FF800
3FFBE0
30FFE0
007FE0
00FFFC
03FEFC
0FFE7C
7FFE3C
FE3E00
F83E00
F83C00
7C7C00
7FFC00
3FF800
1FF000
07C000
ENDCHAR
STARTCHAR uni025B
ENCODING 603
SWIDTH 600 0
DWIDTH 22 0
BBX 17 18 3 0
BITMAP
07F800
3FFE00
7FFF00
FFFF00
FC0E00
FC0000
7C0000
3FF000
1FF000
3FF000
FFF000
F80000
F80200
FC0E00
FFFF00
7FFF80
3FFE00
0FF800
ENDCHAR
STARTCHAR uni025C
ENCODING 604
SWIDTH 600 0
DWIDTH 22 0
BBX 17 18 2 0
BITMAP
0FF000
7FFE00
FFFF00
7FFF00
701F80
400F80
001F00
07FF00
07FC00
07FF00
07FF80
000F80
400F80
781F80
FFFF80
FFFF00
7FFE00
0FF000
ENDCHAR
STARTCHAR uni025E
ENCODING 606
SWIDTH 600 0
DWIDTH 22 0
BBX 18 18 2 0
BITMAP
03F800
0FFE00
3FFF00
7FFF80
7E1F80
FC0F80
F81F80
F8FF00
F8FC00
F8FF00
F8FF80
F80F80
FC0FC0
7E0FC0
7FFF80
3FFF80
1FFF00
03F800
ENDCHAR
STARTCHAR uni025F
ENCODING 607
SWIDTH 600 0
DWIDTH 22 0
BBX 18 25 2 -7
BITMAP
7FF800
7FF800
7FF800
7FF800
00F800
00F800
00F800
00F800
3FFFC0
3FFFC0
3FFFC0
00F800
00F800
00F800
00F800
00F800
00F800
00F800
00F800
00F800
41F800
FFF000
FFF000
FFE000
7F8000
ENDCHAR
STARTCHAR uni0260
ENCODING 608
SWIDTH 600 0
DWIDTH 22 0
BBX 20 30 2 -7
BITMAP
0001F0
0007F0
000FF0
000FF0
000F80
07CF80
1FEF80
3FFF80
7FFF80
7E3F80
FC1F80
F80F80
F80F80
F80F80
F80F80
F80F80
FC0F80
FC1F80
7F7F80
7FFF80
3FFF80
1FEF80
030F80
001F80
001F80
383F00
3FFF00
7FFE00
3FFC00
0FF000
ENDCHAR
STARTCHAR uni0261
ENCODING 609
SWIDTH 600 0
DWIDTH 22 0
BBX 17 25 2 -7
BITMAP
07C780
1FE780
3FFF80
7FFF80
7E3F80
FC1F80
FC0F80
F80F80
F80F80
F80F80
F80F80
F80F80
FC1F80
7E3F80
7FFF80
3FFF80
1FFF80
07CF80
000F80
001F80
383F00
3FFF00
7FFE00
7FFC00
0FF000
ENDCHAR
STARTCHAR uni0262
ENCODING 610
SWIDTH 600 0
DWIDTH 22 0
BBX 17 18 2 0
BITMAP
01FC00
07FF00
1FFF80
3FFF00
3F0700
7E0200
7C0000
FC7F80
FC7F80
FC7F80
FC7F80
7C0780
7E0780
7F0780
3FFF80
1FFF80
0FFF00
01FC00
ENDCHAR
STARTCHAR uni0263
ENCODING 611
SWIDTH 600 0
DWIDTH 22 0
BBX 19 25 1 -7
BITMAP
FC03E0
7C03E0
7C07C0
3E07C0
3E07C0
1E0F80
1F0F80
1F0F00
0F9F00
0F9E00
07BE00
07FE00
03FC00
03FC00
03F800
03FC00
07FE00
079E00
0F9F00
0F1F00
0F9F00
0FFE00
07FE00
03FC00
01F800
ENDCHAR
STARTCHAR uni0264
ENCODING 612
SWIDTH 600 0
DWIDTH 22 0
BBX 19 18 1 0
BITMAP
7E07E0
FF1FE0
7FFFE0
7FFFC0
47FE40
03F800
07FC00
0FFE00
0FBF00
1F1F80
1F0F80
1F0F80
1F0F80
1F1F80
1FFF00
0FFF00
07FE00
01F800
ENDCHAR
STARTCHAR uni0265
ENCODING 613
SWIDTH 600 0
DWIDTH 22 0
BBX 17 25 2 -7
BITMAP
F80F80
F80F80
F80F80
F80F80
F80F80
F80F80
F80F80
F80F80
F80F80
F80F80
F80F80
F80F80
FC1F80
FC3F80
7FFF80
7FFF80
3FEF80
1F8F80
000F80
000F80
000F80
000F80
000F80
000F80
000F80
ENDCHAR
STARTCHAR uni0266
ENCODING 614
SWIDTH 600 0
DWIDTH 22 0
BBX 16 26 3 0
BITMAP
0FE0
3FE0
7FE0
7FE0
FC40
F800
F800
F800
F8F8
FBFE
FFFE
FFFF
FE3F
FC1F
F81F
F81F
F81F
F81F
F81F
F81F
F81F
F81F
F81F
F81F
F81F
F81F
ENDCHAR
STARTCHAR uni0267
ENCODING 615
SWIDTH 600 0
DWIDTH 22 0
BBX 16 33 3 -7
BITMAP
0FE0
3FE0
7FE0
7FE0
FC40
F800
F800
F800
F8F8
FBFE
FFFE
FFFF
FE3F
FC1F
F81F
F81F
F81F
F81F
F81F
F81F
F81F
F81F
F81F
F81F
F81F
F81F
001F
001F
003F
00FF
01FE
01FC
01F8
ENDCHAR
STARTCHAR uni0268
ENCODING 616
SWIDTH 600 0
DWIDTH 22 0
BBX 17 27 3 0
BITMAP
00E000
03F000
03F800
03F800
03F800
03F000
01E000
000000
000000
FFF000
FFF000
FFF000
FFF000
01F000
01F000
01F000
01F000
7FFF80
7FFF80
7FFF80
01F000
01F000
01F000
01F000
01F000
01F000
01F000
ENDCHAR
STARTCHAR uni026A
ENCODING 618
SWIDTH 600 0
DWIDTH 22 0
BBX 16 18 3 0
BITMAP
FFFF
FFFF
FFFF
FFFF
07C0
07C0
07C0
07C0
07C0
07C0
07C0
07C0
07C0
07C0
FFFF
FFFF
FFFF
FFFF
ENDCHAR
STARTCHAR uni026B
ENCODING 619
SWIDTH 600 0
DWIDTH 22 0
BBX 18 26 2 0
BITMAP
FFE000
FFE000
FFE000
FFE000
07E000
07E000
07E000
07E000
07E000
1FE000
7FE700
7FEF00
FFFF00
F7FF00
F7FE00
27FC00
07E000
07E000
07E000
07E000
03E000
03F100
03FF80
01FF80
00FF80
007F40
ENDCHAR
STARTCHAR uni026C
ENCODING 620
SWIDTH 600 0
DWIDTH 22 0
BBX 19 26 1 0
BITMAP
7FF000
7FF000
7FF000
7FF000
03F000
03F000
03F000
03F000
3FF000
7FF000
7FF000
E3F000
73F000
7FFF00
7FFF00
1FFF00
03F000
03F000
03F000
03F000
01F000
01F880
01FFC0
00FFC0
007FC0
003FA0
ENDCHAR
STARTCHAR uni026D
ENCODING 621
SWIDTH 600 0
DWIDTH 22 0
BBX 18 33 2 -7
BITMAP
FFE000
FFE000
FFE000
FFE000
07E000
07E000
07E000
07E000
07E000
07E000
07E000
07E000
07E000
07E000
07E000
07E000
07E000
07E000
07E000
07E000
07E000
07E000
07E000
07E000
07E000
07E000
07E000
03E000
03F100
03FF80
01FF80
00FF80
007F40
ENDCHAR
STARTCHAR uni026E
ENCODING 622
SWIDTH 600 0
DWIDTH 22 0
BBX 21 33 1 -7
BITMAP
FC0000
FC0000
FC0000
FC0000
FC0000
FC0000
FC0000
FC0000
FFFFF0
FFFFF0
FFFFF0
FFFFE0
FC07E0
FC0FC0
FC0F80
FC1F00
FC3F00
FC7E00
FC7F00
FCFFC0
FCFFE0
FC7FF0
FC03F0
FC01F0
FC01F8
FC01F8
0001F0
0101F0
0383F0
07FFE0
07FFE0
03FF80
007E00
ENDCHAR
STARTCHAR uni026F
ENCODING 623
SWIDTH 600 0
DWIDTH 22 0
BBX 19 18 1 0
BITMAP
F8F3E0
F8F3E0
F8F3E0
F8F3E0
F8F3E0
F8F3E0
F8F3E0
F8F3E0
F8F3E0
F8F3E0
F8F3E0
F9F3E0
F9F3E0
F9F7E0
FFFFE0
FFFFE0
7EFDE0
3C79E0
ENDCHAR
STARTCHAR uni0270
ENCODING 624
SWIDTH 600 0
DWIDTH 22 0
BBX 19 25 1 -7
BITMAP
F8F3E0
F8F3E0
F8F3E0
F8F3E0
F8F3E0
F8F3E0
F8F3E0
F8F3E0
F8F3E0
F8F3E0
F8F3E0
F8F3E0
F9F3E0
F9F3E0
FFFFE0
FFFFE0
7EFDE0
3C79E0
0003E0
0003E0
0003E0
0003E0
0003E0
0003E0
0003E0
ENDCHAR
STARTCHAR uni0271
ENCODING 625
SWIDTH 600 0
DWIDTH 22 0
BBX 20 25 1 -7
BITMAP
F1C3C0
F7E7E0
FFFFE0
FFFFE0
FCFBF0
FCF1F0
F8F1F0
F8F1F0
F8F1F0
F8F1F0
F8F1F0
F8F1F0
F8F1F0
F8F1F0
F8F1F0
F8F1F0
F8F1F0
F8F1F0
0001F0
0001F0
0003F0
000FE0
000FE0
000FC0
000F80
ENDCHAR
STARTCHAR uni0272
ENCODING 626
SWIDTH 600 0
DWIDTH 22 0
BBX 20 25 -1 -7
BITMAP
0F0F80
0F3FE0
0FFFE0
0FFFF0
0FE3F0
0FC1F0
0F81F0
0F81F0
0F81F0
0F81F0
0F81F0
0F81F0
0F81F0
0F81F0
0F81F0
0F81F0
0F81F0
0F81F0
0F8000
0F8000
1F8000
7F8000
7F0000
7F0000
FC0000
ENDCHAR
STARTCHAR uni0273
ENCODING 627
SWIDTH 600 0
DWIDTH 22 0
BBX 20 25 3 -7
BITMAP
F0F800
F3FC00
F7FE00
FFFE00
FE3F00
FC3F00
F81F00
F81F00
F81F00
F81F00
F81F00
F81F00
F81F00
F81F00
F81F00
F81F00
F81F00
F81F00
001F00
001F00
001F80
001FE0
000FE0
0007E0
0003F0
ENDCHAR
STARTCHAR uni0274
ENCODING 628
SWIDTH 600 0
DWIDTH 22 0
BBX 16 18 3 0
BITMAP
F81F
FC1F
FC1F
FE1F
FE1F
FF1F
FF9F
F79F
F7DF
F3DF
FBFF
F9FF
F8FF
F8FF
F87F
F87F
F83F
F81F
ENDCHAR
STARTCHAR uni0275
ENCODING 629
SWIDTH 600 0
DWIDTH 22 0
BBX 18 18 2 0
BITMAP
03F000
1FFC00
3FFE00
7FFF00
7E1F80
F80F80
F807C0
FFFFC0
FFFFC0
FFFFC0
FFFFC0
F807C0
F80F80
7C1F80
7FFF00
3FFE00
1FFC00
03F000
ENDCHAR
STARTCHAR uni0276
ENCODING 630
SWIDTH 600 0
DWIDTH 22 0
BBX 20 18 1 0
BITMAP
07FFF0
1FFFF0
3FFFF0
7FFFF0
7E3C00
FC3C00
F83C00
F83FE0
F83FE0
F83FE0
F83FE0
F83C00
FC3C00
7E3C00
7FFFF0
3FFFF0
1FFFF0
07FFF0
ENDCHAR
STARTCHAR uni0278
ENCODING 632
SWIDTH 600 0
DWIDTH 22 0
BBX 20 33 1 -7
BITMAP
00F000
00F000
00F000
00F000
00F000
00F000
00F000
00F000
07FC00
1FFF00
3FFF80
7FFFC0
7CF7E0
F8F3E0
F8F1E0
F8F1F0
F8F1F0
F8F1F0
F8F1F0
F8F1E0
F8F3E0
7CF7E0
7FFFC0
3FFF80
1FFF00
07FC00
00F000
00F000
00F000
00F000
00F000
00F000
00F000
ENDCHAR
STARTCHAR uni0279
ENCODING 633
SWIDTH 600 0
DWIDTH 22 0
BBX 15 18 2 0
BITMAP
003E
003E
003E
003E
003E
003E
003E
003E
003E
003E
003E
007E
00FE
81FE
7FDE
FF9E
FF1E
FC1E
ENDCHAR
STARTCHAR uni027A
ENCODING 634
SWIDTH 600 0
DWIDTH 22 0
BBX 15 26 2 0
BITMAP
003E
003E
003E
003E
003E
003E
003E
003E
003E
003E
003E
003E
003E
003E
003E
003E
003E
003E
003E
007E
00FE
83FE
7FDE
FF9E
FF1E
FC1E
ENDCHAR
STARTCHAR uni027B
ENCODING 635
SWIDTH 600 0
DWIDTH 22 0
BBX 18 25 2 -7
BITMAP
00FC00
00FC00
00FC00
00FC00
00FC00
00FC00
00FC00
00FC00
00FC00
00FC00
00FC00
00FC00
01FC00
87FC00
7FFC00
FF7C00
FE7C00
F87C00
007C00
007C00
007C00
007F80
003FC0
001FC0
000FC0
ENDCHAR
STARTCHAR uni027D
ENCODING 637
SWIDTH 600 0
DWIDTH 22 0
BBX 16 25 4 -7
BITMAP
F87E
F8FF
FBFE
FBFE
FF82
FF00
FE00
FC00
F800
F800
F800
F800
F800
F800
F800
F800
F800
F800
FC00
FC00
7E08
7FF8
3FF8
1FFC
07F0
ENDCHAR
STARTCHAR uni027E
ENCODING 638
SWIDTH 600 0
DWIDTH 22 0
BBX 16 18 4 0
BITMAP
03FE
0FFF
1FFE
3FFE
7F02
7E00
FC00
FC00
FC00
F800
F800
F800
F800
F800
F800
F800
F800
F800
ENDCHAR
STARTCHAR uni0280
ENCODING 640
SWIDTH 600 0
DWIDTH 22 0
BBX 17 18 3 0
BITMAP
FFF000
FFFC00
FFFE00
FFFF00
F83F00
F81F00
F81F00
F83F00
FFFF00
FFFE00
FFFC00
FFF800
F8FC00
F8FC00
F87E00
F83F00
F83F00
F81F80
ENDCHAR
STARTCHAR uni0281
ENCODING 641
SWIDTH 600 0
DWIDTH 22 0
BBX 18 18 1 0
BITMAP
FE07C0
7E07C0
3F07C0
1F87C0
0FC7C0
07FFC0
0FFFC0
1FFFC0
3FFFC0
3F07C0
3E07C0
7E07C0
3E07C0
3F07C0
3FFFC0
1FFFC0
1FFFC0
07FFC0
ENDCHAR
STARTCHAR uni0282
ENCODING 642
SWIDTH 600 0
DWIDTH 22 0
BBX 17 25 2 -7
BITMAP
07F800
1FFE00
3FFF80
7FFF00
7E0E00
7C0200
7F0000
3FF800
3FFE00
0FFF00
01FF80
001F80
200F80
7C0F80
FFFF80
FFFF00
FFFE00
FFF800
F80000
F80000
F80000
7F0000
7F0000
3F8000
1F8000
ENDCHAR
STARTCHAR uni0283
ENCODING 643
SWIDTH 600 0
DWIDTH 22 0
BBX 18 33 2 -7
BITMAP
003F80
00FFC0
00FFC0
01FF80
01F080
03F000
03F000
03F000
03F000
03F000
03F000
03F000
03F000
03F000
03F000
03F000
03F000
03F000
03F000
03F000
03F000
03F000
03F000
03F000
03F000
03F000
03E000
03E000
47E000
7FE000
FFC000
FF8000
7F0000
ENDCHAR
STARTCHAR uni0284
ENCODING 644
SWIDTH 600 0
DWIDTH 22 0
BBX 18 33 2 -7
BITMAP
003F80
00FFC0
01FFC0
01FF80
01F080
03F000
03F000
03F000
03F000
03F000
03F000
03F000
03F000
03F000
03F000
7FFF80
7FFF80
7FFF80
03F000
03F000
03F000
03F000
03F000
03F000
03F000
03F000
03E000
03E000
47E000
7FE000
FFC000
FF8000
7F0000
ENDCHAR
STARTCHAR uni0287
ENCODING 647
SWIDTH 600 0
DWIDTH 22 0
BBX 18 23 2 -5
BITMAP
7F8000
FFE000
FFF000
FFF800
81F800
00F800
00F800
00F800
00F800
00F800
00F800
00F800
00F800
00F800
FFFFC0
FFFFC0
FFFFC0
FFFFC0
00F800
00F800
00F800
00F800
00F000
ENDCHAR
STARTCHAR uni0288
ENCODING 648
SWIDTH 600 0
DWIDTH 22 0
BBX 18 30 2 -7
BITMAP
07C000
07C000
07C000
07C000
07C000
FFFF80
FFFF80
FFFF80
FFFF80
0FC000
0FC000
0FC000
0FC000
0FC000
0FC000
0FC000
0FC000
0FC000
0FC000
0FC000
0FC000
0FC000
0FC000
0FC000
0FC000
07E080
07FF80
03FF80
01FFC0
007F00
ENDCHAR
STARTCHAR uni0289
ENCODING 649
SWIDTH 600 0
DWIDTH 22 0
BBX 22 18 0 0
BITMAP
1F07E0
1F07E0
1F07E0
1F07E0
1F07E0
FFFFFC
FFFFFC
FFFFFC
1F07E0
1F07E0
1F07E0
1F07E0
1F07E0
1F8FE0
1FFFE0
0FFFE0
0FFBE0
07E3E0
ENDCHAR
STARTCHAR uni028A
ENCODING 650
SWIDTH 600 0
DWIDTH 22 0
BBX 19 18 1 0
BITMAP
FF1FE0
FF1FE0
FF1FE0
FF1FE0
1F0F00
3E0780
3E07C0
7C07C0
7C07E0
7C07E0
7C07E0
7C07E0
7E07C0
3F0FC0
3FFF80
1FFF80
0FFE00
03F800
ENDCHAR
STARTCHAR uni028B
ENCODING 651
SWIDTH 600 0
DWIDTH 22 0
BBX 18 18 2 0
BITMAP
FC7C00
FC7F00
FC7F80
FC3F80
FC0FC0
FC0FC0
FC0FC0
FC0FC0
FC0FC0
FC0FC0
FC0FC0
FC0F80
7C1F80
7E1F80
7FFF00
3FFE00
1FFC00
07F000
ENDCHAR
STARTCHAR uni028C
ENCODING 652
SWIDTH 600 0
DWIDTH 22 0
BBX 19 18 1 0
BITMAP
03F800
03F800
03FC00
07FC00
07BC00
07BE00
0FBE00
0F9F00
0F1F00
1F1F00
1F0F80
3E0F80
3E0F80
3E07C0
7C07C0
7C07E0
7C03E0
F803E0
ENDCHAR
STARTCHAR uni028D
ENCODING 653
SWIDTH 600 0
DWIDTH 22 0
BBX 21 18 0 0
BITMAP
1F8FE0
1F8FE0
3FCFE0
3FCFE0
3FCFE0
3DCDE0
3DDDF0
3DDDF0
3DDDF0
7CFDF0
7CFDF0
7CF9F0
7CF8F8
7CF8F8
7878F8
7878F8
F800F8
F800F8
ENDCHAR
STARTCHAR uni028E
ENCODING 654
SWIDTH 600 0
DWIDTH 22 0
BBX 19 26 1 0
BITMAP
0007C0
001FC0
003FC0
007F80
00FC00
00F800
00F800
01F000
01F000
03F000
03F800
03F800
07F800
07BC00
0FBC00
0FBE00
0F1E00
1F1F00
1F1F00
1E0F80
3E0F80
3E0780
7C07C0
7C07C0
7C03E0
F803E0
ENDCHAR
STARTCHAR uni028F
ENCODING 655
SWIDTH 600 0
DWIDTH 22 0
BBX 19 18 1 0
BITMAP
FC03E0
7E07E0
3E07C0
3F0FC0
1F0F80
1F1F00
0F9F00
0FBE00
07FE00
07FC00
03FC00
01F800
01F800
01F800
01F800
01F800
01F800
01F800
ENDCHAR
STARTCHAR uni0290
ENCODING 656
SWIDTH 600 0
DWIDTH 22 0
BBX 20 25 3 -7
BITMAP
7FFF00
7FFF00
7FFF00
7FFE00
00FE00
00FC00
01F800
03F000
07E000
0FE000
1FC000
1F8000
3F0000
7E0000
FFFF00
FFFF00
FFFF00
FFFF00
001F00
001F00
001F80
001FE0
000FE0
0007F0
0003F0
ENDCHAR
STARTCHAR uni0291
ENCODING 657
SWIDTH 600 0
DWIDTH 22 0
BBX 18 22 3 -4
BITMAP
7FFE00
7FFE00
7FFE00
7FFC00
00FC00
01F800
03F000
07E000
07C000
0FC780
1F9FC0
3F1FC0
3E39C0
7E31C0
FFFFC0
FFFF80
FFFF80
FFFE00
00E000
00C000
01C000
01C000
ENDCHAR
STARTCHAR uni0292
ENCODING 658
SWIDTH 600 0
DWIDTH 22 0
BBX 17 25 2 -7
BITMAP
7FFF00
7FFF00
7FFF00
7FFF00
007E00
00F800
01F000
03E000
07C000
0FF800
1FFE00
1FFF00
0FFF00
083F80
001F80
000F80
000F80
000F80
000F80
201F80
783F00
FFFF00
7FFE00
3FFC00
0FE000
ENDCHAR
STARTCHAR uni0294
ENCODING 660
SWIDTH 600 0
DWIDTH 22 0
BBX 17 26 2 0
BITMAP
0FE000
3FFC00
7FFE00
FFFF00
783F00
201F80
400F80
000F80
000F80
001F80
001F00
003F00
00FE00
01FC00
07F800
07F000
07E000
07E000
07E000
07E000
07E000
07E000
07E000
07E000
07E000
07E000
ENDCHAR
STARTCHAR uni0295
ENCODING 661
SWIDTH 600 0
DWIDTH 22 0
BBX 18 26 2 0
BITMAP
03F800
0FFE00
1FFF80
3FFFC0
7F0F80
7C0300
7C0200
FC0000
7C0000
7C0000
7E0000
7F0000
3F8000
1FE000
0FF000
07F000
01F000
01F000
01F000
01F000
01F000
01F000
01F000
01F000
01F000
01F000
ENDCHAR
STARTCHAR uni0298
ENCODING 664
SWIDTH 600 0
DWIDTH 22 0
BBX 18 26 2 0
BITMAP
03F000
0FFC00
1FFE00
3FFF00
7E3F00
7C1F80
7C0F80
F80F80
F807C0
F807C0
F8C7C0
F9E7C0
FBE7C0
FBE7C0
F9E7C0
F807C0
F807C0
F807C0
F80F80
7C0F80
7C0F80
7E1F00
3FFF00
1FFE00
0FFC00
03F000
ENDCHAR
STARTCHAR uni0299
ENCODING 665
SWIDTH 600 0
DWIDTH 22 0
BBX 17 18 4 0
BITMAP
FFF000
FFFC00
FFFE00
FFFF00
F83F00
F81F00
F83F00
FFFE00
FFF800
FFFE00
FFFF00
F81F00
F81F80
F81F80
FFFF00
FFFF00
FFFE00
FFF800
ENDCHAR
STARTCHAR uni029C
ENCODING 668
SWIDTH 600 0
DWIDTH 22 0
BBX 16 18 3 0
BITMAP
F81F
F81F
F81F
F81F
F81F
F81F
F81F
FFFF
FFFF
FFFF
FFFF
F81F
F81F
F81F
F81F
F81F
F81F
F81F
ENDCHAR
STARTCHAR uni029D
ENCODING 669
SWIDTH 600 0
DWIDTH 22 0
BBX 18 35 1 -8
BITMAP
003800
00FC00
00FE00
00FE00
00FE00
00FC00
007800
000000
000000
3FFC00
3FFC00
3FFC00
3FFC00
007C00
007C00
007C00
007C00
007C00
007C00
007C00
007C00
007C00
007C00
1FFC00
7FFC00
7FFC00
FFFC00
F0FE00
F07E00
F0FF00
FFFF80
7FFF80
3FE7C0
0F8780
000200
ENDCHAR
STARTCHAR uni029E
ENCODING 670
SWIDTH 600 0
DWIDTH 22 0
BBX 18 25 1 -7
BITMAP
FC07C0
7C07C0
3E07C0
3F07C0
1F07C0
0F8FC0
0FDFC0
07FFC0
03FFC0
03FFC0
01FFC0
03F7C0
07E7C0
0FC7C0
1F87C0
3F07C0
7E07C0
FC07C0
0007C0
0007C0
0007C0
0007C0
0007C0
0007C0
0007C0
ENDCHAR
STARTCHAR uni029F
ENCODING 671
SWIDTH 600 0
DWIDTH 22 0
BBX 15 18 4 0
BITMAP
FC00
FC00
FC00
FC00
FC00
FC00
FC00
FC00
FC00
FC00
FC00
FC00
FC00
FC00
FFFE
FFFE
FFFE
FFFE
ENDCHAR
STARTCHAR uni02A1
ENCODING 673
SWIDTH 600 0
DWIDTH 22 0
BBX 17 26 2 0
BITMAP
0FF000
3FFC00
7FFE00
FFFF00
783F00
301F80
401F80
000F80
000F80
001F80
001F00
003F00
007E00
00FC00
01F800
FFFF80
FFFF80
FFFF80
07E000
07E000
07E000
07E000
07E000
07E000
07E000
07E000
ENDCHAR
STARTCHAR uni02A2
ENCODING 674
SWIDTH 600 0
DWIDTH 22 0
BBX 18 26 2 0
BITMAP
03F800
0FFE00
1FFF80
3FFFC0
7F0F80
7C0300
7C0200
7C0000
7C0000
7C0000
7E0000
3E0000
3F0000
1F8000
0FE000
FFFFC0
FFFFC0
FFFFC0
01F000
01F000
01F000
01F000
01F000
01F000
01F000
01F000
ENDCHAR
STARTCHAR uni02A4
ENCODING 676
SWIDTH 600 0
DWIDTH 22 0
BBX 22 33 0 -7
BITMAP
00F000
00F000
00F000
00F000
00F000
00F000
00F000
00F000
1EFFF8
3FFFF8
7FFFF8
7FFFF8
F9F0F8
F8F0F0
F8F1E0
F0F1E0
F0F3C0
F0F3C0
F0F7E0
F8F7F0
F8F7F8
F9F3FC
7FF07C
7FF07C
3F703C
1E703C
00003C
00007C
000C7C
000FF8
001FF8
001FF0
0007C0
ENDCHAR
STARTCHAR uni02A6
ENCODING 678
SWIDTH 600 0
DWIDTH 22 0
BBX 21 23 0 0
BITMAP
0F0000
1F0000
1F0000
1F0000
1F0000
FFFFE0
FFFFF8
FFFFF8
FFFFF0
1F3E10
1F3F00
1F1F80
1F0FC0
1F07F0
1F03F0
1F00F8
1F00F8
1F0078
1FC0F8
0FFFF8
0FFFF0
07FFE0
00FF80
ENDCHAR
STARTCHAR uni02A7
ENCODING 679
SWIDTH 600 0
DWIDTH 22 0
BBX 23 33 0 -7
BITMAP
00003E
0000FE
0001FE
1F01FE
1F01F0
1F03F0
1F03F0
1F03F0
FFFFF0
FFFFF0
FFFFF0
FFFFF0
1F03F0
1F03F0
1F03F0
1F03F0
1F03F0
1F03F0
1F03F0
1F03F0
1F03F0
1F83F0
1FF3F0
0FF3F0
0FF3F0
03F3F0
0003E0
0003E0
0003E0
001FE0
001FC0
003FC0
003F00
ENDCHAR
STARTCHAR h.sups
ENCODING 688
SWIDTH 600 0
DWIDTH 22 0
BBX 11 17 6 13
BITMAP
E000
E000
E000
E000
E780
EFC0
FFC0
FFE0
F1E0
E1E0
E1E0
E1E0
E1E0
E1E0
E1E0
E1E0
E1E0
ENDCHAR
STARTCHAR j.sups
ENCODING 690
SWIDTH 600 0
DWIDTH 22 0
BBX 9 22 5 9
BITMAP
0780
0780
0F80
0780
0000
0000
7F80
7F80
7F80
0780
0780
0780
0780
0780
0780
0780
0780
0780
8780
FF00
FF00
7C00
ENDCHAR
STARTCHAR r.sups
ENCODING 691
SWIDTH 600 0
DWIDTH 22 0
BBX 10 13 8 13
BITMAP
0380
EFC0
EFC0
FF80
F800
F000
F000
E000
E000
E000
E000
E000
E000
ENDCHAR
STARTCHAR w.sups
ENCODING 695
SWIDTH 600 0
DWIDTH 22 0
BBX 18 13 1 12
BITMAP
F0E1C0
71E3C0
79E3C0
79F380
79F380
3BB380
3BB780
3BBF00
3F3F00
1F3F00
1F3F00
1F1F00
1F1E00
ENDCHAR
STARTCHAR y.sups
ENCODING 696
SWIDTH 600 0
DWIDTH 22 0
BBX 12 16 5 9
BITMAP
F0F0
F0E0
70E0
79E0
39C0
39C0
3DC0
1F80
1F80
0F80
0F00
0F00
0E00
7E00
7C00
7800
ENDCHAR
STARTCHAR uni02B9
ENCODING 697
SWIDTH 600 0
DWIDTH 22 0
BBX 6 12 8 13
BITMAP
7C
7C
7C
7C
7C
78
78
78
F8
F0
F0
F0
ENDCHAR
STARTCHAR uni02BB
ENCODING 699
SWIDTH 600 0
DWIDTH 22 0
BBX 7 15 7 10
BITMAP
04
0E
3E
3E
78
F0
F0
E0
FC
FE
FE
FE
FE
7E
3C
ENDCHAR
STARTCHAR uni02BC
ENCODING 700
SWIDTH 600 0
DWIDTH 22 0
BBX 8 15 7 10
BITMAP
3C
7E
FE
FF
FF
7F
3F
0F
0F
1E
3E
7C
F8
70
40
ENDCHAR
STARTCHAR uni02BE
ENCODING 702
SWIDTH 600 0
DWIDTH 22 0
BBX 7 11 8 19
BITMAP
F0
FC
FC
3E
1E
1E
1E
3E
FC
FC
F0
ENDCHAR
STARTCHAR uni02BF
ENCODING 703
SWIDTH 600 0
DWIDTH 22 0
BBX 8 11 6 19
BITMAP
0F
3F
7F
78
F0
F0
F0
78
7F
3F
0F
ENDCHAR
STARTCHAR uni02C1
ENCODING 705
SWIDTH 600 0
DWIDTH 22 0
BBX 12 15 5 16
BITMAP
0F80
3FC0
7FE0
7FF0
F860
F040
F000
F000
7800
3C00
1F00
0F00
0F00
0F00
0F00
ENDCHAR
STARTCHAR circumflex
ENCODING 710
SWIDTH 600 0
DWIDTH 22 0
BBX 13 7 4 20
BITMAP
0FC0
1FE0
3FE0
7FF0
78F8
F078
2010
ENDCHAR
STARTCHAR caron
ENCODING 711
SWIDTH 600 0
DWIDTH 22 0
BBX 13 7 4 21
BITMAP
2010
7078
F8F8
7FF0
3FE0
1FE0
0FC0
ENDCHAR
STARTCHAR uni02C8
ENCODING 712
SWIDTH 600 0
DWIDTH 22 0
BBX 6 13 8 14
BITMAP
FC
F8
F8
F8
F8
78
78
78
78
78
78
78
70
ENDCHAR
STARTCHAR uni02C9
ENCODING 713
SWIDTH 600 0
DWIDTH 22 0
BBX 11 3 5 21
BITMAP
FFE0
FFE0
FFE0
ENDCHAR
STARTCHAR uni02CA
ENCODING 714
SWIDTH 600 0
DWIDTH 22 0
BBX 9 9 8 20
BITMAP
0400
0E00
1F00
3F80
3F00
7E00
FC00
7000
2000
ENDCHAR
STARTCHAR uni02CB
ENCODING 715
SWIDTH 600 0
DWIDTH 22 0
BBX 10 9 4 20
BITMAP
0800
1800
7C00
FE00
3F00
1F80
0FC0
0780
0300
ENDCHAR
STARTCHAR uni02CC
ENCODING 716
SWIDTH 600 0
DWIDTH 22 0
BBX 6 13 8 -10
BITMAP
70
78
78
78
78
78
78
78
F8
F8
F8
F8
FC
ENDCHAR
STARTCHAR uni02D0
ENCODING 720
SWIDTH 600 0
DWIDTH 22 0
BBX 10 19 6 0
BITMAP
FFC0
7F80
3F00
3F00
1E00
1C00
0C00
0800
0000
0000
0000
0800
0C00
1E00
1E00
3F00
7F00
7F80
FFC0
ENDCHAR
STARTCHAR uni02D1
ENCODING 721
SWIDTH 600 0
DWIDTH 22 0
BBX 10 8 6 11
BITMAP
FFC0
7F80
7F00
3F00
1E00
1E00
0C00
0800
ENDCHAR
STARTCHAR breve
ENCODING 728
SWIDTH 600 0
DWIDTH 22 0
BBX 12 6 5 21
BITMAP
2080
E070
F0F0
FFE0
7FC0
1F80
ENDCHAR
STARTCHAR dotaccent
ENCODING 729
SWIDTH 600 0
DWIDTH 22 0
BBX 7 7 7 20
BITMAP
3C
7E
FE
FE
FE
7E
3C
ENDCHAR
STARTCHAR ring
ENCODING 730
SWIDTH 600 0
DWIDTH 22 0
BBX 10 7 6 20
BITMAP
3F00
7F80
F380
E3C0
F380
7F80
3E00
ENDCHAR
STARTCHAR ogonek
ENCODING 731
SWIDTH 600 0
DWIDTH 22 0
BBX 8 8 7 -8
BITMAP
3C
70
70
F0
F2
FF
7F
3E
ENDCHAR
STARTCHAR tilde
ENCODING 732
SWIDTH 600 0
DWIDTH 22 0
BBX 14 7 4 20
BITMAP
0800
3E3C
7F38
FFF8
F7F8
E3F0
E1E0
ENDCHAR
STARTCHAR hungarumlaut
ENCODING 733
SWIDTH 600 0
DWIDTH 22 0
BBX 13 8 6 20
BITMAP
1060
1E78
3C78
3CF0
78E0
71E0
F1C0
20C0
ENDCHAR
STARTCHAR uni02DE
ENCODING 734
SWIDTH 600 0
DWIDTH 22 0
BBX 12 9 3 7
BITMAP
0600
1E00
7F00
FF00
FF00
F7E0
87F0
03F0
01E0
ENDCHAR
STARTCHAR uni02E0
ENCODING 736
SWIDTH 600 0
DWIDTH 22 0
BBX 12 16 5 9
BITMAP
F0F0
F0E0
70E0
79E0
39C0
39C0
3F80
1F80
1F80
1F80
1F80
3BC0
39C0
39C0
1F80
0F00
ENDCHAR
STARTCHAR l.sups
ENCODING 737
SWIDTH 600 0
DWIDTH 22 0
BBX 10 18 7 12
BITMAP
FC00
FC00
FC00
3C00
3C00
3C00
3C00
3C00
3C00
3C00
3C00
3C00
3C00
3C00
3F80
3F80
1FC0
0F80
ENDCHAR
STARTCHAR s.sups
ENCODING 738
SWIDTH 600 0
DWIDTH 22 0
BBX 12 13 5 13
BITMAP
1F80
3FE0
7FE0
7840
7800
7F00
1FC0
07E0
00F0
60F0
7FE0
FFC0
1F80
ENDCHAR
STARTCHAR x.sups
ENCODING 739
SWIDTH 600 0
DWIDTH 22 0
BBX 13 12 4 13
BITMAP
7878
3CF0
3CE0
1FE0
0FC0
0FC0
0F80
1FC0
1DE0
3DE0
78F0
F878
ENDCHAR
STARTCHAR uni02E4
ENCODING 740
SWIDTH 600 0
DWIDTH 22 0
BBX 12 18 5 12
BITMAP
0F80
3FC0
7FE0
7FF0
F860
F040
F000
7000
7800
3C00
1F00
0F00
0F00
0F00
0F00
0F00
0F00
0F00
ENDCHAR
STARTCHAR uni0300
ENCODING 768
SWIDTH 600 0
DWIDTH 22 0
BBX 10 9 4 20
BITMAP
0800
1800
7C00
FE00
3F00
1F80
0FC0
0780
0300
ENDCHAR
STARTCHAR uni0301
ENCODING 769
SWIDTH 600 0
DWIDTH 22 0
BBX 9 9 8 20
BITMAP
0400
0E00
1F00
3F80
3F00
7E00
FC00
7000
2000
ENDCHAR
STARTCHAR uni0302
ENCODING 770
SWIDTH 600 0
DWIDTH 22 0
BBX 13 7 4 20
BITMAP
0FC0
1FE0
3FE0
7FF0
78F8
F078
2010
ENDCHAR
STARTCHAR uni0303
ENCODING 771
SWIDTH 600 0
DWIDTH 22 0
BBX 14 7 4 20
BITMAP
0800
3E3C
7F38
FFF8
F7F8
E3F0
E1E0
ENDCHAR
STARTCHAR uni0304
ENCODING 772
SWIDTH 600 0
DWIDTH 22 0
BBX 11 3 5 21
BITMAP
FFE0
FFE0
FFE0
ENDCHAR
STARTCHAR uni0305
ENCODING 773
SWIDTH 600 0
DWIDTH 22 0
BBX 11 3 5 21
BITMAP
FFE0
FFE0
FFE0
ENDCHAR
STARTCHAR uni0306
ENCODING 774
SWIDTH 600 0
DWIDTH 22 0
BBX 12 6 5 21
BITMAP
2080
E070
F0F0
FFE0
7FC0
1F80
ENDCHAR
STARTCHAR uni0307
ENCODING 775
SWIDTH 600 0
DWIDTH 22 0
BBX 7 7 7 20
BITMAP
3C
7E
FE
FE
FE
7E
3C
ENDCHAR
STARTCHAR uni0308
ENCODING 776
SWIDTH 600 0
DWIDTH 22 0
BBX 14 6 4 20
BITMAP
7070
F8F8
FCFC
FCFC
F8F8
7070
ENDCHAR
STARTCHAR uni0309
ENCODING 777
SWIDTH 600 0
DWIDTH 22 0
BBX 6 8 8 20
BITMAP
E0
F8
FC
3C
3C
3C
78
70
ENDCHAR
STARTCHAR uni030A
ENCODING 778
SWIDTH 600 0
DWIDTH 22 0
BBX 10 7 6 20
BITMAP
3F00
7F80
F380
E3C0
F380
7F80
3E00
ENDCHAR
STARTCHAR uni030B
ENCODING 779
SWIDTH 600 0
DWIDTH 22 0
BBX 13 8 6 20
BITMAP
1060
1E78
3C78
3CF0
78E0
71E0
F1C0
20C0
ENDCHAR
STARTCHAR uni030C
ENCODING 780
SWIDTH 600 0
DWIDTH 22 0
BBX 13 7 4 21
BITMAP
2010
7078
F8F8
7FF0
3FE0
1FE0
0FC0
ENDCHAR
STARTCHAR uni030F
ENCODING 783
SWIDTH 600 0
DWIDTH 22 0
BBX 14 8 2 20
BITMAP
1060
79E0
F9F0
3CF0
3C70
1E78
1E38
0834
ENDCHAR
STARTCHAR uni0310
ENCODING 784
SWIDTH 600 0
DWIDTH 22 0
BBX 13 10 4 21
BITMAP
0780
0F80
0FC0
2FA0
E738
F038
7878
7FF0
3FE0
0FC0
ENDCHAR
STARTCHAR uni0311
ENCODING 785
SWIDTH 600 0
DWIDTH 22 0
BBX 12 6 5 20
BITMAP
1F80
7FC0
FFE0
F0F0
E070
2080
ENDCHAR
STARTCHAR uni0312
ENCODING 786
SWIDTH 600 0
DWIDTH 22 0
BBX 6 9 8 20
BITMAP
18
38
70
E0
F8
F8
FC
78
78
ENDCHAR
STARTCHAR uni0313
ENCODING 787
SWIDTH 600 0
DWIDTH 22 0
BBX 5 9 8 20
BITMAP
70
F8
F8
F8
78
18
38
F0
40
ENDCHAR
STARTCHAR uni0318
ENCODING 792
SWIDTH 600 0
DWIDTH 22 0
BBX 7 7 8 -9
BITMAP
0E
0E
FE
FE
FE
0E
0E
ENDCHAR
STARTCHAR uni0319
ENCODING 793
SWIDTH 600 0
DWIDTH 22 0
BBX 7 7 7 -9
BITMAP
E0
E0
FE
FE
FE
E0
E0
ENDCHAR
STARTCHAR uni031A
ENCODING 794
SWIDTH 600 0
DWIDTH 22 0
BBX 6 6 8 20
BITMAP
FC
FC
FC
0C
0C
0C
ENDCHAR
STARTCHAR uni031B
ENCODING 795
SWIDTH 600 0
DWIDTH 22 0
BBX 7 9 10 15
BITMAP
06
1E
3E
1E
1E
1E
3C
F8
60
ENDCHAR
STARTCHAR uni031C
ENCODING 796
SWIDTH 600 0
DWIDTH 22 0
BBX 6 7 7 -9
BITMAP
3C
7C
F0
F0
F0
7C
3C
ENDCHAR
STARTCHAR uni031D
ENCODING 797
SWIDTH 600 0
DWIDTH 22 0
BBX 9 6 6 -8
BITMAP
1C00
1C00
1C00
FF80
FF80
FF80
ENDCHAR
STARTCHAR uni031E
ENCODING 798
SWIDTH 600 0
DWIDTH 22 0
BBX 9 6 6 -9
BITMAP
FF80
FF80
FF80
1C00
1C00
1C00
ENDCHAR
STARTCHAR uni031F
ENCODING 799
SWIDTH 600 0
DWIDTH 22 0
BBX 9 7 6 -9
BITMAP
1C00
1C00
FF80
FF80
FF80
1C00
1C00
ENDCHAR
STARTCHAR uni0320
ENCODING 800
SWIDTH 600 0
DWIDTH 22 0
BBX 9 3 6 -6
BITMAP
FF80
FF80
FF80
ENDCHAR
STARTCHAR uni0323
ENCODING 803
SWIDTH 600 0
DWIDTH 22 0
BBX 7 7 7 -9
BITMAP
3C
7E
FE
FE
FE
7E
3C
ENDCHAR
STARTCHAR uni0324
ENCODING 804
SWIDTH 600 0
DWIDTH 22 0
BBX 14 6 4 -9
BITMAP
7070
F8F8
FCFC
FCFC
F8F8
7070
ENDCHAR
STARTCHAR uni0325
ENCODING 805
SWIDTH 600 0
DWIDTH 22 0
BBX 10 7 6 -10
BITMAP
3F00
7F80
F380
E3C0
F380
7F80
3E00
ENDCHAR
STARTCHAR uni0326
ENCODING 806
SWIDTH 600 0
DWIDTH 22 0
BBX 7 7 7 -9
BITMAP
38
7E
1E
1E
1E
FC
F0
ENDCHAR
STARTCHAR uni0327
ENCODING 807
SWIDTH 600 0
DWIDTH 22 0
BBX 7 9 7 -9
BITMAP
3C
38
78
7C
1E
1E
1E
FC
F0
ENDCHAR
STARTCHAR uni0328
ENCODING 808
SWIDTH 600 0
DWIDTH 22 0
BBX 8 8 7 -8
BITMAP
3C
70
70
F0
F2
FF
7F
3E
ENDCHAR
STARTCHAR uni0329
ENCODING 809
SWIDTH 600 0
DWIDTH 22 0
BBX 4 7 9 -9
BITMAP
F0
F0
F0
F0
F0
F0
F0
ENDCHAR
STARTCHAR uni032A
ENCODING 810
SWIDTH 600 0
DWIDTH 22 0
BBX 10 6 6 -9
BITMAP
FFC0
FFC0
FFC0
E1C0
E1C0
E1C0
ENDCHAR
STARTCHAR uni032C
ENCODING 812
SWIDTH 600 0
DWIDTH 22 0
BBX 13 7 4 -8
BITMAP
2010
7078
F8F8
7FF0
3FE0
1FE0
0FC0
ENDCHAR
STARTCHAR uni032E
ENCODING 814
SWIDTH 600 0
DWIDTH 22 0
BBX 12 6 5 -8
BITMAP
2080
E070
F0F0
FFE0
7FC0
1F80
ENDCHAR
STARTCHAR uni032F
ENCODING 815
SWIDTH 600 0
DWIDTH 22 0
BBX 12 6 5 -9
BITMAP
1F80
7FC0
FFE0
F0F0
E070
2080
ENDCHAR
STARTCHAR uni0330
ENCODING 816
SWIDTH 600 0
DWIDTH 22 0
BBX 14 7 4 -9
BITMAP
0800
3E3C
7F38
FFF8
F7F8
E3F0
E1E0
ENDCHAR
STARTCHAR uni0331
ENCODING 817
SWIDTH 600 0
DWIDTH 22 0
BBX 11 3 5 -7
BITMAP
FFE0
FFE0
FFE0
ENDCHAR
STARTCHAR uni0334
ENCODING 820
SWIDTH 600 0
DWIDTH 22 0
BBX 16 7 3 6
BITMAP
1000
7F0F
FFCF
FFFF
F7FE
E1FE
207C
ENDCHAR
STARTCHAR uni0339
ENCODING 825
SWIDTH 600 0
DWIDTH 22 0
BBX 6 7 8 -9
BITMAP
F0
FC
3C
1C
3C
FC
F0
ENDCHAR
STARTCHAR uni033A
ENCODING 826
SWIDTH 600 0
DWIDTH 22 0
BBX 10 6 6 -7
BITMAP
E1C0
E1C0
E1C0
FFC0
FFC0
FFC0
ENDCHAR
STARTCHAR uni033B
ENCODING 827
SWIDTH 600 0
DWIDTH 22 0
BBX 10 7 6 -9
BITMAP
FFC0
FFC0
E1C0
E1C0
E1C0
FFC0
FFC0
ENDCHAR
STARTCHAR uni033C
ENCODING 828
SWIDTH 600 0
DWIDTH 22 0
BBX 14 7 4 -9
BITMAP
38F0
7DF8
FFF8
FFF8
E73C
E71C
E31C
ENDCHAR
STARTCHAR uni033D
ENCODING 829
SWIDTH 600 0
DWIDTH 22 0
BBX 8 7 7 21
BITMAP
42
EF
7E
3C
7E
FF
46
ENDCHAR
STARTCHAR uni0342
ENCODING 834
SWIDTH 600 0
DWIDTH 22 0
BBX 14 7 4 20
BITMAP
0800
3E3C
7F38
FFF8
F7F8
E3F0
E1E0
ENDCHAR
STARTCHAR uni0345
ENCODING 837
SWIDTH 600 0
DWIDTH 22 0
BBX 6 6 9 -7
BITMAP
F0
F0
FC
FC
FC
3C
ENDCHAR
STARTCHAR uni035F
ENCODING 863
SWIDTH 600 0
DWIDTH 22 0
BBX 36 4 -7 -7
BITMAP
FFFFFFFFF0
FFFFFFFFF0
FFFFFFFFF0
FFFFFFFFF0
ENDCHAR
STARTCHAR uni0361
ENCODING 865
SWIDTH 600 0
DWIDTH 22 0
BBX 33 7 -6 21
BITMAP
001FFE0000
01FFFFE000
0FFFFFF800
3FFFFFFE00
FFC001FF80
7C00000F80
6000000100
ENDCHAR
STARTCHAR uni0374
ENCODING 884
SWIDTH 600 0
DWIDTH 22 0
BBX 6 11 8 14
BITMAP
7C
7C
7C
7C
7C
78
78
78
F0
F0
F0
ENDCHAR
STARTCHAR uni0375
ENCODING 885
SWIDTH 600 0
DWIDTH 22 0
BBX 6 11 7 0
BITMAP
1C
3C
3C
3C
3C
7C
7C
7C
7C
7C
FC
ENDCHAR
STARTCHAR uni037A
ENCODING 890
SWIDTH 600 0
DWIDTH 22 0
BBX 6 6 9 -7
BITMAP
F0
F0
FC
FC
FC
3C
ENDCHAR
STARTCHAR uni037E
ENCODING 894
SWIDTH 600 0
DWIDTH 22 0
BBX 8 27 7 -7
BITMAP
3C
FE
FF
FF
FF
FF
FE
3C
00
00
00
00
3C
7E
FF
FF
FF
7F
3F
0F
0F
1F
1E
7E
FC
F0
60
ENDCHAR
STARTCHAR tonos
ENCODING 900
SWIDTH 600 0
DWIDTH 22 0
BBX 6 10 9 20
BITMAP
70
7C
7C
78
F8
F8
F0
F0
F0
F0
ENDCHAR
STARTCHAR dieresistonos
ENCODING 901
SWIDTH 600 0
DWIDTH 22 0
BBX 14 9 4 21
BITMAP
03C0
03C0
0380
0380
0380
E738
F73C
F73C
E638
ENDCHAR
STARTCHAR Alphatonos
ENCODING 902
SWIDTH 600 0
DWIDTH 22 0
BBX 21 25 0 0
BITMAP
3C0000
3CFE00
7CFE00
7CFF00
78FF00
79FF00
79EF00
79EF80
71EF80
F3EF80
F3E780
73C7C0
07C7C0
07C7C0
07C3C0
07FFE0
0FFFE0
0FFFE0
0FFFF0
0F81F0
1F01F0
1F01F0
1F01F8
3F01F8
3F00F8
ENDCHAR
STARTCHAR anoteleia
ENCODING 903
SWIDTH 600 0
DWIDTH 22 0
BBX 8 8 7 11
BITMAP
3C
FE
FF
FF
FF
FF
FE
3C
ENDCHAR
STARTCHAR Epsilontonos
ENCODING 904
SWIDTH 600 0
DWIDTH 22 0
BBX 19 25 0 0
BITMAP
780000
7CFFE0
7CFFE0
78FFE0
78FFE0
78F000
78F000
70F000
F0F000
F0F000
F0F000
E0FF80
00FF80
00FF80
00FF80
00F000
00F000
00F000
00F000
00F000
00F000
00FFE0
00FFE0
00FFE0
00FFE0
ENDCHAR
STARTCHAR Etatonos
ENCODING 905
SWIDTH 600 0
DWIDTH 22 0
BBX 20 25 0 0
BITMAP
780000
7DF1F0
7DF1F0
79F1F0
79F1F0
79F1F0
79F1F0
71F1F0
F1F1F0
F1F1F0
F1F1F0
E1FFF0
01FFF0
01FFF0
01FFF0
01F1F0
01F1F0
01F1F0
01F1F0
01F1F0
01F1F0
01F1F0
01F1F0
01F1F0
01F1F0
ENDCHAR
STARTCHAR Iotatonos
ENCODING 906
SWIDTH 600 0
DWIDTH 22 0
BBX 19 25 0 0
BITMAP
780000
7DFFE0
7DFFE0
79FFE0
79FFE0
783F00
783F00
703F00
F03F00
F03F00
F03F00
E03F00
003F00
003F00
003F00
003F00
003F00
003F00
003F00
003F00
003F00
01FFE0
01FFE0
01FFE0
01FFE0
ENDCHAR
STARTCHAR Omicrontonos
ENCODING 908
SWIDTH 600 0
DWIDTH 22 0
BBX 20 25 0 0
BITMAP
780000
7C3E00
7C7F80
78FFC0
79FFC0
79F3E0
7BE3E0
73E1F0
F3E1F0
F7C1F0
F7C1F0
E7C1F0
07C1F0
07C1F0
07C1F0
07C1F0
07C1F0
03E1F0
03E1F0
03E3E0
01F3E0
01FFC0
00FFC0
007F80
003E00
ENDCHAR
STARTCHAR Upsilontonos
ENCODING 910
SWIDTH 600 0
DWIDTH 22 0
BBX 22 25 0 0
BITMAP
3C0000
3FF03C
3CF07C
7CF87C
7CF878
787878
7878F8
787CF0
783CF0
703CF0
703DE0
F01FE0
001FE0
001FC0
000FC0
000FC0
000F80
000780
000780
000780
000780
000780
000780
000780
000780
ENDCHAR
STARTCHAR Omegatonos
ENCODING 911
SWIDTH 600 0
DWIDTH 22 0
BBX 21 25 0 0
BITMAP
780000
7C3E00
7C7F80
78FFC0
79FFC0
7BF3E0
7BE3E0
73E1F0
F3E1F0
F7C1F0
F7C1F0
E7C1F0
07C1F0
07C1F0
07C1F0
03C1F0
03C1F0
03E1E0
01E1E0
01E3C0
00F3C0
07F3F8
07F3F8
07F3F8
07F3F8
ENDCHAR
STARTCHAR iotadieresistonos
ENCODING 912
SWIDTH 600 0
DWIDTH 22 0
BBX 17 30 2 0
BITMAP
01E000
01E000
01E000
01C000
01C000
39DC00
7B9E00
7B9E00
3B9C00
000000
000000
000000
FFE000
FFE000
FFE000
FFE000
07E000
07E000
07C000
07C000
07C000
07C000
07C000
07C000
03E000
03E100
03FF80
03FF80
01FF80
007F00
ENDCHAR
STARTCHAR Alpha
ENCODING 913
SWIDTH 600 0
DWIDTH 22 0
BBX 21 24 0 0
BITMAP
01FC00
01FC00
01FE00
01FE00
03FE00
03DF00
03DF00
07CF00
07CF80
078F80
0F8F80
0F8780
0F87C0
0F07C0
1FFFC0
1FFFE0
1FFFE0
3FFFE0
3E03F0
3E01F0
7E01F0
7C01F8
7C01F8
FC00F8
ENDCHAR
STARTCHAR Beta
ENCODING 914
SWIDTH 600 0
DWIDTH 22 0
BBX 17 24 3 0
BITMAP
FFF000
FFFC00
FFFE00
FFFF00
F83F00
F81F00
F81F00
F81F00
F81F00
F83E00
FFFC00
FFF000
FFFE00
FFFF00
F81F80
F80F80
F80F80
F80F80
F80F80
F83F80
FFFF00
FFFF00
FFFC00
FFF000
ENDCHAR
STARTCHAR Gamma
ENCODING 915
SWIDTH 600 0
DWIDTH 22 0
BBX 15 24 4 0
BITMAP
FFFE
FFFE
FFFE
FFFE
F800
F800
F800
F800
F800
F800
F800
F800
F800
F800
F800
F800
F800
F800
F800
F800
F800
F800
F800
F800
ENDCHAR
STARTCHAR uni0394
ENCODING 916
SWIDTH 600 0
DWIDTH 22 0
BBX 19 24 1 0
BITMAP
03F800
03F800
03FC00
03FC00
07FC00
07BE00
07BE00
0F9E00
0F9F00
0F1F00
1F1F00
1F1F80
1F0F80
3E0F80
3E0FC0
3E07C0
7E07C0
7C07C0
7C07E0
FC03E0
FFFFE0
FFFFE0
FFFFE0
FFFFE0
ENDCHAR
STARTCHAR Epsilon
ENCODING 917
SWIDTH 600 0
DWIDTH 22 0
BBX 16 24 3 0
BITMAP
FFFF
FFFF
FFFF
FFFF
FC00
FC00
FC00
FC00
FC00
FC00
FFFC
FFFC
FFFC
FFFC
FC00
FC00
FC00
FC00
FC00
FC00
FFFF
FFFF
FFFF
FFFF
ENDCHAR
STARTCHAR Zeta
ENCODING 918
SWIDTH 600 0
DWIDTH 22 0
BBX 18 24 2 0
BITMAP
7FFFC0
7FFFC0
7FFFC0
7FFF80
001F00
003F00
007E00
007E00
00FC00
01F800
01F800
03F000
03E000
07E000
0FC000
0F8000
1F8000
3F0000
3F0000
7E0000
FFFFC0
FFFFC0
FFFFC0
FFFFC0
ENDCHAR
STARTCHAR Eta
ENCODING 919
SWIDTH 600 0
DWIDTH 22 0
BBX 17 24 2 0
BITMAP
FC0F80
FC0F80
FC0F80
FC0F80
FC0F80
FC0F80
FC0F80
FC0F80
FC0F80
FC0F80
FFFF80
FFFF80
FFFF80
FFFF80
FC0F80
FC0F80
FC0F80
FC0F80
FC0F80
FC0F80
FC0F80
FC0F80
FC0F80
FC0F80
ENDCHAR
STARTCHAR Theta
ENCODING 920
SWIDTH 600 0
DWIDTH 22 0
BBX 19 24 1 0
BITMAP
01F800
07FE00
0FFF00
1FFF80
3F1FC0
3E0FC0
7E07C0
7C07E0
7C07E0
FC03E0
FDF3E0
FDF3E0
FDF3E0
FDF3E0
7C03E0
7C07E0
7C07E0
7E07C0
3E0FC0
3F1F80
1FFF80
0FFF00
07FE00
01F800
ENDCHAR
STARTCHAR Iota
ENCODING 921
SWIDTH 600 0
DWIDTH 22 0
BBX 16 24 3 0
BITMAP
FFFF
FFFF
FFFF
FFFF
07C0
07C0
07C0
07C0
07C0
07C0
07C0
07C0
07C0
07C0
07C0
07C0
07C0
07C0
07C0
07C0
FFFF
FFFF
FFFF
FFFF
ENDCHAR
STARTCHAR Kappa
ENCODING 922
SWIDTH 600 0
DWIDTH 22 0
BBX 19 24 2 0
BITMAP
FC07E0
FC0FC0
FC1F80
FC3F00
FC3E00
FC7E00
FCFC00
FCF800
FDF000
FFF000
FFF000
FFF800
FFF800
FFFC00
FF7C00
FE7E00
FE3E00
FC3F00
FC1F00
FC1F80
FC0FC0
FC0FC0
FC07E0
FC07E0
ENDCHAR
STARTCHAR Lambda
ENCODING 923
SWIDTH 600 0
DWIDTH 22 0
BBX 20 24 1 0
BITMAP
03F800
03F800
03FC00
03FC00
07FC00
07FE00
07BE00
0FBE00
0F9E00
0F9F00
1F1F00
1F1F00
1F0F80
1F0F80
3E0F80
3E0FC0
3E07C0
7E07C0
7C07C0
7C07E0
7C03E0
FC03E0
F803F0
F803F0
ENDCHAR
STARTCHAR Mu
ENCODING 924
SWIDTH 600 0
DWIDTH 22 0
BBX 18 24 2 0
BITMAP
FC0FC0
FC0FC0
FC1FC0
FE1FC0
FE1FC0
FE3FC0
FE3BC0
FF3BC0
F73FC0
F77FC0
F777C0
F7F7C0
F3F7C0
F3E7C0
F3E7C0
F1E7C0
F1C7C0
F1C7C0
F007C0
F007C0
F007C0
F007C0
F007C0
F007C0
ENDCHAR
STARTCHAR Nu
ENCODING 925
SWIDTH 600 0
DWIDTH 22 0
BBX 17 24 2 0
BITMAP
FC0F80
FC0F80
FE0F80
FE0F80
FF0F80
FF0F80
FF0F80
FF8F80
FF8F80
FBCF80
FBCF80
F9EF80
F9EF80
F9EF80
F8F780
F8F780
F87780
F87F80
F83F80
F83F80
F83F80
F81F80
F81F80
F80F80
ENDCHAR
STARTCHAR Xi
ENCODING 926
SWIDTH 600 0
DWIDTH 22 0
BBX 17 24 2 0
BITMAP
7FFF80
7FFF80
7FFF80
7FFF80
000000
000000
000000
000000
000000
000000
1FFE00
1FFE00
1FFE00
1FFE00
000000
000000
000000
000000
000000
000000
FFFF80
FFFF80
FFFF80
FFFF80
ENDCHAR
STARTCHAR Omicron
ENCODING 927
SWIDTH 600 0
DWIDTH 22 0
BBX 19 24 1 0
BITMAP
01F800
07FE00
1FFF00
1FFF80
3F1FC0
7E0FC0
7E07C0
7C07E0
7C03E0
FC03E0
FC03E0
FC03E0
FC03E0
FC03E0
7C03E0
7C07E0
7C07E0
7E07C0
3E0FC0
3F1FC0
1FFF80
1FFF00
07FE00
01F800
ENDCHAR
STARTCHAR Pi
ENCODING 928
SWIDTH 600 0
DWIDTH 22 0
BBX 17 24 2 0
BITMAP
FFFF80
FFFF80
FFFF80
FFFF80
FC0F80
FC0F80
FC0F80
FC0F80
FC0F80
FC0F80
FC0F80
FC0F80
FC0F80
FC0F80
FC0F80
FC0F80
FC0F80
FC0F80
FC0F80
FC0F80
FC0F80
FC0F80
FC0F80
FC0F80
ENDCHAR
STARTCHAR Rho
ENCODING 929
SWIDTH 600 0
DWIDTH 22 0
BBX 17 24 3 0
BITMAP
FFF000
FFFC00
FFFE00
FFFF00
F83F80
F81F80
F80F80
F80F80
F80F80
F80F80
F81F80
F83F00
FFFF00
FFFE00
FFFC00
FFF000
F80000
F80000
F80000
F80000
F80000
F80000
F80000
F80000
ENDCHAR
STARTCHAR Sigma
ENCODING 931
SWIDTH 600 0
DWIDTH 22 0
BBX 17 24 2 0
BITMAP
FFFF00
FFFF00
FFFF00
7FFF00
3E0000
1F0000
1F8000
0FC000
07C000
03E000
03F000
01F800
01F000
03F000
03E000
07C000
0F8000
1F8000
3F0000
3E0000
7FFF80
FFFF80
FFFF80
FFFF80
ENDCHAR
STARTCHAR Tau
ENCODING 932
SWIDTH 600 0
DWIDTH 22 0
BBX 19 24 1 0
BITMAP
FFFFE0
FFFFE0
FFFFE0
FFFFE0
01F000
01F000
01F000
01F000
01F000
01F000
01F000
01F000
01F000
01F000
01F000
01F000
01F000
01F000
01F000
01F000
01F000
01F000
01F000
01F000
ENDCHAR
STARTCHAR Upsilon
ENCODING 933
SWIDTH 600 0
DWIDTH 22 0
BBX 20 24 1 0
BITMAP
F803F0
FC03E0
7C07E0
7E07C0
3E07C0
3F0F80
1F0F80
1F1F00
0F9F00
0F9F00
07BE00
07FE00
03FC00
03FC00
03F800
01F800
01F000
01F000
01F000
01F000
01F000
01F000
01F000
01F000
ENDCHAR
STARTCHAR Phi
ENCODING 934
SWIDTH 600 0
DWIDTH 22 0
BBX 20 24 1 0
BITMAP
00F000
00F000
00F000
07FC00
1FFF00
3FFFC0
7FFFE0
FCF7E0
F8F3F0
F8F1F0
F0F1F0
F0F1F0
F0F1F0
F0F1F0
F8F1F0
F8F3E0
7EF7E0
7FFFC0
3FFFC0
1FFF00
07FC00
00F000
00F000
00F000
ENDCHAR
STARTCHAR Chi
ENCODING 935
SWIDTH 600 0
DWIDTH 22 0
BBX 20 24 1 0
BITMAP
FC03F0
7E07E0
7E07C0
3F0FC0
1F0F80
1F9F80
0F9F00
0FDF00
07FE00
07FC00
03FC00
03F800
03F800
07FC00
07FE00
0FBE00
0FBF00
1F1F00
1F1F80
3F0F80
3E0FC0
7E07E0
FC07E0
FC03F0
ENDCHAR
STARTCHAR Psi
ENCODING 936
SWIDTH 600 0
DWIDTH 22 0
BBX 20 24 1 0
BITMAP
F8F1F0
F8F1F0
F8F1F0
F8F1F0
F8F1F0
F8F1F0
F8F1F0
F8F1F0
F8F1F0
F8F1F0
F8F3E0
FCF7E0
7FFFE0
3FFFC0
1FFF80
07FE00
00F000
00F000
00F000
00F000
00F000
00F000
00F000
00F000
ENDCHAR
STARTCHAR uni03A9
ENCODING 937
SWIDTH 600 0
DWIDTH 22 0
BBX 19 24 1 0
BITMAP
01F800
07FE00
0FFF00
1FFF80
3F1FC0
7E0FC0
7E07C0
7C07E0
7C03E0
FC03E0
FC03E0
FC03E0
FC03E0
7C03E0
7C03E0
7C07C0
7C07C0
3E07C0
1E0F80
1F0F00
FF1FE0
FF1FE0
FF1FE0
FF1FE0
ENDCHAR
STARTCHAR Iotadieresis
ENCODING 938
SWIDTH 600 0
DWIDTH 22 0
BBX 16 30 3 0
BITMAP
3838
7C7C
7C7C
7C7C
3838
0000
FFFF
FFFF
FFFF
FFFF
07C0
07C0
07C0
07C0
07C0
07C0
07C0
07C0
07C0
07C0
07C0
07C0
07C0
07C0
07C0
07C0
FFFF
FFFF
FFFF
FFFF
ENDCHAR
STARTCHAR Upsilondieresis
ENCODING 939
SWIDTH 600 0
DWIDTH 22 0
BBX 20 30 1 0
BITMAP
0E0E00
1F1F00
1F1F00
1F1F00
0E0E00
000000
F803F0
FC03E0
7C07E0
7E07C0
3E07C0
3F0F80
1F0F80
1F1F00
0F9F00
0F9F00
07BE00
07FE00
03FC00
03FC00
03F800
01F800
01F000
01F000
01F000
01F000
01F000
01F000
01F000
01F000
ENDCHAR
STARTCHAR alphatonos
ENCODING 940
SWIDTH 600 0
DWIDTH 22 0
BBX 19 30 2 0
BITMAP
007000
007C00
007C00
007800
00F800
00F800
00F800
00F000
00F000
00F000
000000
000000
0F87C0
1FE7C0
3FFF80
7FFF80
FE7F80
FC3F80
F81F80
F81F00
F81F00
F81F00
F81F00
F81F00
FC3F00
FC7F00
7FFFE0
7FEFE0
3FCFE0
0F87E0
ENDCHAR
STARTCHAR epsilontonos
ENCODING 941
SWIDTH 600 0
DWIDTH 22 0
BBX 17 30 3 0
BITMAP
00E000
00F800
00F800
00F800
00F000
01F000
01F000
01E000
01E000
01E000
000000
000000
07F800
3FFE00
7FFF00
7FFE00
FC0E00
F80400
7C0000
7FF000
1FF000
3FF000
FFF000
F80000
F80200
FC0E00
FFFF00
7FFF80
3FFE00
0FF800
ENDCHAR
STARTCHAR etatonos
ENCODING 942
SWIDTH 600 0
DWIDTH 22 0
BBX 17 37 2 -7
BITMAP
007000
007C00
007C00
00F800
00F800
00F800
00F000
00F000
00F000
00E000
000000
000000
F87C00
F9FF00
7BFF00
7FFF80
7F1F80
7E0F80
7E0F80
7C0F80
7C0F80
7C0F80
7C0F80
7C0F80
7C0F80
7C0F80
7C0F80
7C0F80
7C0F80
7C0F80
000F80
000F80
000F80
000F80
000F80
000F80
000F80
ENDCHAR
STARTCHAR iotatonos
ENCODING 943
SWIDTH 600 0
DWIDTH 22 0
BBX 17 30 2 0
BITMAP
01E000
01F800
01F000
01F000
01E000
01E000
03E000
03C000
03C000
03C000
000000
000000
FFE000
FFE000
FFE000
FFE000
07E000
07E000
07C000
07C000
07C000
07C000
07C000
07C000
03E000
03E100
03FF80
03FF80
01FF80
007F00
ENDCHAR
STARTCHAR upsilondieresistonos
ENCODING 944
SWIDTH 600 0
DWIDTH 22 0
BBX 17 30 2 0
BITMAP
00E000
00F000
00E000
01E000
01E000
39CE00
3DDF00
7DDF00
398E00
000000
000000
000000
F80300
FC1F00
7C1F80
7C1F80
7C0F80
7C0F80
7C0F80
7C0F80
FC0F80
FC0F80
F80F80
7C0F80
7C1F80
7E3F00
7FFF00
3FFE00
1FFC00
07F000
ENDCHAR
STARTCHAR alpha
ENCODING 945
SWIDTH 600 0
DWIDTH 22 0
BBX 19 18 2 0
BITMAP
0F87C0
1FE7C0
3FFF80
7FFF80
FE7F80
FC3F80
F81F80
F81F00
F81F00
F81F00
F81F00
F81F00
FC3F00
FC7F00
7FFFE0
7FEFE0
3FCFE0
0F87E0
ENDCHAR
STARTCHAR beta
ENCODING 946
SWIDTH 600 0
DWIDTH 22 0
BBX 17 33 3 -7
BITMAP
0FE000
1FF800
3FFC00
7FFC00
FC7E00
F83E00
F83E00
F83E00
F83E00
F87E00
F8FC00
F9F800
F9F800
F9FE00
F9FF00
F81F00
F81F80
F80F80
F80F80
F80F80
F81F80
FE3F80
FFFF00
FFFE00
FBFC00
F9F800
F80000
F80000
F80000
F80000
F80000
F80000
F80000
ENDCHAR
STARTCHAR gamma
ENCODING 947
SWIDTH 600 0
DWIDTH 22 0
BBX 19 26 1 -7
BITMAP
3C03E0
FC03E0
7E03E0
7E03E0
3F07C0
3F07C0
1F07C0
1F8780
0F8F80
0F8F80
07DF00
07DF00
07DE00
03FE00
03FC00
03FC00
03F800
01F800
01F000
01F000
01F000
01F000
01F000
01F000
01F000
01F000
ENDCHAR
STARTCHAR delta
ENCODING 948
SWIDTH 600 0
DWIDTH 22 0
BBX 18 26 2 0
BITMAP
07F800
1FFF80
3FFF80
3FFF00
3E0F00
3E0100
3F0000
1F8000
1FE000
0FF000
07FC00
0FFE00
3FFF00
7E3F80
7C1F80
F80F80
F80FC0
F807C0
F807C0
F80FC0
FC0F80
7E1F80
7FFF00
3FFF00
1FFC00
07F000
ENDCHAR
STARTCHAR epsilon
ENCODING 949
SWIDTH 600 0
DWIDTH 22 0
BBX 17 18 3 0
BITMAP
07F800
3FFE00
7FFF00
7FFE00
FC0E00
F80400
7C0000
7FF000
1FF000
3FF000
FFF000
F80000
F80200
FC0E00
FFFF00
7FFF80
3FFE00
0FF800
ENDCHAR
STARTCHAR zeta
ENCODING 950
SWIDTH 600 0
DWIDTH 22 0
BBX 16 33 3 -7
BITMAP
7FFF
7FFF
7FFF
7FFF
007E
00FC
01F0
07E0
0FC0
0F80
1F00
3F00
7E00
7C00
7C00
FC00
FC00
FC00
FC00
FC00
FE00
7F80
7FF0
3FFE
1FFF
03FF
007F
001F
000F
001F
001E
003E
0004
ENDCHAR
STARTCHAR eta
ENCODING 951
SWIDTH 600 0
DWIDTH 22 0
BBX 17 25 2 -7
BITMAP
F87C00
F9FF00
7BFF00
7FFF80
7F1F80
7E0F80
7E0F80
7C0F80
7C0F80
7C0F80
7C0F80
7C0F80
7C0F80
7C0F80
7C0F80
7C0F80
7C0F80
7C0F80
000F80
000F80
000F80
000F80
000F80
000F80
000F80
ENDCHAR
STARTCHAR theta
ENCODING 952
SWIDTH 600 0
DWIDTH 22 0
BBX 18 26 2 0
BITMAP
03F000
0FFC00
1FFE00
3FFE00
3E3F00
7C1F00
7C0F80
7C0F80
F80F80
F80F80
F80FC0
FFFFC0
FFFFC0
FFFFC0
FFFFC0
F80FC0
F80F80
F80F80
7C0F80
7C0F80
7C1F00
3E3F00
3FFE00
1FFE00
0FFC00
03F000
ENDCHAR
STARTCHAR iota
ENCODING 953
SWIDTH 600 0
DWIDTH 22 0
BBX 17 18 2 0
BITMAP
FFE000
FFE000
FFE000
FFE000
07E000
07E000
07C000
07C000
07C000
07C000
07C000
07C000
03E000
03E100
03FF80
03FF80
01FF80
007F00
ENDCHAR
STARTCHAR kappa
ENCODING 954
SWIDTH 600 0
DWIDTH 22 0
BBX 18 18 3 0
BITMAP
F80300
F80F00
F83F00
F87F00
F8FE00
F9F800
FBF000
FBE000
FFE000
FFF000
FFF800
FEF800
FCFC00
F87E00
F87E00
F83F00
F81F80
F81FC0
ENDCHAR
STARTCHAR lambda
ENCODING 955
SWIDTH 600 0
DWIDTH 22 0
BBX 20 26 1 0
BITMAP
7F0000
7FC000
7FE000
3FE000
43F000
01F000
00F800
00F800
00FC00
01FC00
01FC00
03FE00
03FE00
03FE00
07DF00
07DF00
0F9F00
0F8F80
1F8F80
1F0F80
1F0FC0
3F07C0
3E07E0
7E07E0
7E03E0
FC03F0
ENDCHAR
STARTCHAR uni03BC
ENCODING 956
SWIDTH 600 0
DWIDTH 22 0
BBX 19 25 2 -7
BITMAP
FC0F80
FC0F80
FC0F80
FC0F80
FC0F80
FC0F80
FC0F80
FC0F80
FC0F80
FC0F80
FC0F80
FC1F80
FC1F80
FC3F80
FFFFC0
FFFFE0
FFE7E0
FBC3E0
F80000
F80000
F80000
F80000
F80000
FC0000
FC0000
ENDCHAR
STARTCHAR nu
ENCODING 957
SWIDTH 600 0
DWIDTH 22 0
BBX 19 19 1 0
BITMAP
3C03E0
FC03E0
7E03E0
7E07C0
3F07C0
3F07C0
1F07C0
1F8780
0F8F80
0F8F80
07CF00
07DF00
07DE00
03FE00
03FC00
03FC00
01F800
01F800
01F000
ENDCHAR
STARTCHAR xi
ENCODING 958
SWIDTH 600 0
DWIDTH 22 0
BBX 17 33 2 -7
BITMAP
FFFF80
FFFF80
FFFF80
FFFF80
0FC000
1F0000
1F0000
1F0000
1F0000
1FC000
0FFE00
03FE00
07FE00
1FFE00
3F8000
3E0000
7E0000
7C0000
7C0000
7E0000
7F0000
3FC000
3FFC00
1FFF00
0FFF80
01FF80
003F80
000F80
000780
000F80
000F00
001F00
000200
ENDCHAR
STARTCHAR omicron
ENCODING 959
SWIDTH 600 0
DWIDTH 22 0
BBX 18 18 2 0
BITMAP
03F000
0FFC00
3FFE00
3FFF00
7E1F80
FC0F80
FC0F80
F80FC0
F80FC0
F80FC0
F80FC0
FC0F80
FC0F80
7E1F80
3FFF00
3FFE00
0FFC00
03F000
ENDCHAR
STARTCHAR pi
ENCODING 960
SWIDTH 600 0
DWIDTH 22 0
BBX 21 18 0 0
BITMAP
FFFFF8
FFFFF8
FFFFF8
FFFFF8
0F87C0
0F87C0
0F87C0
0F87C0
0F87C0
0F87C0
0F87C0
0F87C0
0F87C0
1F87C0
1F87F8
1F03F8
1F03F8
1F00F8
ENDCHAR
STARTCHAR rho
ENCODING 961
SWIDTH 600 0
DWIDTH 22 0
BBX 17 25 3 -7
BITMAP
07F000
1FFC00
3FFE00
7FFF00
7C3F00
F81F00
F81F80
F81F80
F81F80
F81F80
F81F80
F81F80
F81F00
FC3F00
FFFE00
FFFE00
FFFC00
FBF000
F80000
F80000
F80000
F80000
F80000
F80000
F80000
ENDCHAR
STARTCHAR uni03C2
ENCODING 962
SWIDTH 600 0
DWIDTH 22 0
BBX 16 25 3 -7
BITMAP
03F8
0FFE
1FFF
3FFE
7F06
FC00
FC00
F800
F800
F800
F800
FC00
FE00
7F00
7FF0
3FFC
0FFE
03FF
003F
001F
001F
001E
003E
007C
000C
ENDCHAR
STARTCHAR sigma
ENCODING 963
SWIDTH 600 0
DWIDTH 22 0
BBX 19 18 2 0
BITMAP
07FFE0
1FFFE0
3FFFE0
7FFFE0
7E3E00
FC1E00
F81F00
F81F00
F81F00
F81F00
F81F00
F81F00
FC1F00
7E3F00
7FFE00
3FFC00
1FF800
07E000
ENDCHAR
STARTCHAR tau
ENCODING 964
SWIDTH 600 0
DWIDTH 22 0
BBX 18 18 2 0
BITMAP
FFFFC0
FFFFC0
FFFFC0
FFFFC0
03E000
03E000
03E000
03E000
03E000
03E000
03E000
03E000
03E000
03F000
03FF00
01FF00
00FF00
007F00
ENDCHAR
STARTCHAR upsilon
ENCODING 965
SWIDTH 600 0
DWIDTH 22 0
BBX 17 18 2 0
BITMAP
F80300
FC1F00
7C1F80
7C1F80
7C0F80
7C0F80
7C0F80
7C0F80
FC0F80
FC0F80
F80F80
7C0F80
7C1F80
7E3F00
7FFF00
3FFE00
1FFC00
07F000
ENDCHAR
STARTCHAR phi
ENCODING 966
SWIDTH 600 0
DWIDTH 22 0
BBX 20 30 1 -7
BITMAP
00F000
00F000
00F000
00F000
00F000
07FC00
1FFF00
3FFF80
7FFFC0
7CF7E0
F8F3E0
F8F1E0
F8F1F0
F8F1F0
F8F1F0
F8F1F0
F8F1E0
F8F3E0
7CF7E0
7FFFC0
3FFF80
1FFF00
07FC00
00F000
00F000
00F000
00F000
00F000
00F000
00F000
ENDCHAR
STARTCHAR chi
ENCODING 967
SWIDTH 600 0
DWIDTH 22 0
BBX 20 26 1 -7
BITMAP
3C07E0
FE07C0
7E0FC0
3F0F80
3F1F80
1F9F00
0F9F00
0FFE00
07FE00
07FC00
03FC00
01F800
01F800
01F800
01FC00
03FC00
03FE00
07FE00
07DF00
0F9F80
1F8F80
1F0FC0
3F07C0
3E07E0
7E03F0
7C03C0
ENDCHAR
STARTCHAR psi
ENCODING 968
SWIDTH 600 0
DWIDTH 22 0
BBX 20 30 1 -7
BITMAP
00F000
00F000
00F000
00F000
00F000
F8F0E0
F8F3E0
F8F3E0
F8F3E0
F8F1F0
F8F1F0
F8F1F0
F8F1F0
F8F1F0
F8F1F0
F8F1F0
F8F1F0
F8F3E0
7CF7E0
7FFFE0
3FFFC0
1FFF80
07FE00
00F000
00F000
00F000
00F000
00F000
00F000
00F000
ENDCHAR
STARTCHAR omega
ENCODING 969
SWIDTH 600 0
DWIDTH 22 0
BBX 20 18 1 0
BITMAP
300080
3C07C0
7E0FC0
7C07E0
7C03E0
F803F0
F9F3F0
F8F1F0
F8F1F0
F8F1F0
F8F1F0
F8F1F0
F8F3E0
F9F3E0
7FFFE0
7FFFC0
3FBFC0
0F0F00
ENDCHAR
STARTCHAR iotadieresis
ENCODING 970
SWIDTH 600 0
DWIDTH 22 0
BBX 17 26 2 0
BITMAP
3C3C00
3E7E00
7E7E00
7E7E00
3E7E00
3C3C00
000000
000000
FFE000
FFE000
FFE000
FFE000
07E000
07E000
07C000
07C000
07C000
07C000
07C000
07C000
03E000
03E100
03FF80
03FF80
01FF80
007F00
ENDCHAR
STARTCHAR upsilondieresis
ENCODING 971
SWIDTH 600 0
DWIDTH 22 0
BBX 17 26 2 0
BITMAP
1C1C00
3E3E00
3E3E00
3E3E00
3E3E00
1C1C00
000000
000000
F80300
FC1F00
7C1F80
7C1F80
7C0F80
7C0F80
7C0F80
7C0F80
FC0F80
FC0F80
F80F80
7C0F80
7C1F80
7E3F00
7FFF00
3FFE00
1FFC00
07F000
ENDCHAR
STARTCHAR omicrontonos
ENCODING 972
SWIDTH 600 0
DWIDTH 22 0
BBX 18 30 2 0
BITMAP
00E000
00F800
00F800
00F000
01F000
01F000
01E000
01E000
01E000
01E000
000000
000000
03F000
0FFC00
3FFE00
3FFF00
7E1F80
FC0F80
FC0F80
F80FC0
F80FC0
F80FC0
F80FC0
FC0F80
FC0F80
7E1F80
3FFF00
3FFE00
0FFC00
03F000
ENDCHAR
STARTCHAR upsilontonos
ENCODING 973
SWIDTH 600 0
DWIDTH 22 0
BBX 17 30 2 0
BITMAP
00E000
00F800
01F000
01F000
01F000
01F000
01E000
01E000
01E000
01C000
000000
000000
F80300
FC1F00
7C1F80
7C1F80
7C0F80
7C0F80
7C0F80
7C0F80
FC0F80
FC0F80
F80F80
7C0F80
7C1F80
7E3F00
7FFF00
3FFE00
1FFC00
07F000
ENDCHAR
STARTCHAR omegatonos
ENCODING 974
SWIDTH 600 0
DWIDTH 22 0
BBX 20 30 1 0
BITMAP
007000
007C00
007C00
007800
00F800
00F800
00F000
00F000
00F000
00F000
000000
000000
300080
3C07C0
7E0FC0
7C07E0
7C03E0
F803F0
F9F3F0
F8F1F0
F8F1F0
F8F1F0
F8F1F0
F8F1F0
F8F3E0
F9F3E0
7FFFE0
7FFFC0
3FBFC0
0F0F00
ENDCHAR
STARTCHAR uni03D0
ENCODING 976
SWIDTH 600 0
DWIDTH 22 0
BBX 17 26 3 0
BITMAP
0FE000
1FF800
7FFC00
7FFC00
FC7E00
F83E00
F83E00
F83E00
F83E00
F83E00
F87C00
F9F800
FFF800
FFFE00
FFFF00
FC1F00
F81F80
F80F80
F80F80
F80F80
FC1F80
7E3F80
7FFF00
3FFE00
1FFC00
07F000
ENDCHAR
STARTCHAR uni03D1
ENCODING 977
SWIDTH 600 0
DWIDTH 22 0
BBX 18 26 2 0
BITMAP
07E000
1FF800
3FFC00
7FFE00
FC3F00
F81F00
F80F80
F80F80
F80F80
7E0F80
7FFF80
3FFFC0
1FFFC0
07FFC0
000FC0
7C0FC0
7C0F80
7C0F80
7C0F80
7C0F80
7C1F80
7E1F00
3FFF00
3FFE00
1FFC00
07F000
ENDCHAR
STARTCHAR uni03D5
ENCODING 981
SWIDTH 600 0
DWIDTH 22 0
BBX 20 30 1 -7
BITMAP
00F000
00F000
00F000
00F000
00F000
07FC00
1FFF00
3FFF80
7FFFC0
7CF7E0
F8F3E0
F8F1E0
F8F1F0
F8F1F0
F8F1F0
F8F1F0
F8F1E0
F8F3E0
7CF7E0
7FFFC0
3FFF80
1FFF00
07FC00
00F000
00F000
00F000
00F000
00F000
00F000
00F000
ENDCHAR
STARTCHAR uni03D7
ENCODING 983
SWIDTH 600 0
DWIDTH 22 0
BBX 18 24 3 -6
BITMAP
F80300
F80F00
F83F00
F87F00
F8FE00
F9F800
FBF000
FBE000
FFE000
FFF000
FFF800
FEF800
FCFC00
F87E00
F87E00
F83F00
F81F80
F80FC0
000FC0
001F80
003F00
007E00
00FE00
01FC00
ENDCHAR
STARTCHAR uni03D9
ENCODING 985
SWIDTH 600 0
DWIDTH 22 0
BBX 18 25 2 -7
BITMAP
03F000
0FFC00
3FFE00
7FFF00
7E1F80
FC0F80
F80FC0
F80FC0
F80FC0
F80FC0
F80FC0
F80FC0
FC0F80
7E1F80
7FFF00
3FFF00
1FFC00
07F800
03E000
03E000
03E000
03F000
03F000
03F000
03F000
ENDCHAR
STARTCHAR uni03DB
ENCODING 987
SWIDTH 600 0
DWIDTH 22 0
BBX 16 25 3 -7
BITMAP
03FF
0FFF
3FFF
7FFF
7F00
FC00
FC00
F800
F800
F800
F800
FC00
FE00
7F80
3FF0
3FFC
0FFE
03FF
007F
001F
001F
001E
003E
003C
004C
ENDCHAR
STARTCHAR uni03DD
ENCODING 989
SWIDTH 600 0
DWIDTH 22 0
BBX 15 25 4 -7
BITMAP
FFFE
FFFE
FFFE
FFFE
F800
F800
F800
F800
F800
FFFC
FFFC
FFFC
FFFC
F800
F800
F800
F800
F800
F800
F800
F800
F800
F800
F800
FC00
ENDCHAR
STARTCHAR uni03E1
ENCODING 993
SWIDTH 600 0
DWIDTH 22 0
BBX 19 32 1 -7
BITMAP
020000
070000
0FC000
1FE000
0FF000
07F000
03F800
01FC00
00FE00
007E00
007F00
01FF00
0FFF80
3FFF80
FFEF80
7F8FC0
3E07C0
3807C0
201FC0
007FE0
03FFE0
0FFFE0
0FFBE0
07E3E0
0783E0
0203E0
0003E0
0003E0
0007E0
0007E0
0007C0
0000C0
ENDCHAR
STARTCHAR uni0400
ENCODING 1024
SWIDTH 600 0
DWIDTH 22 0
BBX 16 32 3 0
BITMAP
0200
0700
0F80
1FC0
07E0
03F0
00E0
0040
FFFF
FFFF
FFFF
FFFF
FC00
FC00
FC00
FC00
FC00
FC00
FFFC
FFFC
FFFC
FFFC
FC00
FC00
FC00
FC00
FC00
FC00
FFFF
FFFF
FFFF
FFFF
ENDCHAR
STARTCHAR uni0401
ENCODING 1025
SWIDTH 600 0
DWIDTH 22 0
BBX 16 30 3 0
BITMAP
1C1C
3E3E
3E3E
3E3E
1C1C
0000
FFFF
FFFF
FFFF
FFFF
FC00
FC00
FC00
FC00
FC00
FC00
FFFC
FFFC
FFFC
FFFC
FC00
FC00
FC00
FC00
FC00
FC00
FFFF
FFFF
FFFF
FFFF
ENDCHAR
STARTCHAR uni0402
ENCODING 1026
SWIDTH 600 0
DWIDTH 22 0
BBX 20 24 1 0
BITMAP
FFFF00
FFFF00
FFFF00
FFFF00
07C000
07C000
07C000
07C000
07C000
07FE00
07FF80
07FFC0
07FFE0
07C7E0
07C3E0
07C3E0
07C1F0
07C1E0
07C3E0
07C3E0
07CFE0
07CFE0
07CFC0
07DF00
ENDCHAR
STARTCHAR uni0403
ENCODING 1027
SWIDTH 600 0
DWIDTH 22 0
BBX 15 32 4 0
BITMAP
0040
01C0
03E0
07F0
0FE0
1F80
0F00
0400
FFFE
FFFE
FFFE
FFFE
F800
F800
F800
F800
F800
F800
F800
F800
F800
F800
F800
F800
F800
F800
F800
F800
F800
F800
F800
F800
ENDCHAR
STARTCHAR uni0404
ENCODING 1028
SWIDTH 600 0
DWIDTH 22 0
BBX 18 24 2 0
BITMAP
00FC00
07FF00
0FFFC0
1FFF80
3F8780
7E0100
7E0000
7C0000
FC0000
FC0000
FFFC00
FFFC00
FFFC00
FFFC00
F80000
FC0000
FC0000
7C0000
7E0100
3F8780
1FFFC0
1FFFC0
07FF80
01FC00
ENDCHAR
STARTCHAR uni0405
ENCODING 1029
SWIDTH 600 0
DWIDTH 22 0
BBX 18 24 2 0
BITMAP
03F800
0FFE00
1FFF80
3FFF00
7E0F00
7C0200
7C0000
7E0000
7F0000
7FC000
3FF800
1FFE00
0FFF00
03FF80
007F80
001FC0
000FC0
000FC0
300FC0
7C1F80
FFFF80
FFFF00
3FFE00
07F000
ENDCHAR
STARTCHAR uni0406
ENCODING 1030
SWIDTH 600 0
DWIDTH 22 0
BBX 16 24 3 0
BITMAP
FFFF
FFFF
FFFF
FFFF
07C0
07C0
07C0
07C0
07C0
07C0
07C0
07C0
07C0
07C0
07C0
07C0
07C0
07C0
07C0
07C0
FFFF
FFFF
FFFF
FFFF
ENDCHAR
STARTCHAR uni0407
ENCODING 1031
SWIDTH 600 0
DWIDTH 22 0
BBX 16 30 3 0
BITMAP
3838
7C7C
7C7C
7C7C
3838
0000
FFFF
FFFF
FFFF
FFFF
07C0
07C0
07C0
07C0
07C0
07C0
07C0
07C0
07C0
07C0
07C0
07C0
07C0
07C0
07C0
07C0
FFFF
FFFF
FFFF
FFFF
ENDCHAR
STARTCHAR uni0408
ENCODING 1032
SWIDTH 600 0
DWIDTH 22 0
BBX 17 24 2 0
BITMAP
3FFF80
3FFF80
3FFF80
3FFF80
001F80
001F80
001F80
001F80
001F80
001F80
001F80
001F80
001F80
001F80
001F80
001F80
001F80
201F00
301F00
7C3F00
FFFE00
7FFE00
3FFC00
0FE000
ENDCHAR
STARTCHAR uni0409
ENCODING 1033
SWIDTH 600 0
DWIDTH 22 0
BBX 22 24 -1 0
BITMAP
0FFE00
0FFE00
0FFE00
0FFE00
0F3E00
0F3E00
0F3E00
0F3E00
0F3E00
0F3FC0
0F3FF0
0F3FF8
0F3FF8
0F3E7C
0F3E7C
1F3E3C
1F3E3C
1E3E3C
1E3E7C
1E3E78
7E3FF8
7C3FF8
7C3FF0
F83FC0
ENDCHAR
STARTCHAR uni040A
ENCODING 1034
SWIDTH 600 0
DWIDTH 22 0
BBX 20 24 1 0
BITMAP
F8F800
F8F800
F8F800
F8F800
F8F800
F8F800
F8F800
F8F800
F8F800
FFFF00
FFFFC0
FFFFE0
FFFFE0
FFF9F0
F8F9F0
F8F9F0
F8F9F0
F8F9F0
F8F9F0
F8FBE0
F8FFE0
F8FFE0
F8FFC0
F8FF00
ENDCHAR
STARTCHAR uni040B
ENCODING 1035
SWIDTH 600 0
DWIDTH 22 0
BBX 19 24 1 0
BITMAP
FFFF00
FFFF00
FFFF00
FFFF00
07C000
07C000
07C000
07C000
07C000
07FF00
07FF80
07FFC0
07FFE0
07C7E0
07C3E0
07C3E0
07C3E0
07C3E0
07C3E0
07C3E0
07C3E0
07C3E0
07C3E0
07C3E0
ENDCHAR
STARTCHAR uni040C
ENCODING 1036
SWIDTH 600 0
DWIDTH 22 0
BBX 19 32 2 0
BITMAP
000800
003800
007C00
00FE00
01FC00
03F000
01E000
008000
FC03E0
FC07C0
FC0FC0
FC1FC0
FC1E00
FC3E00
FC3C00
FC7C00
FC7800
FCF800
FFF800
FFF000
FFF800
FFF800
FCFC00
FC7C00
FC7E00
FC3F00
FC1F00
FC1F80
FC0F80
FC0FC0
FC07E0
FC07E0
ENDCHAR
STARTCHAR uni040D
ENCODING 1037
SWIDTH 600 0
DWIDTH 22 0
BBX 17 32 2 0
BITMAP
020000
070000
0F8000
0FE000
07F000
01F800
00F000
002000
F80F80
F81F80
F81F80
F83F80
F83F80
F87F80
F87F80
F8FF80
F8F780
F8F780
F9F780
F9E780
FBE780
FBC780
FBC780
FFC780
F78780
FF8780
FF0780
FF0780
FE0780
FE0780
FC0780
FC0780
ENDCHAR
STARTCHAR uni040E
ENCODING 1038
SWIDTH 600 0
DWIDTH 22 0
BBX 20 30 1 0
BITMAP
0F0F00
0F9F00
0FFF00
07FE00
01F800
000000
FC03F0
7C03E0
7C03E0
7E07E0
3E07C0
3F07C0
1F0F80
1F0F80
0F8F80
0F9F00
079F00
07DE00
03FE00
03FE00
03FC00
01FC00
01F800
00F800
01F800
01F000
1FF000
1FE000
1FC000
3F0000
ENDCHAR
STARTCHAR uni040F
ENCODING 1039
SWIDTH 600 0
DWIDTH 22 0
BBX 17 31 2 -7
BITMAP
FC0F80
FC0F80
FC0F80
FC0F80
FC0F80
FC0F80
FC0F80
FC0F80
FC0F80
FC0F80
FC0F80
FC0F80
FC0F80
FC0F80
FC0F80
FC0F80
FC0F80
FC0F80
FC0F80
FC0F80
FFFF80
FFFF80
FFFF80
FFFF80
01E000
01E000
01E000
01E000
01E000
01E000
01E000
ENDCHAR
STARTCHAR uni0410
ENCODING 1040
SWIDTH 600 0
DWIDTH 22 0
BBX 21 24 0 0
BITMAP
01FC00
01FC00
01FE00
01FE00
03FE00
03DF00
03DF00
07CF00
07CF80
078F80
0F8F80
0F8780
0F87C0
0F07C0
1FFFC0
1FFFE0
1FFFE0
3FFFE0
3E03F0
3E01F0
7E01F0
7C01F8
7C01F8
FC00F8
ENDCHAR
STARTCHAR uni0411
ENCODING 1041
SWIDTH 600 0
DWIDTH 22 0
BBX 17 24 3 0
BITMAP
FFFF00
FFFF00
FFFF00
FFFF00
F80000
F80000
F80000
F80000
F80000
FFF000
FFFC00
FFFF00
FFFF00
F81F80
F80F80
F80F80
F80F80
F80F80
F80F80
F83F80
FFFF00
FFFE00
FFFC00
FFF000
ENDCHAR
STARTCHAR uni0412
ENCODING 1042
SWIDTH 600 0
DWIDTH 22 0
BBX 17 24 3 0
BITMAP
FFF000
FFFC00
FFFE00
FFFF00
F83F00
F81F00
F81F00
F81F00
F81F00
F83E00
FFFC00
FFF000
FFFE00
FFFF00
F81F80
F80F80
F80F80
F80F80
F80F80
F83F80
FFFF00
FFFF00
FFFC00
FFF000
ENDCHAR
STARTCHAR uni0413
ENCODING 1043
SWIDTH 600 0
DWIDTH 22 0
BBX 15 24 4 0
BITMAP
FFFE
FFFE
FFFE
FFFE
F800
F800
F800
F800
F800
F800
F800
F800
F800
F800
F800
F800
F800
F800
F800
F800
F800
F800
F800
F800
ENDCHAR
STARTCHAR uni0414
ENCODING 1044
SWIDTH 600 0
DWIDTH 22 0
BBX 21 31 0 -7
BITMAP
03FFC0
03FFC0
03FFC0
07FFC0
07C7C0
07C7C0
07C7C0
07C7C0
0787C0
0F87C0
0F87C0
0F87C0
0F87C0
0F87C0
0F07C0
1F07C0
1F07C0
1F07C0
1E07C0
3E07C0
FFFFF8
FFFFF8
FFFFF8
FFFFF8
7C00F8
7C00F8
7C00F8
7C00F8
7C00F8
7C00F8
7C00F8
ENDCHAR
STARTCHAR uni0415
ENCODING 1045
SWIDTH 600 0
DWIDTH 22 0
BBX 16 24 3 0
BITMAP
FFFF
FFFF
FFFF
FFFF
FC00
FC00
FC00
FC00
FC00
FC00
FFFC
FFFC
FFFC
FFFC
FC00
FC00
FC00
FC00
FC00
FC00
FFFF
FFFF
FFFF
FFFF
ENDCHAR
STARTCHAR uni0416
ENCODING 1046
SWIDTH 600 0
DWIDTH 22 0
BBX 22 24 0 0
BITMAP
F0783C
F878F8
7C78F8
7C79F8
1C79E0
1E79E0
1E79C0
1E7BC0
0E7BC0
0F7BC0
0FFFC0
0FFFC0
0FFFC0
1FFFC0
1E7BC0
1E79E0
3E79E0
3C79E0
3C79F0
3C78F0
7C78F0
7C78F8
7878F8
F8787C
ENDCHAR
STARTCHAR uni0417
ENCODING 1047
SWIDTH 600 0
DWIDTH 22 0
BBX 18 24 2 0
BITMAP
07F000
3FFC00
7FFF00
FFFF00
3C3F80
101F80
000F80
000F80
001F80
003F00
07FE00
07FC00
07FF00
07FF80
001F80
0007C0
0007C0
0007C0
300FC0
7C1FC0
FFFF80
FFFF00
3FFE00
07F000
ENDCHAR
STARTCHAR uni0418
ENCODING 1048
SWIDTH 600 0
DWIDTH 22 0
BBX 17 24 2 0
BITMAP
F80F80
F81F80
F81F80
F83F80
F83F80
F87F80
F87F80
F8FF80
F8F780
F8F780
F9F780
F9E780
FBE780
FBC780
FBC780
FFC780
F78780
FF8780
FF0780
FF0780
FE0780
FE0780
FC0780
FC0780
ENDCHAR
STARTCHAR uni0419
ENCODING 1049
SWIDTH 600 0
DWIDTH 22 0
BBX 17 30 2 0
BITMAP
1E1E00
1F3E00
1FFE00
0FFC00
03F000
000000
F80F80
F81F80
F81F80
F83F80
F83F80
F87F80
F87F80
F8FF80
F8F780
F8F780
F9F780
F9E780
FBE780
FBC780
FBC780
FFC780
F78780
FF8780
FF0780
FF0780
FE0780
FE0780
FC0780
FC0780
ENDCHAR
STARTCHAR uni041A
ENCODING 1050
SWIDTH 600 0
DWIDTH 22 0
BBX 19 24 2 0
BITMAP
FC03E0
FC07C0
FC0FC0
FC1FC0
FC1E00
FC3E00
FC3C00
FC7C00
FC7800
FCF800
FFF800
FFF000
FFF800
FFF800
FCFC00
FC7C00
FC7E00
FC3F00
FC1F00
FC1F80
FC0F80
FC0FC0
FC07E0
FC07E0
ENDCHAR
STARTCHAR uni041B
ENCODING 1051
SWIDTH 600 0
DWIDTH 22 0
BBX 19 24 0 0
BITMAP
01FFE0
01FFE0
03FFE0
03FFE0
03E3E0
03E3E0
03C3E0
03C3E0
07C3E0
07C3E0
07C3E0
07C3E0
07C3E0
0F83E0
0F83E0
0F83E0
0F83E0
0F03E0
1F03E0
1F03E0
7E03E0
FE03E0
FC03E0
F803E0
ENDCHAR
STARTCHAR uni041C
ENCODING 1052
SWIDTH 600 0
DWIDTH 22 0
BBX 18 24 2 0
BITMAP
FC0FC0
FC0FC0
FC1FC0
FE1FC0
FE1FC0
FE3FC0
FE3BC0
FF3BC0
F73FC0
F77FC0
F777C0
F7F7C0
F3F7C0
F3E7C0
F3E7C0
F1E7C0
F1C7C0
F1C7C0
F007C0
F007C0
F007C0
F007C0
F007C0
F007C0
ENDCHAR
STARTCHAR uni041D
ENCODING 1053
SWIDTH 600 0
DWIDTH 22 0
BBX 17 24 2 0
BITMAP
FC0F80
FC0F80
FC0F80
FC0F80
FC0F80
FC0F80
FC0F80
FC0F80
FC0F80
FC0F80
FFFF80
FFFF80
FFFF80
FFFF80
FC0F80
FC0F80
FC0F80
FC0F80
FC0F80
FC0F80
FC0F80
FC0F80
FC0F80
FC0F80
ENDCHAR
STARTCHAR uni041E
ENCODING 1054
SWIDTH 600 0
DWIDTH 22 0
BBX 19 24 1 0
BITMAP
01F800
07FE00
1FFF00
1FFF80
3F1FC0
7E0FC0
7E07C0
7C07E0
7C03E0
FC03E0
FC03E0
FC03E0
FC03E0
FC03E0
7C03E0
7C07E0
7C07E0
7E07C0
3E0FC0
3F1FC0
1FFF80
1FFF00
07FE00
01F800
ENDCHAR
STARTCHAR uni041F
ENCODING 1055
SWIDTH 600 0
DWIDTH 22 0
BBX 17 24 2 0
BITMAP
FFFF80
FFFF80
FFFF80
FFFF80
FC0F80
FC0F80
FC0F80
FC0F80
FC0F80
FC0F80
FC0F80
FC0F80
FC0F80
FC0F80
FC0F80
FC0F80
FC0F80
FC0F80
FC0F80
FC0F80
FC0F80
FC0F80
FC0F80
FC0F80
ENDCHAR
STARTCHAR uni0420
ENCODING 1056
SWIDTH 600 0
DWIDTH 22 0
BBX 17 24 3 0
BITMAP
FFF000
FFFC00
FFFE00
FFFF00
F83F80
F81F80
F80F80
F80F80
F80F80
F80F80
F81F80
F83F00
FFFF00
FFFE00
FFFC00
FFF000
F80000
F80000
F80000
F80000
F80000
F80000
F80000
F80000
ENDCHAR
STARTCHAR uni0421
ENCODING 1057
SWIDTH 600 0
DWIDTH 22 0
BBX 19 24 2 0
BITMAP
00FC00
07FF80
0FFFC0
1FFF80
3F8700
7F0200
7E0000
7C0000
FC0000
FC0000
F80000
F80000
F80000
F80000
FC0000
FC0000
7C0000
7E0000
7F0100
3F8780
1FFFC0
0FFFE0
07FF80
01FC00
ENDCHAR
STARTCHAR uni0422
ENCODING 1058
SWIDTH 600 0
DWIDTH 22 0
BBX 19 24 1 0
BITMAP
FFFFE0
FFFFE0
FFFFE0
FFFFE0
01F000
01F000
01F000
01F000
01F000
01F000
01F000
01F000
01F000
01F000
01F000
01F000
01F000
01F000
01F000
01F000
01F000
01F000
01F000
01F000
ENDCHAR
STARTCHAR uni0423
ENCODING 1059
SWIDTH 600 0
DWIDTH 22 0
BBX 20 24 1 0
BITMAP
FC03F0
7C03E0
7C03E0
7E07E0
3E07C0
3F07C0
1F0F80
1F0F80
0F8F80
0F9F00
079F00
07DE00
03FE00
03FE00
03FC00
01FC00
01F800
00F800
01F800
01F000
1FF000
1FE000
1FC000
3F0000
ENDCHAR
STARTCHAR uni0424
ENCODING 1060
SWIDTH 600 0
DWIDTH 22 0
BBX 20 24 1 0
BITMAP
00F000
00F000
00F000
07FC00
1FFF80
3FFFC0
7FFFE0
FCF7E0
F8F3F0
F8F1F0
F0F1F0
F0F1F0
F0F1F0
F0F1F0
F8F1F0
F8F3F0
FCF7E0
7FFFE0
3FFFC0
1FFF80
07FC00
00F000
00F000
00F000
ENDCHAR
STARTCHAR uni0425
ENCODING 1061
SWIDTH 600 0
DWIDTH 22 0
BBX 20 24 1 0
BITMAP
FC03F0
7E07E0
7E07C0
3F0FC0
1F0F80
1F9F80
0F9F00
0FDF00
07FE00
07FC00
03FC00
03F800
03F800
07FC00
07FE00
0FBE00
0FBF00
1F1F00
1F1F80
3F0F80
3E0FC0
7E07E0
FC07E0
FC03F0
ENDCHAR
STARTCHAR uni0426
ENCODING 1062
SWIDTH 600 0
DWIDTH 22 0
BBX 20 31 2 -7
BITMAP
FC0F80
FC0F80
FC0F80
FC0F80
FC0F80
FC0F80
FC0F80
FC0F80
FC0F80
FC0F80
FC0F80
FC0F80
FC0F80
FC0F80
FC0F80
FC0F80
FC0F80
FC0F80
FC0F80
FC0F80
FFFFF0
FFFFF0
FFFFF0
FFFFF0
0001F0
0001F0
0001F0
0001F0
0001F0
0001E0
0001E0
ENDCHAR
STARTCHAR uni0427
ENCODING 1063
SWIDTH 600 0
DWIDTH 22 0
BBX 17 24 2 0
BITMAP
F80F80
F80F80
F80F80
F80F80
F80F80
F80F80
F80F80
F80F80
F80F80
FC0F80
FE0F80
7FFF80
3FFF80
1FFF80
07FF80
000F80
000F80
000F80
000F80
000F80
000F80
000F80
000F80
000F80
ENDCHAR
STARTCHAR uni0428
ENCODING 1064
SWIDTH 600 0
DWIDTH 22 0
BBX 20 24 1 0
BITMAP
F8F1F0
F8F1F0
F8F1F0
F8F1F0
F8F1F0
F8F1F0
F8F1F0
F8F1F0
F8F1F0
F8F1F0
F8F1F0
F8F1F0
F8F1F0
F8F1F0
F8F1F0
F8F1F0
F8F1F0
F8F1F0
F8F1F0
F8F1F0
FFFFF0
FFFFF0
FFFFF0
FFFFF0
ENDCHAR
STARTCHAR uni0429
ENCODING 1065
SWIDTH 600 0
DWIDTH 22 0
BBX 21 31 1 -7
BITMAP
F9E3E0
F9E3E0
F9E3E0
F9E3E0
F9E3E0
F9E3E0
F9E3E0
F9E3E0
F9E3E0
F9E3E0
F9E3E0
F9E3E0
F9E3E0
F9E3E0
F9E3E0
F9E3E0
F9E3E0
F9E3E0
F9E3E0
F9E3E0
FFFFF8
FFFFF8
FFFFF8
FFFFF8
0000F8
0000F8
0000F8
0000F8
0000F8
0000F0
0000F0
ENDCHAR
STARTCHAR uni042A
ENCODING 1066
SWIDTH 600 0
DWIDTH 22 0
BBX 19 24 1 0
BITMAP
FFC000
FFC000
FFC000
FFC000
07C000
07C000
07C000
07C000
07C000
07FE00
07FF80
07FFC0
07FFE0
07C7E0
07C3E0
07C3E0
07C3E0
07C3E0
07C3E0
07C7E0
07FFE0
07FFC0
07FF80
07FE00
ENDCHAR
STARTCHAR uni042B
ENCODING 1067
SWIDTH 600 0
DWIDTH 22 0
BBX 19 24 1 0
BITMAP
F801E0
F801E0
F801E0
F801E0
F801E0
F801E0
F801E0
F801E0
F801E0
FF81E0
FFE1E0
FFE1E0
FFF1E0
F9F1E0
F8F9E0
F8F9E0
F8F9E0
F8F9E0
F8F9E0
F9F1E0
FFF1E0
FFE1E0
FFC1E0
FF81E0
ENDCHAR
STARTCHAR uni042C
ENCODING 1068
SWIDTH 600 0
DWIDTH 22 0
BBX 17 24 3 0
BITMAP
F80000
F80000
F80000
F80000
F80000
F80000
F80000
F80000
F80000
FFF000
FFFC00
FFFF00
FFFF00
F83F80
F80F80
F80F80
F80F80
F80F80
F81F80
F83F80
FFFF00
FFFE00
FFFC00
FFF000
ENDCHAR
STARTCHAR uni042D
ENCODING 1069
SWIDTH 600 0
DWIDTH 22 0
BBX 19 24 1 0
BITMAP
07F000
3FFC00
7FFE00
FFFF00
383F80
101F80
000FC0
0007C0
0007C0
0007C0
07FFE0
07FFE0
07FFE0
07FFE0
0007C0
0007C0
0007C0
000FC0
300F80
783F80
7FFF00
FFFE00
3FFC00
0FE000
ENDCHAR
STARTCHAR uni042E
ENCODING 1070
SWIDTH 600 0
DWIDTH 22 0
BBX 20 24 1 0
BITMAP
F81E00
F87F80
F87FC0
F8FFC0
F8F3E0
F9F3E0
F9E3E0
F9E1F0
F9E1F0
F9E1F0
FFE1F0
FFE1F0
FFE1F0
FFE1F0
F9E1F0
F9E1F0
F9E1F0
F9E3E0
F9F3E0
F8F3E0
F8FFC0
F87FC0
F87F80
F81E00
ENDCHAR
STARTCHAR uni042F
ENCODING 1071
SWIDTH 600 0
DWIDTH 22 0
BBX 19 24 0 0
BITMAP
01FFE0
0FFFE0
1FFFE0
1FFFE0
3F03E0
3E03E0
3E03E0
3E03E0
3E03E0
3E03E0
3F83E0
1FFFE0
1FFFE0
07FFE0
03FFE0
07E3E0
07C3E0
0FC3E0
0F83E0
1F83E0
3F03E0
3F03E0
7E03E0
FC03E0
ENDCHAR
STARTCHAR uni0430
ENCODING 1072
SWIDTH 600 0
DWIDTH 22 0
BBX 17 18 2 0
BITMAP
07F800
3FFE00
7FFF00
3FFF00
383F80
201F80
000F80
01FF80
0FFF80
3FFF80
7FFF80
FE0F80
F80F80
FC1F80
FFFF80
7FFF80
3FE780
1F8780
ENDCHAR
STARTCHAR uni0431
ENCODING 1073
SWIDTH 600 0
DWIDTH 22 0
BBX 18 26 2 0
BITMAP
000300
007F00
03FF00
0FFF80
1FFF00
3FF000
3F0000
7C0000
7C0000
7CF800
FBFE00
FFFF00
FFFF00
FE1F80
FC0F80
F80F80
F80F80
F80FC0
F80F80
7C0F80
7C1F80
7E1F80
3FFF00
1FFE00
0FFC00
03F000
ENDCHAR
STARTCHAR uni0432
ENCODING 1074
SWIDTH 600 0
DWIDTH 22 0
BBX 17 18 3 0
BITMAP
FFF000
FFFC00
FFFE00
FFFF00
F83F00
F81F00
F83F00
FFFE00
FFF800
FFFE00
FFFF00
F81F00
F80F80
F81F80
FFFF00
FFFF00
FFFE00
FFF800
ENDCHAR
STARTCHAR uni0433
ENCODING 1075
SWIDTH 600 0
DWIDTH 22 0
BBX 15 18 4 0
BITMAP
FFFE
FFFE
FFFE
FFFE
F800
F800
F800
F800
F800
F800
F800
F800
F800
F800
F800
F800
F800
F800
ENDCHAR
STARTCHAR uni0434
ENCODING 1076
SWIDTH 600 0
DWIDTH 22 0
BBX 20 25 1 -7
BITMAP
0FFF80
1FFF80
1FFF80
1FFF80
1F0F80
1F0F80
1F0F80
1F0F80
1E0F80
1E0F80
3E0F80
3E0F80
3E0F80
7C0F80
FFFFF0
FFFFF0
FFFFF0
FFFFF0
F801F0
F801F0
F801F0
F801F0
F801F0
F801F0
F801E0
ENDCHAR
STARTCHAR uni0435
ENCODING 1077
SWIDTH 600 0
DWIDTH 22 0
BBX 18 18 2 0
BITMAP
03F000
0FFC00
1FFF00
3FFF00
7E0F80
7C0F80
F80780
FFFFC0
FFFFC0
FFFFC0
FFFFC0
F80000
7C0000
7F0700
3FFF00
1FFF80
0FFF00
03F800
ENDCHAR
STARTCHAR uni0436
ENCODING 1078
SWIDTH 600 0
DWIDTH 22 0
BBX 22 18 0 0
BITMAP
F07838
7878F8
7C78F8
7C79F8
1E79E0
1E7BC0
0F7BC0
0FFFC0
0FFF80
0FFFC0
1FFFC0
1E7BE0
3E79E0
3C79F0
3C79F0
7C78F0
7878F8
F878FC
ENDCHAR
STARTCHAR uni0437
ENCODING 1079
SWIDTH 600 0
DWIDTH 22 0
BBX 17 18 2 0
BITMAP
0FF000
7FFE00
FFFF00
7FFF00
701F80
400F80
001F00
07FF00
07FC00
07FF00
07FF80
000F80
400F80
781F80
FFFF80
FFFF00
7FFE00
0FF000
ENDCHAR
STARTCHAR uni0438
ENCODING 1080
SWIDTH 600 0
DWIDTH 22 0
BBX 16 18 3 0
BITMAP
F81F
F83F
F83F
F87F
F8FF
F8FF
F9FF
F9FF
FBDF
F7DF
F79F
FF1F
FF1F
FE1F
FE1F
FC1F
F81F
F81F
ENDCHAR
STARTCHAR uni0439
ENCODING 1081
SWIDTH 600 0
DWIDTH 22 0
BBX 16 27 3 0
BITMAP
3C3E
3E3C
1E3C
1FFC
0FF8
07E0
0000
0000
0000
F81F
F83F
F83F
F87F
F8FF
F8FF
F9FF
F9FF
FBDF
F7DF
F79F
FF1F
FF1F
FE1F
FE1F
FC1F
F81F
F81F
ENDCHAR
STARTCHAR uni043A
ENCODING 1082
SWIDTH 600 0
DWIDTH 22 0
BBX 18 18 3 0
BITMAP
F80F80
F81F80
F83F00
F83F00
F87C00
F87800
F8F800
FFF000
FFF000
FFF000
FFF800
F8FC00
F87C00
F87E00
F83F00
F81F00
F81F80
F80FC0
ENDCHAR
STARTCHAR uni043B
ENCODING 1083
SWIDTH 600 0
DWIDTH 22 0
BBX 19 18 0 0
BITMAP
07FFE0
07FFE0
07FFE0
07FFE0
07C3E0
0783E0
0783E0
0783E0
0783E0
0F83E0
0F83E0
0F83E0
0F83E0
1F03E0
7F03E0
7E03E0
7E03E0
F803E0
ENDCHAR
STARTCHAR uni043C
ENCODING 1084
SWIDTH 600 0
DWIDTH 22 0
BBX 19 18 1 0
BITMAP
FE07E0
FE07E0
FE0FE0
FF0FE0
FF0FE0
FF1FE0
FF9FE0
FF9DE0
FBBDE0
FBFDE0
FBF9E0
F9F9E0
F9F9E0
F9F1E0
F8F1E0
F8F1E0
F801E0
F801E0
ENDCHAR
STARTCHAR uni043D
ENCODING 1085
SWIDTH 600 0
DWIDTH 22 0
BBX 16 18 3 0
BITMAP
F81F
F81F
F81F
F81F
F81F
F81F
F81F
FFFF
FFFF
FFFF
FFFF
F81F
F81F
F81F
F81F
F81F
F81F
F81F
ENDCHAR
STARTCHAR uni043E
ENCODING 1086
SWIDTH 600 0
DWIDTH 22 0
BBX 18 18 2 0
BITMAP
03F000
0FFC00
3FFE00
7FFF00
7E1F80
FC0F80
F80FC0
F80FC0
F80FC0
F80FC0
F80FC0
F80FC0
FC0F80
7E1F80
7FFF00
3FFE00
0FFC00
03F000
ENDCHAR
STARTCHAR uni043F
ENCODING 1087
SWIDTH 600 0
DWIDTH 22 0
BBX 16 18 3 0
BITMAP
FFFF
FFFF
FFFF
FFFF
F81F
F81F
F81F
F81F
F81F
F81F
F81F
F81F
F81F
F81F
F81F
F81F
F81F
F81F
ENDCHAR
STARTCHAR uni0440
ENCODING 1088
SWIDTH 600 0
DWIDTH 22 0
BBX 17 25 3 -7
BITMAP
F1F000
F7FC00
FFFE00
FFFF00
FE3F00
F81F80
F81F80
F81F80
F81F80
F81F80
F81F80
F81F80
F81F00
FC3F00
FFFE00
FFFE00
FFFC00
F9F000
F80000
F80000
F80000
F80000
F80000
F80000
F80000
ENDCHAR
STARTCHAR uni0441
ENCODING 1089
SWIDTH 600 0
DWIDTH 22 0
BBX 18 18 2 0
BITMAP
01FC00
07FF00
1FFF80
3FFF00
3F8700
7E0000
7C0000
FC0000
FC0000
FC0000
FC0000
7C0000
7E0100
7F8700
3FFF80
1FFFC0
0FFF00
01FC00
ENDCHAR
STARTCHAR uni0442
ENCODING 1090
SWIDTH 600 0
DWIDTH 22 0
BBX 18 18 2 0
BITMAP
FFFFC0
FFFFC0
FFFFC0
FFFFC0
03E000
03E000
03E000
03E000
03E000
03E000
03E000
03E000
03E000
03E000
03E000
03E000
03E000
03E000
ENDCHAR
STARTCHAR uni0443
ENCODING 1091
SWIDTH 600 0
DWIDTH 22 0
BBX 20 25 1 -7
BITMAP
FC03F0
7C03E0
7C03E0
3E07C0
3E07C0
1F0780
1F0F80
0F0F80
0F8F00
0F9F00
079F00
07DE00
03FE00
03FC00
01FC00
01FC00
00F800
00F800
01F000
01F000
03E000
3FE000
3FC000
3F8000
7E0000
ENDCHAR
STARTCHAR uni0444
ENCODING 1092
SWIDTH 600 0
DWIDTH 22 0
BBX 20 33 1 -7
BITMAP
00F000
00F000
00F000
00F000
00F000
00F000
00F000
00F000
1FFF80
3FFFC0
7FFFE0
7FFFE0
F8F3E0
F8F1F0
F8F1F0
F0F1F0
F0F1F0
F0F1F0
F0F1F0
F8F1F0
F8F1E0
F8F3E0
7FFFE0
7FFFC0
3FFF80
1FFF00
00F000
00F000
00F000
00F000
00F000
00F000
00F000
ENDCHAR
STARTCHAR uni0445
ENCODING 1093
SWIDTH 600 0
DWIDTH 22 0
BBX 19 18 1 0
BITMAP
7E07E0
3E0FC0
3F0F80
1F9F80
0F9F00
0FFE00
07FE00
03FC00
03FC00
03F800
07FC00
07FE00
0FBE00
1F3F00
1F1F80
3E0F80
7E0FC0
FC07E0
ENDCHAR
STARTCHAR uni0446
ENCODING 1094
SWIDTH 600 0
DWIDTH 22 0
BBX 18 25 3 -7
BITMAP
F83E00
F83E00
F83E00
F83E00
F83E00
F83E00
F83E00
F83E00
F83E00
F83E00
F83E00
F83E00
F83E00
F83E00
FFFFC0
FFFFC0
FFFFC0
FFFFC0
0007C0
0007C0
0007C0
0007C0
0007C0
0007C0
0007C0
ENDCHAR
STARTCHAR uni0447
ENCODING 1095
SWIDTH 600 0
DWIDTH 22 0
BBX 17 18 2 0
BITMAP
FC1F80
FC1F80
FC1F80
FC1F80
FC1F80
FC1F80
FC1F80
7E1F80
7FFF80
3FFF80
1FFF80
07FF80
001F80
001F80
001F80
001F80
001F80
001F80
ENDCHAR
STARTCHAR uni0448
ENCODING 1096
SWIDTH 600 0
DWIDTH 22 0
BBX 19 18 1 0
BITMAP
F8F1E0
F8F1E0
F8F1E0
F8F1E0
F8F1E0
F8F1E0
F8F1E0
F8F1E0
F8F1E0
F8F1E0
F8F1E0
F8F1E0
F8F1E0
F8F1E0
FFFFE0
FFFFE0
FFFFE0
FFFFE0
ENDCHAR
STARTCHAR uni0449
ENCODING 1097
SWIDTH 600 0
DWIDTH 22 0
BBX 21 25 1 -7
BITMAP
F9F3E0
F9F3E0
F9F3E0
F9F3E0
F9F3E0
F9F3E0
F9F3E0
F9F3E0
F9F3E0
F9F3E0
F9F3E0
F9F3E0
F9F3E0
F9F3E0
FFFFF8
FFFFF8
FFFFF8
FFFFF8
0000F8
0000F8
0000F8
0000F8
0000F8
0000F0
0000F0
ENDCHAR
STARTCHAR uni044A
ENCODING 1098
SWIDTH 600 0
DWIDTH 22 0
BBX 19 18 1 0
BITMAP
FFC000
FFC000
FFC000
FFC000
07C000
07C000
07FE00
07FF80
07FFC0
07FFE0
07C7E0
07C3E0
07C3E0
07C7E0
07FFE0
07FFC0
07FF80
07FE00
ENDCHAR
STARTCHAR uni044B
ENCODING 1099
SWIDTH 600 0
DWIDTH 22 0
BBX 19 18 1 0
BITMAP
F801E0
F801E0
F801E0
F801E0
F801E0
F801E0
FFC1E0
FFE1E0
FFF1E0
FFF9E0
F8F9E0
F8F9E0
F8F9E0
F8F9E0
FFF1E0
FFF1E0
FFE1E0
FF81E0
ENDCHAR
STARTCHAR uni044C
ENCODING 1100
SWIDTH 600 0
DWIDTH 22 0
BBX 17 18 3 0
BITMAP
F80000
F80000
F80000
F80000
F80000
F80000
FFF800
FFFE00
FFFF00
FFFF00
F81F80
F80F80
F80F80
F81F80
FFFF00
FFFF00
FFFE00
FFF800
ENDCHAR
STARTCHAR uni044D
ENCODING 1101
SWIDTH 600 0
DWIDTH 22 0
BBX 17 18 2 0
BITMAP
0FE000
7FF800
FFFE00
7FFE00
303F00
001F80
000F80
07FF80
07FF80
07FF80
07FF80
000F80
001F80
703F00
7FFE00
FFFE00
7FF800
1FE000
ENDCHAR
STARTCHAR uni044E
ENCODING 1102
SWIDTH 600 0
DWIDTH 22 0
BBX 20 18 1 0
BITMAP
F81F00
F87F80
F87FC0
F8FFE0
F8F3E0
F9E3F0
F9E1F0
FFE1F0
FFE1F0
FFE1F0
FFE1F0
F9E1F0
F9E3F0
F8F3E0
F8FFE0
F87FC0
F87F80
F81F00
ENDCHAR
STARTCHAR uni044F
ENCODING 1103
SWIDTH 600 0
DWIDTH 22 0
BBX 18 18 1 0
BITMAP
07FFC0
1FFFC0
3FFFC0
3FFFC0
3E07C0
7E07C0
3E07C0
3F07C0
3FFFC0
1FFFC0
0FFFC0
07FFC0
0FC7C0
1F87C0
1F07C0
3F07C0
7E07C0
FC07C0
ENDCHAR
STARTCHAR uni0450
ENCODING 1104
SWIDTH 600 0
DWIDTH 22 0
BBX 18 29 2 0
BITMAP
020000
070000
0F8000
1FC000
0FC000
07E000
03F000
00E000
004000
000000
000000
03F000
0FFC00
1FFF00
3FFF00
7E0F80
7C0F80
F80780
FFFFC0
FFFFC0
FFFFC0
FFFFC0
F80000
7C0000
7F0700
3FFF00
1FFF80
0FFF00
03F800
ENDCHAR
STARTCHAR uni0451
ENCODING 1105
SWIDTH 600 0
DWIDTH 22 0
BBX 18 26 2 0
BITMAP
0E0E00
1F1F00
3F3F00
3F3F00
1F1F00
0E0E00
000000
000000
03F000
0FFC00
1FFF00
3FFF00
7E0F80
7C0F80
F80780
FFFFC0
FFFFC0
FFFFC0
FFFFC0
F80000
7C0000
7F0700
3FFF00
1FFF80
0FFF00
03F800
ENDCHAR
STARTCHAR uni0452
ENCODING 1106
SWIDTH 600 0
DWIDTH 22 0
BBX 20 33 0 -7
BITMAP
1F0000
1F0000
1F0000
FFFC00
FFFC00
FFFC00
1F0000
1F0000
1F1E00
1F7F80
1FFFC0
1FFFC0
1F87E0
1F07E0
1F03E0
1F03F0
1F03F0
1F03F0
1F03F0
1F03F0
1F03F0
1F03F0
1F03F0
1F03F0
1F03E0
1F03E0
0003E0
0007E0
000FC0
007FC0
007F80
007F00
007E00
ENDCHAR
STARTCHAR uni0453
ENCODING 1107
SWIDTH 600 0
DWIDTH 22 0
BBX 15 29 4 0
BITMAP
0020
0070
0078
00FC
01F8
03F0
07E0
03C0
0100
0000
0000
FFFE
FFFE
FFFE
FFFE
F800
F800
F800
F800
F800
F800
F800
F800
F800
F800
F800
F800
F800
F800
ENDCHAR
STARTCHAR uni0454
ENCODING 1108
SWIDTH 600 0
DWIDTH 22 0
BBX 18 18 2 0
BITMAP
01FC00
07FF80
1FFF80
3FFF00
3F0300
7C0000
7C0000
FFF800
FFF800
FFF800
FFF800
7C0000
7C0100
7F0300
3FFF80
1FFFC0
0FFF00
01FC00
ENDCHAR
STARTCHAR uni0455
ENCODING 1109
SWIDTH 600 0
DWIDTH 22 0
BBX 17 18 2 0
BITMAP
07F800
1FFE00
3FFF80
7FFF00
7E0E00
7C0200
7F0000
3FF800
3FFE00
0FFF00
01FF80
001F80
200F80
7C0F80
FFFF80
FFFF00
3FFE00
07F800
ENDCHAR
STARTCHAR uni0456
ENCODING 1110
SWIDTH 600 0
DWIDTH 22 0
BBX 13 27 3 0
BITMAP
00E0
03F0
03F8
03F8
03F8
03F0
01E0
0000
0000
FFF0
FFF0
FFF0
FFF0
01F0
01F0
01F0
01F0
01F0
01F0
01F0
01F0
01F0
01F0
01F0
01F0
01F0
01F0
ENDCHAR
STARTCHAR uni0457
ENCODING 1111
SWIDTH 600 0
DWIDTH 22 0
BBX 16 26 3 0
BITMAP
0E0E
1F1F
1F1F
1F1F
1F1F
0E0E
0000
0000
FFF0
FFF0
FFF0
FFF0
01F0
01F0
01F0
01F0
01F0
01F0
01F0
01F0
01F0
01F0
01F0
01F0
01F0
01F0
ENDCHAR
STARTCHAR uni0458
ENCODING 1112
SWIDTH 600 0
DWIDTH 22 0
BBX 14 34 2 -7
BITMAP
0070
01F8
01FC
01FC
01FC
01F8
00F0
0000
0000
7FF8
7FF8
7FF8
7FF8
00F8
00F8
00F8
00F8
00F8
00F8
00F8
00F8
00F8
00F8
00F8
00F8
00F8
00F8
00F8
00F8
41F8
FFF0
FFF0
FFE0
7F80
ENDCHAR
STARTCHAR uni0459
ENCODING 1113
SWIDTH 600 0
DWIDTH 22 0
BBX 21 18 0 0
BITMAP
1FFC00
1FFC00
1FFC00
1FFC00
1E7C00
1E7F80
1E7FE0
1E7FF0
1E7FF0
1E7CF8
1E7CF8
3E7C78
3E7CF8
3C7CF8
FC7FF0
FC7FF0
F87FE0
F07F80
ENDCHAR
STARTCHAR uni045A
ENCODING 1114
SWIDTH 600 0
DWIDTH 22 0
BBX 20 18 1 0
BITMAP
F8F800
F8F800
F8F800
F8F800
F8F800
F8F800
F8FF00
FFFFC0
FFFFE0
FFFFE0
FFF9F0
F8F9F0
F8F9F0
F8F9F0
F8FFE0
F8FFE0
F8FFC0
F8FF00
ENDCHAR
STARTCHAR uni045B
ENCODING 1115
SWIDTH 600 0
DWIDTH 22 0
BBX 19 26 0 0
BITMAP
1F0000
1F0000
1F0000
FFFC00
FFFC00
FFFC00
1F0000
1F0000
1F1F00
1F7FC0
1FFFC0
1FFFE0
1FC7E0
1F03E0
1F03E0
1F03E0
1F03E0
1F03E0
1F03E0
1F03E0
1F03E0
1F03E0
1F03E0
1F03E0
1F03E0
1F03E0
ENDCHAR
STARTCHAR uni045C
ENCODING 1116
SWIDTH 600 0
DWIDTH 22 0
BBX 18 29 3 0
BITMAP
001000
003800
007C00
00FE00
01FC00
01F000
03E000
01C000
008000
000000
000000
F80F80
F81F80
F83F00
F83F00
F87C00
F87800
F8F800
FFF000
FFF000
FFF000
FFF800
F8FC00
F87C00
F87E00
F83F00
F81F00
F81F80
F80FC0
ENDCHAR
STARTCHAR uni045D
ENCODING 1117
SWIDTH 600 0
DWIDTH 22 0
BBX 16 29 3 0
BITMAP
0400
0E00
1F00
3F80
1FC0
0FC0
03E0
01C0
0080
0000
0000
F81F
F83F
F83F
F87F
F8FF
F8FF
F9FF
F9FF
FBDF
F7DF
F79F
FF1F
FF1F
FE1F
FE1F
FC1F
F81F
F81F
ENDCHAR
STARTCHAR uni045E
ENCODING 1118
SWIDTH 600 0
DWIDTH 22 0
BBX 20 34 1 -7
BITMAP
0F0F00
0F0F00
0F9F00
07FE00
03FE00
01F800
000000
000000
000000
FC03F0
7C03E0
7C03E0
3E07C0
3E07C0
1F0780
1F0F80
0F0F80
0F8F00
0F9F00
079F00
07DE00
03FE00
03FC00
01FC00
01FC00
00F800
00F800
01F000
01F000
03E000
3FE000
3FC000
3F8000
7E0000
ENDCHAR
STARTCHAR uni045F
ENCODING 1119
SWIDTH 600 0
DWIDTH 22 0
BBX 16 25 3 -7
BITMAP
F81F
F81F
F81F
F81F
F81F
F81F
F81F
F81F
F81F
F81F
F81F
F81F
F81F
F81F
FFFF
FFFF
FFFF
FFFF
07FF
07C0
07C0
07C0
07C0
07C0
07C0
ENDCHAR
STARTCHAR uni0462
ENCODING 1122
SWIDTH 600 0
DWIDTH 22 0
BBX 21 24 0 0
BITMAP
07C000
07C000
07C000
FFFFC0
FFFFC0
FFFFC0
FFFFC0
07C000
07C000
07C000
07FF00
07FFC0
07FFE0
07FFF0
07C3F0
07C1F8
07C1F8
07C1F8
07C1F0
07C3F0
07FFF0
07FFE0
07FFC0
07FF00
ENDCHAR
STARTCHAR uni0463
ENCODING 1123
SWIDTH 600 0
DWIDTH 22 0
BBX 19 21 1 0
BITMAP
07C000
07C000
07C000
FFFF00
FFFF00
FFFF00
FFFF00
07C000
07C000
07FE00
07FF80
07FFC0
07FFE0
07C7E0
07C3E0
07C3E0
07C7E0
07FFE0
07FFC0
07FF80
07FE00
ENDCHAR
STARTCHAR uni0472
ENCODING 1138
SWIDTH 600 0
DWIDTH 22 0
BBX 19 24 1 0
BITMAP
01F800
07FE00
1FFF00
1FFF80
3F1FC0
7E0FC0
7E07C0
7C07E0
7C03E0
FC03E0
FFFFE0
FFFFE0
FFFFE0
FFFFE0
7C03E0
7C03E0
7C07E0
7C07C0
3E07C0
3F0FC0
1FFF80
1FFF00
07FE00
01F800
ENDCHAR
STARTCHAR uni0473
ENCODING 1139
SWIDTH 600 0
DWIDTH 22 0
BBX 18 18 2 0
BITMAP
03F000
1FFC00
3FFE00
7FFF00
7E1F80
F80F80
F807C0
FFFFC0
FFFFC0
FFFFC0
FFFFC0
F807C0
F80F80
7C1F80
7FFF00
3FFE00
1FFC00
03F000
ENDCHAR
STARTCHAR uni0474
ENCODING 1140
SWIDTH 600 0
DWIDTH 22 0
BBX 22 24 0 0
BITMAP
FC007C
7C00FC
7C01FC
7E01FC
3E03E0
3E03E0
3E03C0
3F07C0
1F07C0
1F07C0
1F0780
0F8F80
0F8F80
0F8F80
078F00
07DF00
07DF00
07DF00
03DE00
03FE00
03FE00
01FE00
01FC00
01FC00
ENDCHAR
STARTCHAR uni0475
ENCODING 1141
SWIDTH 600 0
DWIDTH 22 0
BBX 20 18 1 0
BITMAP
FC01F0
7C03F0
7C07F0
3E07E0
3E0F80
3E0F80
1F0F00
1F0F00
1F1F00
0F9F00
0F9E00
0FBE00
07BE00
07FC00
07FC00
03FC00
03FC00
01F800
ENDCHAR
STARTCHAR uni0490
ENCODING 1168
SWIDTH 600 0
DWIDTH 22 0
BBX 15 30 4 0
BITMAP
001E
001E
001E
003E
003E
003E
FFFE
FFFE
FFFE
FFFE
F800
F800
F800
F800
F800
F800
F800
F800
F800
F800
F800
F800
F800
F800
F800
F800
F800
F800
F800
F800
ENDCHAR
STARTCHAR uni0491
ENCODING 1169
SWIDTH 600 0
DWIDTH 22 0
BBX 15 24 4 0
BITMAP
001E
001E
003E
003E
003E
003E
FFFE
FFFE
FFFE
FFFE
FC00
FC00
FC00
FC00
FC00
FC00
FC00
FC00
FC00
FC00
FC00
FC00
FC00
FC00
ENDCHAR
STARTCHAR uni0492
ENCODING 1170
SWIDTH 600 0
DWIDTH 22 0
BBX 17 24 2 0
BITMAP
1FFF80
1FFF80
1FFF80
1FFF80
1F0000
1F0000
1F0000
1F0000
1F0000
1F0000
1F0000
FFF800
FFF800
FFF800
1F0000
1F0000
1F0000
1F0000
1F0000
1F0000
1F0000
1F0000
1F0000
1F0000
ENDCHAR
STARTCHAR uni0493
ENCODING 1171
SWIDTH 600 0
DWIDTH 22 0
BBX 17 18 2 0
BITMAP
1FFF80
1FFF80
1FFF80
1FFF80
1F0000
1F0000
1F0000
1F0000
FFF800
FFF800
FFF800
1F0000
1F0000
1F0000
1F0000
1F0000
1F0000
1F0000
ENDCHAR
STARTCHAR uni0496
ENCODING 1174
SWIDTH 600 0
DWIDTH 22 0
BBX 22 31 0 -7
BITMAP
F0783C
F878F8
7C78F8
7C79F8
1C79E0
1E79E0
1E79C0
1E7BC0
0E7BC0
0F7BC0
0FFFC0
0FFFC0
0FFFC0
1FFFC0
1E7BC0
1E79E0
3E79E0
3C79E0
3C79F0
3C78F0
7C78FC
7C78FC
7878FC
F8787C
00003C
00003C
00003C
00003C
00003C
00003C
00003C
ENDCHAR
STARTCHAR uni0497
ENCODING 1175
SWIDTH 600 0
DWIDTH 22 0
BBX 22 25 0 -7
BITMAP
F07838
7878F8
7C78F8
7C79F8
1E79E0
1E7BC0
0F7BC0
0FFFC0
0FFF80
0FFFC0
1FFFC0
1E7BE0
3E79E0
3C79F0
3C79FC
7C78FC
7878FC
F878FC
00003C
00003C
00003C
00003C
00003C
00003C
00003C
ENDCHAR
STARTCHAR uni0498
ENCODING 1176
SWIDTH 600 0
DWIDTH 22 0
BBX 18 31 2 -7
BITMAP
07F000
3FFC00
7FFF00
FFFF00
3C3F80
101F80
000F80
000F80
001F80
003F00
07FE00
07FC00
07FF00
07FF80
001F80
0007C0
0007C0
0007C0
300FC0
7C1FC0
FFFF80
FFFF00
3FFE00
0FF800
03F000
03E000
03E000
03E000
03E000
03E000
03E000
ENDCHAR
STARTCHAR uni0499
ENCODING 1177
SWIDTH 600 0
DWIDTH 22 0
BBX 17 25 2 -7
BITMAP
0FF000
7FFE00
FFFF00
7FFF00
701F80
400F80
001F00
07FF00
07FC00
07FF00
07FF80
000F80
400F80
781F80
FFFF80
FFFF00
7FFE00
0FF800
03E000
03E000
03E000
03E000
03E000
03E000
03E000
ENDCHAR
STARTCHAR uni049A
ENCODING 1178
SWIDTH 600 0
DWIDTH 22 0
BBX 20 31 2 -7
BITMAP
FC03E0
FC07C0
FC0FC0
FC1FC0
FC1E00
FC3E00
FC3C00
FC7C00
FC7800
FCF800
FFF800
FFF000
FFF800
FFF800
FCFC00
FC7C00
FC7E00
FC3E00
FC1F00
FC1F80
FC0FF0
FC0FF0
FC07F0
FC07F0
0001F0
0001F0
0001F0
0001F0
0001E0
0001E0
0001E0
ENDCHAR
STARTCHAR uni049B
ENCODING 1179
SWIDTH 600 0
DWIDTH 22 0
BBX 18 25 3 -7
BITMAP
F80F80
F81F80
F83F00
F83F00
F87C00
F87800
F8F800
FFF000
FFF000
FFF000
FFF800
F8FC00
F87C00
F87E00
F83FC0
F81FC0
F81FC0
F80FC0
0003C0
0003C0
0003C0
0003C0
0003C0
0003C0
0003C0
ENDCHAR
STARTCHAR uni04A0
ENCODING 1184
SWIDTH 600 0
DWIDTH 22 0
BBX 21 24 1 0
BITMAP
FFC0F0
FFC1F0
FFC3F0
FFC3E0
07C3C0
07C780
07C780
07C780
07CF00
07CF00
07FF00
07FE00
07FF00
07FF00
07CF80
07CF80
07C780
07C7C0
07C3C0
07C3E0
07C3E0
07C1F0
07C1F0
07C0F8
ENDCHAR
STARTCHAR uni04A1
ENCODING 1185
SWIDTH 600 0
DWIDTH 22 0
BBX 20 18 1 0
BITMAP
FFC1E0
FFC3E0
FFC7E0
FFC7E0
07C780
07CF00
07CF00
07FF00
07FF00
07FF00
07FF00
07CF80
07C780
07C7C0
07C3C0
07C3E0
07C1F0
07C1F0
ENDCHAR
STARTCHAR uni04A2
ENCODING 1186
SWIDTH 600 0
DWIDTH 22 0
BBX 20 31 2 -7
BITMAP
FC0F80
FC0F80
FC0F80
FC0F80
FC0F80
FC0F80
FC0F80
FC0F80
FC0F80
FC0F80
FFFF80
FFFF80
FFFF80
FFFF80
FC0F80
FC0F80
FC0F80
FC0F80
FC0F80
FC0F80
FC0FF0
FC0FF0
FC0FF0
FC0FF0
0001F0
0001F0
0001F0
0001F0
0001F0
0001E0
0001E0
ENDCHAR
STARTCHAR uni04A3
ENCODING 1187
SWIDTH 600 0
DWIDTH 22 0
BBX 18 25 3 -7
BITMAP
F83E00
F83E00
F83E00
F83E00
F83E00
F83E00
F83E00
FFFE00
FFFE00
FFFE00
FFFE00
F83E00
F83E00
F83E00
F83FC0
F83FC0
F83FC0
F83FC0
0007C0
0007C0
0007C0
0007C0
0007C0
0007C0
0007C0
ENDCHAR
STARTCHAR uni04AA
ENCODING 1194
SWIDTH 600 0
DWIDTH 22 0
BBX 19 31 2 -7
BITMAP
00FC00
07FF80
0FFFC0
1FFF80
3F8700
3F0200
7E0000
7C0000
FC0000
FC0000
F80000
F80000
F80000
F80000
FC0000
FC0000
FC0000
7E0000
7F0100
3F8780
1FFFC0
1FFFE0
07FF80
01FE00
00F800
00F800
00F800
00F800
00F800
00F800
00F800
ENDCHAR
STARTCHAR uni04AB
ENCODING 1195
SWIDTH 600 0
DWIDTH 22 0
BBX 18 25 2 -7
BITMAP
01FC00
07FF00
1FFF80
3FFF00
3F8700
7E0000
7C0000
7C0000
FC0000
FC0000
FC0000
7C0000
7E0100
7F8700
3FFF80
1FFFC0
0FFF80
03FC00
00F800
00F800
00F800
00F800
00F800
00F800
00F000
ENDCHAR
STARTCHAR uni04AE
ENCODING 1198
SWIDTH 600 0
DWIDTH 22 0
BBX 20 24 1 0
BITMAP
F803F0
FC03E0
7C07E0
7E07C0
3E07C0
3F0F80
1F0F80
1F1F00
0F9F00
0F9F00
07BE00
07FE00
03FC00
03FC00
03F800
01F800
01F000
01F000
01F000
01F000
01F000
01F000
01F000
01F000
ENDCHAR
STARTCHAR uni04AF
ENCODING 1199
SWIDTH 600 0
DWIDTH 22 0
BBX 19 25 1 -7
BITMAP
FC03E0
7C03E0
7C03E0
7E07C0
3E07C0
3E0780
1F0F80
1F0F80
1F1F00
0F9F00
0F9F00
079E00
07FE00
07FC00
03FC00
03FC00
03F800
01F800
01F800
01F800
01F800
01F800
01F800
01F800
01F800
ENDCHAR
STARTCHAR uni04B0
ENCODING 1200
SWIDTH 600 0
DWIDTH 22 0
BBX 20 24 1 0
BITMAP
F803F0
FC03E0
7C07E0
7E07C0
3E07C0
3F0F80
1F0F80
1F1F00
0F9F00
0F9E00
07BE00
07FC00
03FC00
3FFFC0
3FFFC0
3FFFC0
01F000
01F000
01F000
01F000
01F000
01F000
01F000
01F000
ENDCHAR
STARTCHAR uni04B1
ENCODING 1201
SWIDTH 600 0
DWIDTH 22 0
BBX 19 25 1 -7
BITMAP
FC03E0
7C03E0
7C03E0
3E07C0
3E07C0
3E0780
1F0F80
1F0F80
0F1F00
0F9F00
0F9E00
079E00
07FE00
03FC00
03FC00
3FFFC0
3FFFC0
3FFFC0
01F800
01F800
01F800
01F800
01F800
01F800
01F800
ENDCHAR
STARTCHAR uni04B2
ENCODING 1202
SWIDTH 600 0
DWIDTH 22 0
BBX 20 31 1 -7
BITMAP
FC03F0
7E07E0
7E07C0
3F0FC0
3F0F80
1F9F80
0F9F00
0FDF00
07FE00
07FC00
03FC00
03F800
03F800
03FC00
07FC00
0FBE00
0FBE00
1F1F00
1F1F80
3F0F80
3E0FF0
7E07F0
FC07F0
FC03F0
0000F0
0000F0
0000F0
0000F0
0000F0
0000F0
0000F0
ENDCHAR
STARTCHAR uni04B3
ENCODING 1203
SWIDTH 600 0
DWIDTH 22 0
BBX 20 25 1 -7
BITMAP
7E07E0
3E0FC0
3F0F80
1F9F80
0F9F00
0FFE00
07FE00
03FC00
03FC00
03F800
07FC00
07FE00
0FBE00
1F3F00
1F1FF0
3E0FF0
7E0FF0
7C07F0
8001F0
0001F0
0001F0
0001F0
0001E0
0001E0
0001E0
ENDCHAR
STARTCHAR uni04B6
ENCODING 1206
SWIDTH 600 0
DWIDTH 22 0
BBX 20 31 2 -7
BITMAP
F80F80
F80F80
F80F80
F80F80
F80F80
F80F80
F80F80
F80F80
F80F80
F80F80
FE0F80
7FFF80
7FFF80
1FFF80
0FFF80
000F80
000F80
000F80
000F80
000F80
000FF0
000FF0
000FF0
000FF0
0001F0
0001F0
0001F0
0001F0
0001E0
0001E0
0001E0
ENDCHAR
STARTCHAR uni04B7
ENCODING 1207
SWIDTH 600 0
DWIDTH 22 0
BBX 19 25 2 -7
BITMAP
FC1F00
FC1F00
FC1F00
FC1F00
FC1F00
FC1F00
FC1F00
7E1F00
7FFF00
3FFF00
3FFF00
0FFF00
001F00
001F00
001FE0
001FE0
001FE0
001FE0
0003E0
0003E0
0003E0
0003E0
0003E0
0003E0
0003E0
ENDCHAR
STARTCHAR uni04BA
ENCODING 1210
SWIDTH 600 0
DWIDTH 22 0
BBX 18 24 2 0
BITMAP
FC0000
FC0000
FC0000
FC0000
FC0000
FC0000
FC0000
FC0000
FC0000
FFF800
FFFE00
FFFF00
FFFF80
FC1F80
FC0FC0
FC07C0
FC07C0
FC07C0
FC07C0
FC07C0
FC07C0
FC07C0
FC07C0
FC07C0
ENDCHAR
STARTCHAR uni04BB
ENCODING 1211
SWIDTH 600 0
DWIDTH 22 0
BBX 16 26 3 0
BITMAP
F800
F800
F800
F800
F800
F800
F800
F800
F8F8
FBFE
FFFE
FFFF
FE3F
FC1F
F81F
F81F
F81F
F81F
F81F
F81F
F81F
F81F
F81F
F81F
F81F
F81F
ENDCHAR
STARTCHAR uni04C0
ENCODING 1216
SWIDTH 600 0
DWIDTH 22 0
BBX 16 24 3 0
BITMAP
FFFF
FFFF
FFFF
FFFF
07C0
07C0
07C0
07C0
07C0
07C0
07C0
07C0
07C0
07C0
07C0
07C0
07C0
07C0
07C0
07C0
FFFF
FFFF
FFFF
FFFF
ENDCHAR
STARTCHAR uni04C1
ENCODING 1217
SWIDTH 600 0
DWIDTH 22 0
BBX 22 30 0 0
BITMAP
0F8780
078F80
07FF80
03FF00
01FC00
000000
F0783C
F878F8
7C78F8
7C79F8
1C79E0
1E79E0
1E79C0
1E7BC0
0E7BC0
0F7BC0
0FFFC0
0FFFC0
0FFFC0
1FFFC0
1E7BC0
1E79E0
3E79E0
3C79E0
3C79F0
3C78F0
7C78F0
7C78F8
7878F8
F8787C
ENDCHAR
STARTCHAR uni04C2
ENCODING 1218
SWIDTH 600 0
DWIDTH 22 0
BBX 22 27 0 0
BITMAP
078780
078780
078F80
07FF00
03FE00
00FC00
000000
000000
000000
F07838
7878F8
7C78F8
7C79F8
1E79E0
1E7BC0
0F7BC0
0FFFC0
0FFF80
0FFFC0
1FFFC0
1E7BE0
3E79E0
3C79F0
3C79F0
7C78F0
7878F8
F878FC
ENDCHAR
STARTCHAR uni04CF
ENCODING 1231
SWIDTH 600 0
DWIDTH 22 0
BBX 18 26 2 0
BITMAP
FFE000
FFE000
FFE000
FFE000
07E000
07E000
07E000
07E000
07E000
07E000
07E000
07E000
07E000
07E000
07E000
07E000
07E000
07E000
07E000
07E000
03E000
03F100
03FF80
01FF80
00FF80
007F40
ENDCHAR
STARTCHAR uni04D0
ENCODING 1232
SWIDTH 600 0
DWIDTH 22 0
BBX 21 30 0 0
BITMAP
0F8780
078F80
07FF80
03FF00
01FC00
000000
01FC00
01FC00
01FE00
01FE00
03FE00
03DF00
03DF00
07CF00
07CF80
078F80
0F8F80
0F8780
0F87C0
0F07C0
1FFFC0
1FFFE0
1FFFE0
3FFFE0
3E03F0
3E01F0
7E01F0
7C01F8
7C01F8
FC00F8
ENDCHAR
STARTCHAR uni04D1
ENCODING 1233
SWIDTH 600 0
DWIDTH 22 0
BBX 17 27 2 0
BITMAP
1E0F00
1F1F00
0F1E00
0FFE00
07FC00
01F000
000000
000000
000000
07F800
3FFE00
7FFF00
3FFF00
383F80
201F80
000F80
01FF80
0FFF80
3FFF80
7FFF80
FE0F80
F80F80
FC1F80
FFFF80
7FFF80
3FE780
1F8780
ENDCHAR
STARTCHAR uni04D4
ENCODING 1236
SWIDTH 600 0
DWIDTH 22 0
BBX 21 24 0 0
BITMAP
00FFF8
01FFF8
01FFF8
01FFF8
03FF00
03FF00
03DF00
07DF00
07DF00
07DF00
0F9FF0
0F9FF0
0F9FF0
1F1FF0
1FFF00
1FFF00
3FFF00
3FFF00
3E1F00
7E1F00
7C1FF8
7C1FF8
FC1FF8
F81FF8
ENDCHAR
STARTCHAR uni04D5
ENCODING 1237
SWIDTH 600 0
DWIDTH 22 0
BBX 20 18 1 0
BITMAP
1F0F80
7F9FC0
FFFFE0
7FFFE0
21F8F0
00F0F0
07F0F0
1FFFF0
7FFFF0
FFFFF0
FCFFF0
F8F000
F0F000
F8F840
FFFFE0
FFBFE0
7F1FF0
3E0FC0
ENDCHAR
STARTCHAR uni04D6
ENCODING 1238
SWIDTH 600 0
DWIDTH 22 0
BBX 16 30 3 0
BITMAP
3E3E
3E3E
1FFC
0FFC
07F0
0000
FFFF
FFFF
FFFF
FFFF
FC00
FC00
FC00
FC00
FC00
FC00
FFFC
FFFC
FFFC
FFFC
FC00
FC00
FC00
FC00
FC00
FC00
FFFF
FFFF
FFFF
FFFF
ENDCHAR
STARTCHAR uni04D7
ENCODING 1239
SWIDTH 600 0
DWIDTH 22 0
BBX 18 27 2 0
BITMAP
1E1E00
1E1E00
1F1E00
0FFE00
07FC00
03F000
000000
000000
000000
03F000
0FFC00
1FFF00
3FFF00
7E0F80
7C0F80
F80780
FFFFC0
FFFFC0
FFFFC0
FFFFC0
F80000
7C0000
7F0700
3FFF00
1FFF80
0FFF00
03F800
ENDCHAR
STARTCHAR uni04D8
ENCODING 1240
SWIDTH 600 0
DWIDTH 22 0
BBX 18 24 2 0
BITMAP
07F000
1FFC00
3FFE00
1FFF00
0C3F00
080F80
000F80
000FC0
0007C0
0007C0
FFFFC0
FFFFC0
FFFFC0
FFFFC0
F807C0
F807C0
F80FC0
7C0F80
7C0F80
7E1F00
3FFF00
1FFE00
0FFC00
03F000
ENDCHAR
STARTCHAR uni04D9
ENCODING 1241
SWIDTH 600 0
DWIDTH 22 0
BBX 18 18 2 0
BITMAP
07E000
3FFC00
7FFE00
3FFF00
383F80
000F80
000F80
FFFFC0
FFFFC0
FFFFC0
FFFFC0
F80F80
F80F80
7C1F80
7FFF00
3FFE00
1FFC00
07F000
ENDCHAR
STARTCHAR uni04E2
ENCODING 1250
SWIDTH 600 0
DWIDTH 22 0
BBX 17 29 2 0
BITMAP
1FFC00
1FFC00
1FFC00
000000
000000
F80F80
F81F80
F81F80
F83F80
F83F80
F87F80
F87F80
F8FF80
F8F780
F8F780
F9F780
F9E780
FBE780
FBC780
FBC780
FFC780
F78780
FF8780
FF0780
FF0780
FE0780
FE0780
FC0780
FC0780
ENDCHAR
STARTCHAR uni04E3
ENCODING 1251
SWIDTH 600 0
DWIDTH 22 0
BBX 16 24 3 0
BITMAP
1FFC
1FFC
1FFC
0000
0000
0000
F81F
F83F
F83F
F87F
F8FF
F8FF
F9FF
F9FF
FBDF
F7DF
F79F
FF1F
FF1F
FE1F
FE1F
FC1F
F81F
F81F
ENDCHAR
STARTCHAR uni04E6
ENCODING 1254
SWIDTH 600 0
DWIDTH 22 0
BBX 19 30 1 0
BITMAP
0E0E00
1F1F00
1F1F00
1F1F00
0E0E00
000000
01F800
07FE00
1FFF00
1FFF80
3F1FC0
7E0FC0
7E07C0
7C07E0
7C03E0
FC03E0
FC03E0
FC03E0
FC03E0
FC03E0
7C03E0
7C07E0
7C07E0
7E07C0
3E0FC0
3F1FC0
1FFF80
1FFF00
07FE00
01F800
ENDCHAR
STARTCHAR uni04E7
ENCODING 1255
SWIDTH 600 0
DWIDTH 22 0
BBX 18 26 2 0
BITMAP
1C1C00
3E3E00
3F3F00
3F3F00
3E3E00
1C1C00
000000
000000
03F000
0FFC00
3FFE00
7FFF00
7E1F80
FC0F80
F80FC0
F80FC0
F80FC0
F80FC0
F80FC0
F80FC0
FC0F80
7E1F80
7FFF00
3FFE00
0FFC00
03F000
ENDCHAR
STARTCHAR uni04E8
ENCODING 1256
SWIDTH 600 0
DWIDTH 22 0
BBX 19 24 1 0
BITMAP
01F800
07FE00
1FFF00
1FFF80
3F1FC0
7E0FC0
7E07C0
7C07E0
7C03E0
FC03E0
FFFFE0
FFFFE0
FFFFE0
FFFFE0
7C03E0
7C03E0
7C07E0
7C07C0
3E07C0
3F0FC0
1FFF80
1FFF00
07FE00
01F800
ENDCHAR
STARTCHAR uni04E9
ENCODING 1257
SWIDTH 600 0
DWIDTH 22 0
BBX 18 18 2 0
BITMAP
03F000
1FFC00
3FFE00
7FFF00
7E1F80
F80F80
F807C0
FFFFC0
FFFFC0
FFFFC0
FFFFC0
F807C0
F80F80
7C1F80
7FFF00
3FFE00
1FFC00
03F000
ENDCHAR
STARTCHAR uni04EE
ENCODING 1262
SWIDTH 600 0
DWIDTH 22 0
BBX 20 29 1 0
BITMAP
07FF00
07FF00
07FF00
000000
000000
FC03F0
7C03E0
7C03E0
7E07E0
3E07C0
3F07C0
1F0F80
1F0F80
0F8F80
0F9F00
079F00
07DE00
03FE00
03FE00
03FC00
01FC00
01F800
00F800
01F800
01F000
1FF000
1FE000
1FC000
3F0000
ENDCHAR
STARTCHAR uni04EF
ENCODING 1263
SWIDTH 600 0
DWIDTH 22 0
BBX 20 31 1 -7
BITMAP
07FE00
07FE00
07FE00
000000
000000
000000
FC03F0
7C03E0
7C03E0
3E07C0
3E07C0
1F0780
1F0F80
0F0F80
0F8F00
0F9F00
079F00
07DE00
03FE00
03FC00
01FC00
01FC00
00F800
00F800
01F000
01F000
03E000
3FE000
3FC000
3F8000
7E0000
ENDCHAR
STARTCHAR uni04F2
ENCODING 1266
SWIDTH 600 0
DWIDTH 22 0
BBX 20 32 1 0
BITMAP
00C100
00E3C0
01F3E0
03E780
03C780
078F00
010600
000000
FC03F0
7C03E0
7C03E0
7E07E0
3E07C0
3F07C0
1F0F80
1F0F80
0F8F80
0F9F00
079F00
07DE00
03FE00
03FE00
03FC00
01FC00
01F800
00F800
01F800
01F000
1FF000
1FE000
1FC000
3F0000
ENDCHAR
STARTCHAR uni04F3
ENCODING 1267
SWIDTH 600 0
DWIDTH 22 0
BBX 20 35 1 -7
BITMAP
00C100
00F3C0
01F3E0
01E780
03C780
03CF00
078F00
010200
000000
000000
FC03F0
7C03E0
7C03E0
3E07C0
3E07C0
1F0780
1F0F80
0F0F80
0F8F00
0F9F00
079F00
07DE00
03FE00
03FC00
01FC00
01FC00
00F800
00F800
01F000
01F000
03E000
3FE000
3FC000
3F8000
7E0000
ENDCHAR
STARTCHAR a.sups
ENCODING 7491
SWIDTH 600 0
DWIDTH 22 0
BBX 12 13 5 13
BITMAP
0F80
3FC0
7FE0
7FE0
20E0
0FF0
3FF0
78F0
F0F0
F1F0
FFF0
7FF0
3CF0
ENDCHAR
STARTCHAR b.sups
ENCODING 7495
SWIDTH 600 0
DWIDTH 22 0
BBX 11 17 6 13
BITMAP
E000
E000
E000
E000
E780
FFC0
FFC0
FFE0
F1E0
E1E0
E1E0
E1E0
E1E0
FFE0
FFC0
FF80
0F00
ENDCHAR
STARTCHAR d.sups
ENCODING 7496
SWIDTH 600 0
DWIDTH 22 0
BBX 11 17 5 13
BITMAP
00E0
00E0
00E0
00E0
1CE0
7FE0
7FE0
FFE0
F1E0
F0E0
E0E0
F0E0
F1E0
FFE0
FFE0
7FE0
3C00
ENDCHAR
STARTCHAR e.sups
ENCODING 7497
SWIDTH 600 0
DWIDTH 22 0
BBX 12 13 5 13
BITMAP
0F80
3FC0
7FE0
70E0
F0F0
FFF0
FFF0
F000
F000
7840
7FE0
3FE0
0F80
ENDCHAR
STARTCHAR g.sups
ENCODING 7501
SWIDTH 600 0
DWIDTH 22 0
BBX 12 17 5 9
BITMAP
1E00
3FF0
73F0
F1F0
F1C0
F1C0
71C0
7FC0
7F00
6000
FFE0
7FF0
7FF0
E070
E0F0
FFE0
3F80
ENDCHAR
STARTCHAR k.sups
ENCODING 7503
SWIDTH 600 0
DWIDTH 22 0
BBX 12 17 6 13
BITMAP
F000
F000
F000
F000
F000
F1F0
F3C0
F780
FF80
FF00
FF00
FF00
FF80
F3C0
F1C0
F1E0
F0F0
ENDCHAR
STARTCHAR m.sups
ENCODING 7504
SWIDTH 600 0
DWIDTH 22 0
BBX 18 13 2 13
BITMAP
078F00
EFDF80
FFFF80
FFFF80
F3E7C0
E1E3C0
E1E3C0
E1E3C0
E1E3C0
E1E3C0
E1E3C0
E1E3C0
E1E3C0
ENDCHAR
STARTCHAR o.sups
ENCODING 7506
SWIDTH 600 0
DWIDTH 22 0
BBX 12 14 5 12
BITMAP
1F00
3FC0
7FC0
7FE0
F1E0
F0F0
F0F0
F0F0
F0F0
F1E0
FFE0
7FE0
3FC0
1F00
ENDCHAR
STARTCHAR p.sups
ENCODING 7510
SWIDTH 600 0
DWIDTH 22 0
BBX 11 17 6 9
BITMAP
0780
FFC0
FFC0
FFE0
F1E0
E1E0
E1E0
E1E0
E1E0
F3E0
FFE0
FFC0
EF80
E700
E000
E000
E000
ENDCHAR
STARTCHAR t.sups
ENCODING 7511
SWIDTH 600 0
DWIDTH 22 0
BBX 12 16 5 13
BITMAP
0E00
1E00
1E00
1E00
FFE0
FFE0
FFE0
1E00
1E00
1E00
1E00
1E00
1E00
1FE0
0FF0
07E0
ENDCHAR
STARTCHAR u.sups
ENCODING 7512
SWIDTH 600 0
DWIDTH 22 0
BBX 11 12 5 13
BITMAP
F0E0
F0E0
F0E0
F0E0
F0E0
F0E0
F0E0
F1E0
FFE0
FFE0
7EE0
3C00
ENDCHAR
STARTCHAR v.sups
ENCODING 7515
SWIDTH 600 0
DWIDTH 22 0
BBX 13 12 4 13
BITMAP
F078
7078
7870
78F0
38F0
3CE0
1DE0
1DC0
1FC0
0FC0
0F80
0F80
ENDCHAR
STARTCHAR c.sups
ENCODING 7580
SWIDTH 600 0
DWIDTH 22 0
BBX 11 14 6 12
BITMAP
0F80
1FC0
3FE0
7FC0
F880
F000
F000
F000
F000
F880
7FC0
7FE0
3FC0
0F80
ENDCHAR
STARTCHAR f.sups
ENCODING 7584
SWIDTH 600 0
DWIDTH 22 0
BBX 11 18 7 13
BITMAP
07E0
0FE0
1FE0
3E00
3C00
3C00
FFC0
FFC0
FFC0
3C00
3C00
3C00
3C00
3C00
3C00
3C00
3C00
3C00
ENDCHAR
STARTCHAR z.sups
ENCODING 7611
SWIDTH 600 0
DWIDTH 22 0
BBX 12 12 5 13
BITMAP
7FF0
7FF0
7FE0
03C0
0780
0F80
1F00
1E00
3C00
7FF0
FFF0
FFF0
ENDCHAR
STARTCHAR uni1E06
ENCODING 7686
SWIDTH 600 0
DWIDTH 22 0
BBX 17 31 3 -7
BITMAP
FFF000
FFFC00
FFFE00
FFFF00
F83F00
F81F00
F81F00
F81F00
F81F00
F83E00
FFFC00
FFF000
FFFE00
FFFF00
F81F80
F80F80
F80F80
F80F80
F80F80
F83F80
FFFF00
FFFF00
FFFC00
FFF000
000000
000000
000000
000000
1FF800
1FF800
1FF800
ENDCHAR
STARTCHAR uni1E07
ENCODING 7687
SWIDTH 600 0
DWIDTH 22 0
BBX 17 33 3 -7
BITMAP
F80000
F80000
F80000
F80000
F80000
F80000
F80000
F80000
F9F000
FFFC00
FFFE00
FFFF00
FE3F00
F81F80
F81F80
F81F80
F81F80
F81F80
F81F80
F81F80
F81F00
FE3F00
FFFE00
FFFE00
F7FC00
F1F000
000000
000000
000000
000000
1FF800
1FF800
1FF800
ENDCHAR
STARTCHAR uni1E0C
ENCODING 7692
SWIDTH 600 0
DWIDTH 22 0
BBX 17 33 3 -9
BITMAP
FFC000
FFF000
FFFC00
FFFE00
F8FF00
F83F00
F81F00
F81F80
F80F80
F80F80
F80F80
F80F80
F80F80
F80F80
F80F80
F81F80
F81F80
F81F00
F83F00
F8FE00
FFFE00
FFFC00
FFF000
FFC000
000000
000000
03C000
07E000
0FE000
0FE000
0FE000
07E000
03C000
ENDCHAR
STARTCHAR uni1E0D
ENCODING 7693
SWIDTH 600 0
DWIDTH 22 0
BBX 17 35 2 -9
BITMAP
000F80
000F80
000F80
000F80
000F80
000F80
000F80
000F80
07CF80
1FEF80
3FFF80
7FFF80
7E3F80
FC1F80
F80F80
F80F80
F80F80
F80F80
F80F80
F80F80
FC1F80
FE3F80
7FFF80
3FFF80
1FEF80
07C780
000000
000000
01E000
03F000
03F000
03F800
03F800
03F000
01E000
ENDCHAR
STARTCHAR uni1E0E
ENCODING 7694
SWIDTH 600 0
DWIDTH 22 0
BBX 17 31 3 -7
BITMAP
FFC000
FFF000
FFFC00
FFFE00
F8FF00
F83F00
F81F00
F81F80
F80F80
F80F80
F80F80
F80F80
F80F80
F80F80
F80F80
F81F80
F81F80
F81F00
F83F00
F8FE00
FFFE00
FFFC00
FFF000
FFC000
000000
000000
000000
000000
3FF800
3FF800
3FF800
ENDCHAR
STARTCHAR uni1E0F
ENCODING 7695
SWIDTH 600 0
DWIDTH 22 0
BBX 17 33 2 -7
BITMAP
000F80
000F80
000F80
000F80
000F80
000F80
000F80
000F80
07CF80
1FEF80
3FFF80
7FFF80
7E3F80
FC1F80
F80F80
F80F80
F80F80
F80F80
F80F80
F80F80
FC1F80
FE3F80
7FFF80
3FFF80
1FEF80
07C780
000000
000000
000000
000000
0FFC00
0FFC00
0FFC00
ENDCHAR
STARTCHAR uni1E10
ENCODING 7696
SWIDTH 600 0
DWIDTH 22 0
BBX 17 33 3 -9
BITMAP
FFC000
FFF000
FFFC00
FFFE00
F8FF00
F83F00
F81F00
F81F80
F80F80
F80F80
F80F80
F80F80
F80F80
F80F80
F80F80
F81F80
F81F80
F81F00
F83F00
F8FE00
FFFE00
FFFC00
FFF000
FFC000
038000
070000
070000
0F8000
03C000
01E000
03C000
1FC000
1E0000
ENDCHAR
STARTCHAR uni1E11
ENCODING 7697
SWIDTH 600 0
DWIDTH 22 0
BBX 17 35 2 -9
BITMAP
000F80
000F80
000F80
000F80
000F80
000F80
000F80
000F80
07CF80
1FEF80
3FFF80
7FFF80
7E3F80
FC1F80
F80F80
F80F80
F80F80
F80F80
F80F80
F80F80
FC1F80
FE3F80
7FFF80
3FFF80
1FEF80
07C780
03C000
038000
038000
07C000
01E000
00E000
01E000
0FC000
0F0000
ENDCHAR
STARTCHAR uni1E16
ENCODING 7702
SWIDTH 600 0
DWIDTH 22 0
BBX 16 36 3 0
BITMAP
0010
0070
00F8
03F0
03C0
0100
0000
1FFC
1FFC
1FFC
0000
0000
FFFF
FFFF
FFFF
FFFF
FC00
FC00
FC00
FC00
FC00
FC00
FFFC
FFFC
FFFC
FFFC
FC00
FC00
FC00
FC00
FC00
FC00
FFFF
FFFF
FFFF
FFFF
ENDCHAR
STARTCHAR uni1E17
ENCODING 7703
SWIDTH 600 0
DWIDTH 22 0
BBX 18 31 2 0
BITMAP
001000
003800
00FC00
01F000
03E000
008000
000000
0FFE00
0FFE00
0FFE00
000000
000000
000000
03F000
0FFC00
1FFF00
3FFF00
7E0F80
7C0F80
F80780
FFFFC0
FFFFC0
FFFFC0
FFFFC0
F80000
7C0000
7F0700
3FFF00
1FFF80
0FFF00
03F800
ENDCHAR
STARTCHAR uni1E20
ENCODING 7712
SWIDTH 600 0
DWIDTH 22 0
BBX 18 29 2 0
BITMAP
0FFE00
0FFE00
0FFE00
000000
000000
01FC00
07FF00
1FFF80
3FFF00
3F0700
7E0200
7C0000
FC0000
FC0000
F80000
F80000
F83FC0
F83FC0
F83FC0
F83FC0
F807C0
FC07C0
FC07C0
7E07C0
3F07C0
3FFFC0
1FFF80
07FF00
01FC00
ENDCHAR
STARTCHAR uni1E21
ENCODING 7713
SWIDTH 600 0
DWIDTH 22 0
BBX 19 31 2 -7
BITMAP
0FFC00
0FFC00
0FFC00
000000
000000
000000
07FFC0
1FFFC0
3FFFC0
7FFFC0
7C3FC0
7C1E00
7C1F00
7C3F00
7FFE00
3FFE00
1FFC00
3FF000
780000
780000
7FFE00
7FFF80
3FFFC0
3FFFC0
7807E0
F007C0
F80FC0
FFFFC0
FFFF80
7FFE00
0FF000
ENDCHAR
STARTCHAR uni1E24
ENCODING 7716
SWIDTH 600 0
DWIDTH 22 0
BBX 17 33 2 -9
BITMAP
FC0F80
FC0F80
FC0F80
FC0F80
FC0F80
FC0F80
FC0F80
FC0F80
FC0F80
FC0F80
FFFF80
FFFF80
FFFF80
FFFF80
FC0F80
FC0F80
FC0F80
FC0F80
FC0F80
FC0F80
FC0F80
FC0F80
FC0F80
FC0F80
000000
000000
01E000
03F000
07F000
07F000
07F000
03F000
01E000
ENDCHAR
STARTCHAR uni1E25
ENCODING 7717
SWIDTH 600 0
DWIDTH 22 0
BBX 16 35 3 -9
BITMAP
F800
F800
F800
F800
F800
F800
F800
F800
F8F8
FBFE
FFFE
FFFF
FE3F
FC1F
F81F
F81F
F81F
F81F
F81F
F81F
F81F
F81F
F81F
F81F
F81F
F81F
0000
0000
03C0
07E0
07E0
07F0
07F0
07E0
03C0
ENDCHAR
STARTCHAR uni1E26
ENCODING 7718
SWIDTH 600 0
DWIDTH 22 0
BBX 17 30 2 0
BITMAP
1C1C00
3E3E00
3E3E00
3E3E00
1C1C00
000000
FC0F80
FC0F80
FC0F80
FC0F80
FC0F80
FC0F80
FC0F80
FC0F80
FC0F80
FC0F80
FFFF80
FFFF80
FFFF80
FFFF80
FC0F80
FC0F80
FC0F80
FC0F80
FC0F80
FC0F80
FC0F80
FC0F80
FC0F80
FC0F80
ENDCHAR
STARTCHAR uni1E27
ENCODING 7719
SWIDTH 600 0
DWIDTH 22 0
BBX 20 32 -1 0
BITMAP
707000
F8F800
F8F800
F8F800
707000
000000
0F8000
0F8000
0F8000
0F8000
0F8000
0F8000
0F8000
0F8000
0F8F80
0FBFE0
0FFFE0
0FFFF0
0FE3F0
0FC1F0
0F81F0
0F81F0
0F81F0
0F81F0
0F81F0
0F81F0
0F81F0
0F81F0
0F81F0
0F81F0
0F81F0
0F81F0
ENDCHAR
STARTCHAR uni1E28
ENCODING 7720
SWIDTH 600 0
DWIDTH 22 0
BBX 18 33 1 -9
BITMAP
7E07C0
7E07C0
7E07C0
7E07C0
7E07C0
7E07C0
7E07C0
7E07C0
7E07C0
7E07C0
7FFFC0
7FFFC0
7FFFC0
7FFFC0
7E07C0
7E07C0
7E07C0
7E07C0
7E07C0
7E07C0
7E07C0
7E07C0
7E07C0
7E07C0
3C0000
380000
380000
7C0000
1E0000
0E0000
1E0000
FE0000
F00000
ENDCHAR
STARTCHAR uni1E29
ENCODING 7721
SWIDTH 600 0
DWIDTH 22 0
BBX 18 35 1 -9
BITMAP
3E0000
3E0000
3E0000
3E0000
3E0000
3E0000
3E0000
3E0000
3E3E00
3EFF80
3FFF80
3FFFC0
3F8FC0
3F07C0
3E07C0
3E07C0
3E07C0
3E07C0
3E07C0
3E07C0
3E07C0
3E07C0
3E07C0
3E07C0
3E07C0
3E07C0
1C0000
3C0000
380000
7C0000
1E0000
0F0000
1F0000
FE0000
780000
ENDCHAR
STARTCHAR uni1E2A
ENCODING 7722
SWIDTH 600 0
DWIDTH 22 0
BBX 17 32 2 -8
BITMAP
FC0F80
FC0F80
FC0F80
FC0F80
FC0F80
FC0F80
FC0F80
FC0F80
FC0F80
FC0F80
FFFF80
FFFF80
FFFF80
FFFF80
FC0F80
FC0F80
FC0F80
FC0F80
FC0F80
FC0F80
FC0F80
FC0F80
FC0F80
FC0F80
000000
000000
041000
1C0E00
1E1E00
1FFC00
0FF800
03F000
ENDCHAR
STARTCHAR uni1E2B
ENCODING 7723
SWIDTH 600 0
DWIDTH 22 0
BBX 16 34 3 -8
BITMAP
F800
F800
F800
F800
F800
F800
F800
F800
F8F8
FBFE
FFFE
FFFF
FE3F
FC1F
F81F
F81F
F81F
F81F
F81F
F81F
F81F
F81F
F81F
F81F
F81F
F81F
0000
0000
0820
381C
3C3C
1FF8
1FF8
07E0
ENDCHAR
STARTCHAR uni1E32
ENCODING 7730
SWIDTH 600 0
DWIDTH 22 0
BBX 19 33 2 -9
BITMAP
FC07E0
FC0FC0
FC1F80
FC3F00
FC3E00
FC7E00
FCFC00
FCF800
FDF000
FFF000
FFF000
FFF800
FFF800
FFFC00
FF7C00
FE7E00
FE3E00
FC3F00
FC1F00
FC1F80
FC0FC0
FC0FC0
FC07E0
FC07E0
000000
000000
00F000
01F800
03F800
03F800
03F800
01F800
00F000
ENDCHAR
STARTCHAR uni1E33
ENCODING 7731
SWIDTH 600 0
DWIDTH 22 0
BBX 18 35 3 -9
BITMAP
F80000
F80000
F80000
F80000
F80000
F80000
F80000
F80000
F81FC0
F83F00
F87E00
F8FC00
F8F800
F9F000
FBE000
FFE000
FFF000
FFF000
FFF800
FEFC00
FC7C00
F83E00
F83F00
F81F00
F81F80
F80FC0
000000
000000
01E000
03F000
07F000
07F000
07F000
03F000
01E000
ENDCHAR
STARTCHAR uni1E34
ENCODING 7732
SWIDTH 600 0
DWIDTH 22 0
BBX 19 31 2 -7
BITMAP
FC07E0
FC0FC0
FC1F80
FC3F00
FC3E00
FC7E00
FCFC00
FCF800
FDF000
FFF000
FFF000
FFF800
FFF800
FFFC00
FF7C00
FE7E00
FE3E00
FC3F00
FC1F00
FC1F80
FC0FC0
FC0FC0
FC07E0
FC07E0
000000
000000
000000
000000
0FFE00
0FFE00
0FFE00
ENDCHAR
STARTCHAR uni1E35
ENCODING 7733
SWIDTH 600 0
DWIDTH 22 0
BBX 18 33 3 -7
BITMAP
F80000
F80000
F80000
F80000
F80000
F80000
F80000
F80000
F81FC0
F83F00
F87E00
F8FC00
F8F800
F9F000
FBE000
FFE000
FFF000
FFF000
FFF800
FEFC00
FC7C00
F83E00
F83F00
F81F00
F81F80
F80FC0
000000
000000
000000
000000
1FFC00
1FFC00
1FFC00
ENDCHAR
STARTCHAR uni1E36
ENCODING 7734
SWIDTH 600 0
DWIDTH 22 0
BBX 16 33 4 -9
BITMAP
F800
F800
F800
F800
F800
F800
F800
F800
F800
F800
F800
F800
F800
F800
F800
F800
F800
F800
F800
F800
FFFF
FFFF
FFFF
FFFF
0000
0000
03C0
07E0
07E0
07F0
07F0
07E0
03C0
ENDCHAR
STARTCHAR uni1E37
ENCODING 7735
SWIDTH 600 0
DWIDTH 22 0
BBX 18 35 2 -9
BITMAP
FFE000
FFE000
FFE000
FFE000
07E000
07E000
07E000
07E000
07E000
07E000
07E000
07E000
07E000
07E000
07E000
07E000
07E000
07E000
07E000
07E000
03E000
03F100
03FF80
01FF80
00FF80
007F40
000000
000000
007800
00FC00
00FE00
00FE00
00FE00
00FC00
007800
ENDCHAR
STARTCHAR uni1E38
ENCODING 7736
SWIDTH 600 0
DWIDTH 22 0
BBX 18 38 2 -9
BITMAP
FFC000
FFC000
FFC000
000000
000000
3E0000
3E0000
3E0000
3E0000
3E0000
3E0000
3E0000
3E0000
3E0000
3E0000
3E0000
3E0000
3E0000
3E0000
3E0000
3E0000
3E0000
3E0000
3E0000
3E0000
3FFFC0
3FFFC0
3FFFC0
3FFFC0
000000
000000
00F000
01F800
01F800
01FC00
01FC00
01F800
00F000
ENDCHAR
STARTCHAR uni1E39
ENCODING 7737
SWIDTH 600 0
DWIDTH 22 0
BBX 18 40 2 -9
BITMAP
3FF800
3FF800
3FF800
000000
000000
FFE000
FFE000
FFE000
FFE000
07E000
07E000
07E000
07E000
07E000
07E000
07E000
07E000
07E000
07E000
07E000
07E000
07E000
07E000
07E000
07E000
03E000
03F100
03FF80
01FF80
00FF80
007F40
000000
000000
007800
00FC00
00FE00
00FE00
00FE00
00FC00
007800
ENDCHAR
STARTCHAR uni1E3A
ENCODING 7738
SWIDTH 600 0
DWIDTH 22 0
BBX 16 31 4 -7
BITMAP
F800
F800
F800
F800
F800
F800
F800
F800
F800
F800
F800
F800
F800
F800
F800
F800
F800
F800
F800
F800
FFFF
FFFF
FFFF
FFFF
0000
0000
0000
0000
1FF8
1FF8
1FF8
ENDCHAR
STARTCHAR uni1E3B
ENCODING 7739
SWIDTH 600 0
DWIDTH 22 0
BBX 18 33 2 -7
BITMAP
FFE000
FFE000
FFE000
FFE000
07E000
07E000
07E000
07E000
07E000
07E000
07E000
07E000
07E000
07E000
07E000
07E000
07E000
07E000
07E000
07E000
03E000
03F100
03FF80
01FF80
00FF80
007F40
000000
000000
000000
000000
03FF80
03FF80
03FF80
ENDCHAR
STARTCHAR uni1E3E
ENCODING 7742
SWIDTH 600 0
DWIDTH 22 0
BBX 18 32 2 0
BITMAP
001000
007000
00F800
01FC00
03F800
07E000
03C000
010000
FC0FC0
FC0FC0
FC1FC0
FE1FC0
FE1FC0
FE3FC0
FE3BC0
FF3BC0
F73FC0
F77FC0
F777C0
F7F7C0
F3F7C0
F3E7C0
F3E7C0
F1E7C0
F1C7C0
F1C7C0
F007C0
F007C0
F007C0
F007C0
F007C0
F007C0
ENDCHAR
STARTCHAR uni1E3F
ENCODING 7743
SWIDTH 600 0
DWIDTH 22 0
BBX 20 29 1 0
BITMAP
000400
000E00
001F00
003F80
007F00
007C00
00F800
007000
002000
000000
000000
F1C3C0
F7E7E0
FFFFE0
FFFFE0
FCFBF0
FCF1F0
F8F1F0
F8F1F0
F8F1F0
F8F1F0
F8F1F0
F8F1F0
F8F1F0
F8F1F0
F8F1F0
F8F1F0
F8F1F0
F8F1F0
ENDCHAR
STARTCHAR uni1E40
ENCODING 7744
SWIDTH 600 0
DWIDTH 22 0
BBX 18 31 2 0
BITMAP
01E000
03F000
03F000
03F000
03F000
01E000
000000
FC0FC0
FC0FC0
FC1FC0
FE1FC0
FE1FC0
FE3FC0
FE3BC0
FF3BC0
F73FC0
F77FC0
F777C0
F7F7C0
F3F7C0
F3E7C0
F3E7C0
F1E7C0
F1C7C0
F1C7C0
F007C0
F007C0
F007C0
F007C0
F007C0
F007C0
ENDCHAR
STARTCHAR uni1E41
ENCODING 7745
SWIDTH 600 0
DWIDTH 22 0
BBX 20 27 1 0
BITMAP
007000
00FC00
01FC00
01FC00
01FC00
00FC00
007000
000000
000000
F1C3C0
F7E7E0
FFFFE0
FFFFE0
FCFBF0
FCF1F0
F8F1F0
F8F1F0
F8F1F0
F8F1F0
F8F1F0
F8F1F0
F8F1F0
F8F1F0
F8F1F0
F8F1F0
F8F1F0
F8F1F0
ENDCHAR
STARTCHAR uni1E42
ENCODING 7746
SWIDTH 600 0
DWIDTH 22 0
BBX 18 33 2 -9
BITMAP
FC0FC0
FC0FC0
FC1FC0
FE1FC0
FE1FC0
FE3FC0
FE3BC0
FF3BC0
F73FC0
F77FC0
F777C0
F7F7C0
F3F7C0
F3E7C0
F3E7C0
F1E7C0
F1C7C0
F1C7C0
F007C0
F007C0
F007C0
F007C0
F007C0
F007C0
000000
000000
01E000
03F000
07F000
07F000
07F000
03F000
01E000
ENDCHAR
STARTCHAR uni1E43
ENCODING 7747
SWIDTH 600 0
DWIDTH 22 0
BBX 20 27 1 -9
BITMAP
F1C3C0
F7E7E0
FFFFE0
FFFFE0
FCFBF0
FCF1F0
F8F1F0
F8F1F0
F8F1F0
F8F1F0
F8F1F0
F8F1F0
F8F1F0
F8F1F0
F8F1F0
F8F1F0
F8F1F0
F8F1F0
000000
000000
00F000
01F800
03F800
03F800
03F800
01F800
00F000
ENDCHAR
STARTCHAR uni1E44
ENCODING 7748
SWIDTH 600 0
DWIDTH 22 0
BBX 17 31 2 0
BITMAP
01E000
03F000
03F000
03F000
03F000
01E000
000000
FC0F80
FC0F80
FE0F80
FE0F80
FF0F80
FF0F80
FF0F80
FF8F80
FF8F80
FBCF80
FBCF80
F9EF80
F9EF80
F9EF80
F8F780
F8F780
F87780
F87F80
F83F80
F83F80
F83F80
F81F80
F81F80
F80F80
ENDCHAR
STARTCHAR uni1E45
ENCODING 7749
SWIDTH 600 0
DWIDTH 22 0
BBX 16 27 3 0
BITMAP
03C0
07E0
07F0
07F0
07F0
07E0
03C0
0000
0000
F0F8
F3FE
F7FE
FFFF
FE3F
FC1F
F81F
F81F
F81F
F81F
F81F
F81F
F81F
F81F
F81F
F81F
F81F
F81F
ENDCHAR
STARTCHAR uni1E46
ENCODING 7750
SWIDTH 600 0
DWIDTH 22 0
BBX 17 33 2 -9
BITMAP
FC0F80
FC0F80
FE0F80
FE0F80
FF0F80
FF0F80
FF0F80
FF8F80
FF8F80
FBCF80
FBCF80
F9EF80
F9EF80
F9EF80
F8F780
F8F780
F87780
F87F80
F83F80
F83F80
F83F80
F81F80
F81F80
F80F80
000000
000000
01E000
03F000
07F000
07F000
07F000
03F000
01E000
ENDCHAR
STARTCHAR uni1E47
ENCODING 7751
SWIDTH 600 0
DWIDTH 22 0
BBX 16 27 3 -9
BITMAP
F0F8
F3FE
F7FE
FFFF
FE3F
FC1F
F81F
F81F
F81F
F81F
F81F
F81F
F81F
F81F
F81F
F81F
F81F
F81F
0000
0000
03C0
07E0
07E0
07F0
07E0
07E0
03C0
ENDCHAR
STARTCHAR uni1E48
ENCODING 7752
SWIDTH 600 0
DWIDTH 22 0
BBX 17 31 2 -7
BITMAP
FC0F80
FC0F80
FE0F80
FE0F80
FF0F80
FF0F80
FF0F80
FF8F80
FF8F80
FBCF80
FBCF80
F9EF80
F9EF80
F9EF80
F8F780
F8F780
F87780
F87F80
F83F80
F83F80
F83F80
F81F80
F81F80
F80F80
000000
000000
000000
000000
1FFC00
1FFC00
1FFC00
ENDCHAR
STARTCHAR uni1E49
ENCODING 7753
SWIDTH 600 0
DWIDTH 22 0
BBX 16 25 3 -7
BITMAP
F0F8
F3FE
F7FE
FFFF
FE3F
FC1F
F81F
F81F
F81F
F81F
F81F
F81F
F81F
F81F
F81F
F81F
F81F
F81F
0000
0000
0000
0000
1FF8
1FF8
1FF8
ENDCHAR
STARTCHAR uni1E52
ENCODING 7762
SWIDTH 600 0
DWIDTH 22 0
BBX 19 36 1 0
BITMAP
000800
003C00
007C00
01FA00
00F000
00C000
000000
0FFE00
0FFE00
0FFE00
000000
000000
01F800
07FE00
1FFF00
1FFF80
3F1FC0
7E0FC0
7E07C0
7C07E0
7C03E0
FC03E0
FC03E0
FC03E0
FC03E0
FC03E0
7C03E0
7C07E0
7C07E0
7E07C0
3E0FC0
3F1FC0
1FFF80
1FFF00
07FE00
01F800
ENDCHAR
STARTCHAR uni1E53
ENCODING 7763
SWIDTH 600 0
DWIDTH 22 0
BBX 18 31 2 0
BITMAP
001000
007000
00F800
03F000
01C000
018000
000000
1FFC00
1FFC00
1FFC00
000000
000000
000000
03F000
0FFC00
3FFE00
7FFF00
7E1F80
FC0F80
F80FC0
F80FC0
F80FC0
F80FC0
F80FC0
F80FC0
FC0F80
7E1F80
7FFF00
3FFE00
0FFC00
03F000
ENDCHAR
STARTCHAR uni1E58
ENCODING 7768
SWIDTH 600 0
DWIDTH 22 0
BBX 18 31 3 0
BITMAP
03C000
07E000
07E000
07E000
07E000
03C000
000000
FFF000
FFFC00
FFFE00
FFFF00
F83F00
F81F80
F80F80
F80F80
F80F80
F81F80
F83F00
FFFF00
FFFE00
FFFC00
FFF800
F8F800
F8FC00
F87E00
F87E00
F83F00
F83F00
F81F80
F81F80
F80FC0
ENDCHAR
STARTCHAR uni1E59
ENCODING 7769
SWIDTH 600 0
DWIDTH 22 0
BBX 16 27 4 0
BITMAP
01C0
03F0
07F0
07F0
07F0
03F0
01E0
0000
0000
F87E
F9FF
FBFE
FFFE
FF82
FE00
FC00
FC00
F800
F800
F800
F800
F800
F800
F800
F800
F800
F800
ENDCHAR
STARTCHAR uni1E5A
ENCODING 7770
SWIDTH 600 0
DWIDTH 22 0
BBX 18 33 3 -9
BITMAP
FFF000
FFFC00
FFFE00
FFFF00
F83F00
F81F80
F80F80
F80F80
F80F80
F81F80
F83F00
FFFF00
FFFE00
FFFC00
FFF800
F8F800
F8FC00
F87E00
F87E00
F83F00
F83F00
F81F80
F81F80
F80FC0
000000
000000
01C000
03E000
07F000
07F000
07F000
07F000
03C000
ENDCHAR
STARTCHAR uni1E5B
ENCODING 7771
SWIDTH 600 0
DWIDTH 22 0
BBX 16 27 4 -9
BITMAP
F87E
F9FF
FBFE
FFFE
FF82
FE00
FC00
FC00
F800
F800
F800
F800
F800
F800
F800
F800
F800
F800
0000
0000
7800
FC00
FC00
FE00
FC00
FC00
7800
ENDCHAR
STARTCHAR uni1E5C
ENCODING 7772
SWIDTH 600 0
DWIDTH 22 0
BBX 18 38 3 -9
BITMAP
3FF800
3FF800
3FF800
000000
000000
FFF000
FFFC00
FFFE00
FFFF00
F83F00
F81F80
F80F80
F80F80
F80F80
F81F80
F83F00
FFFF00
FFFE00
FFFC00
FFF800
F8F800
F8FC00
F87E00
F87E00
F83F00
F83F00
F81F80
F81F80
F80FC0
000000
000000
01C000
03E000
07F000
07F000
07F000
07F000
03C000
ENDCHAR
STARTCHAR uni1E5D
ENCODING 7773
SWIDTH 600 0
DWIDTH 22 0
BBX 16 33 4 -9
BITMAP
1FFC
1FFC
1FFC
0000
0000
0000
F87E
F9FF
FBFE
FFFE
FF82
FE00
FC00
FC00
F800
F800
F800
F800
F800
F800
F800
F800
F800
F800
0000
0000
7800
FC00
FC00
FE00
FC00
FC00
7800
ENDCHAR
STARTCHAR uni1E5E
ENCODING 7774
SWIDTH 600 0
DWIDTH 22 0
BBX 18 31 3 -7
BITMAP
FFF000
FFFC00
FFFE00
FFFF00
F83F00
F81F80
F80F80
F80F80
F80F80
F81F80
F83F00
FFFF00
FFFE00
FFFC00
FFF800
F8F800
F8FC00
F87E00
F87E00
F83F00
F83F00
F81F80
F81F80
F80FC0
000000
000000
000000
000000
1FFC00
1FFC00
1FFC00
ENDCHAR
STARTCHAR uni1E5F
ENCODING 7775
SWIDTH 600 0
DWIDTH 22 0
BBX 18 25 2 -7
BITMAP
3E1F80
3E7FC0
3EFF80
3FFF80
3FE080
3F8000
3F0000
3F0000
3E0000
3E0000
3E0000
3E0000
3E0000
3E0000
3E0000
3E0000
3E0000
3E0000
000000
000000
000000
000000
FFC000
FFC000
FFC000
ENDCHAR
STARTCHAR uni1E60
ENCODING 7776
SWIDTH 600 0
DWIDTH 22 0
BBX 18 31 2 0
BITMAP
00E000
01F000
03F800
03F800
01F000
00E000
000000
03F800
0FFE00
1FFF80
3FFF00
7E0F00
7C0200
7C0000
7E0000
7F0000
7FC000
3FF800
1FFE00
0FFF00
03FF80
007F80
001FC0
000FC0
000FC0
300FC0
7C1F80
FFFF80
FFFF00
3FFE00
07F000
ENDCHAR
STARTCHAR uni1E61
ENCODING 7777
SWIDTH 600 0
DWIDTH 22 0
BBX 17 27 2 0
BITMAP
01E000
03F000
03F800
03F800
03F800
03F000
01E000
000000
000000
07F800
1FFE00
3FFF80
7FFF00
7E0E00
7C0200
7F0000
3FF800
3FFE00
0FFF00
01FF80
001F80
200F80
7C0F80
FFFF80
FFFF00
3FFE00
07F800
ENDCHAR
STARTCHAR uni1E62
ENCODING 7778
SWIDTH 600 0
DWIDTH 22 0
BBX 18 33 2 -9
BITMAP
03F800
0FFE00
1FFF80
3FFF00
7E0F00
7C0200
7C0000
7E0000
7F0000
7FC000
3FF800
1FFE00
0FFF00
03FF80
007F80
001FC0
000FC0
000FC0
300FC0
7C1F80
FFFF80
FFFF00
3FFE00
07F000
000000
000000
01E000
03F000
03F000
07F000
07F000
03F000
01E000
ENDCHAR
STARTCHAR uni1E63
ENCODING 7779
SWIDTH 600 0
DWIDTH 22 0
BBX 17 27 2 -9
BITMAP
07F800
1FFE00
3FFF80
7FFF00
7E0E00
7C0200
7F0000
3FF800
3FFE00
0FFF00
01FF80
001F80
200F80
7C0F80
FFFF80
FFFF00
3FFE00
07F800
000000
000000
01E000
03F000
03F000
03F800
03F000
03F000
01E000
ENDCHAR
ENDFONT
